<svg width="4000" height="2000" xmlns="http://www.w3.org/2000/svg" stroke="null">
 <g stroke="null">
  <title stroke="null">Layer 1</title>
  <path fill="#fff" opacity="undefined" d="m1076.50689,1067.72626l103.1579,0l0,105.72174l-103.1579,0l0,-105.72174z" id="MA_3_3" stroke="#000"/>
  <path fill="#fff" opacity="undefined" d="m1076.59962,1001.7143l103.15788,0l0,65.16092l-103.15788,0l0,-65.16092z" id="MA_3_4" stroke="#000"/>
  <rect stroke="#000" fill="#fff" x="655.4706" y="1316.44447" width="523.43404" height="339.1228" id="nexus_3_1"/>
  <path stroke="#000" fill="#fff" opacity="undefined" d="m655.09679,294.55711l523.79683,0l0,354.34356l-523.79683,0l0,-354.34356z" id="nexus_3_2"/>
  <rect fill="#fff" x="950.271" y="649.41161" width="125.50016" height="667.02092" id="MA_3_0" stroke="#000"/>
  <g id="MA_3_8">
   <path stroke="#000" fill="#fff" d="m1076.90731,732.66661l103.1579,0l0,81.81555l-103.1579,0l0,-81.81555z" id="x_stairs_3_2"/>
   <g id="svg_6" transform="rotate(90 1105.59 775.321) translate(670 630) scale(0.6 0.6)">
    <path id="svg_9" fill="#000" d="m721.20893,147.77777a10.34,10.34 0 1 1 -10.34,10.34a10.34,10.34 0 0 1 10.34,-10.34zm13.07,38.93l0,78.23a5.74,5.74 0 0 1 -5.72,5.72l0,0a5.73,5.73 0 0 1 -5.72,-5.72l0,-46l-3.11,0l0,46a5.74,5.74 0 0 1 -5.72,5.72l0,0a5.74,5.74 0 0 1 -5.72,-5.72l0,-78.23l-2,0l0,28.75c0,5.73 -8.67,5.73 -8.67,0l0,-30.94c0,-5 1.69,-8.56 4.77,-10.88c5.3,-4 32.33,-4 37.63,0c3.08,2.32 4.79,5.85 4.78,10.88l0,30.94c0,5.73 -8.68,5.73 -8.68,0l0,-28.75l-1.84,0z"/>
   </g>
  </g>
  <g stroke="null" id="GEO_3_1">
   <path stroke="#000" fill="#fff" d="m1261.84848,1552.2278l0,103.1579l-81.81555,0l0,-103.1579l81.81555,0z" id="svg_24"/>
   <g stroke="null" id="svg_10" transform="translate(760 1465) scale(0.6 0.6)">
    <path stroke="null" id="svg_17" fill="#000" d="m771.20895,177.77777a10.34,10.34 0 1 1 -10.34,10.34a10.34,10.34 0 0 1 10.34,-10.34zm13.07,38.93l0,78.23a5.74,5.74 0 0 1 -5.72,5.72l0,0a5.73,5.73 0 0 1 -5.72,-5.72l0,-46l-3.11,0l0,46a5.74,5.74 0 0 1 -5.72,5.72l0,0a5.74,5.74 0 0 1 -5.72,-5.72l0,-78.23l-2,0l0,28.75c0,5.73 -8.67,5.73 -8.67,0l0,-30.94c0,-5 1.69,-8.56 4.77,-10.88c5.3,-4 32.33,-4 37.63,0c3.08,2.32 4.79,5.85 4.78,10.88l0,30.94c0,5.73 -8.68,5.73 -8.68,0l0,-28.75l-1.84,0z"/>
   </g>
  </g>
  <rect stroke="#000" fill="#fff" x="2098.13192" y="1322.50581" width="288" height="102.66667" id="GEO_3_12"/>
  <g id="GEO_3_2">
   <path transform="rotate(90 1303.48 1603.71)" stroke="#000" fill="#fff" d="m1251.90499,1562.53605l103.1579,0l0,82.34185l-103.1579,0l0,-82.34185z" id="svg_32"/>
   <g id="svg_20" transform="translate(835 1465) scale(0.55 0.55)">
    <path id="svg_26" fill="#000" d="m835.29431,234.32939l-12.47,51.61l12.47,0l0,25.13a5.73,5.73 0 0 0 5.72,5.72l0,0a5.73,5.73 0 0 0 5.71,-5.72l0,-25.13l2.26,0l0,25.13a5.73,5.73 0 0 0 5.71,5.72l0,0a5.73,5.73 0 0 0 5.72,-5.72l0,-25.13l11.77,0l-11.77,-50.27l0,-2.8l1.85,0l0.13,0l8.82,31.38a4.45,4.45 0 0 0 8.56,-2.4l-8.94,-31.8a4.29,4.29 0 0 0 -0.19,-0.54c-1.13,-4.72 -1.64,-7.54 -4.49,-9.68c-5.3,-4 -30.91,-4 -36.2,0c-3.08,2.32 -4.2,5.87 -5.54,10.88l0.08,0l-8.74,31.11a4.44,4.44 0 1 0 8.55,2.4l8.83,-31.39l0.16,0l2,0l0,1.46l0,0.04zm12.49,-40.39a10.34,10.34 0 1 1 -10.34,10.34a10.34,10.34 0 0 1 10.34,-10.34z"/>
   </g>
  </g>
  <rect stroke="#000" fill="#fff" x="1522.18782" y="1322.5058" width="288" height="102.66667" id="GEO_3_14"/>
  <rect stroke="#000" fill="#fff" x="1810.18241" y="1322.50581" width="288" height="102.66667" id="GEO_3_13"/>
  <rect fill="#fff" x="1178.86209" y="1322.50581" width="343.42125" height="102.66667" id="GEO_3_15" stroke="#000"/>
  <rect stroke="#000" fill="#fff" x="2533.35884" y="1551.89423" width="138.70968" height="103" id="GEO_3_9"/>
  <g id="stairs_3_5">
   <path transform="rotate(90 3668.09 899.425)" stroke="#000" fill="#fff" d="m3626.84238,869.61729l82.47835,0l0,59.61538l-82.47835,0l0,-59.61538z" id="svg_41"/>
   <g id="svg_38" transform="translate(3195 790) scale(0.42 0.42)">
    <path id="svg_39" fill="#000" d="m1162.85698,253.96823l26.1,0c1.07,0 1.95,0.88 1.95,1.95l0,79.25c0,0.05 0,0.09 0,0.13l0,1.3l-122.88,0l0,-16.77c-0.02,-2.16 1.13,-3.31 3.34,-3.54l27.03,0.04l0,-19.37c-0.02,-0.99 0.41,-1.51 1.3,-1.52l29.13,0l0,-18.62c0.07,-1.3 0.81,-1.87 1.96,-2.01l29.53,0l0,-17.96c-0.05,-0.87 0.58,-2.88 2.54,-2.88l0,0z"/>
   </g>
  </g>
  <g id="MA_3_9">
   <path stroke="#000" fill="#fff" d="m1076.90731,649.99998l103.1579,0l0,81.81555l-103.1579,0l0,-81.81555z" id="svg_44"/>
   <g id="svg_42" transform="rotate(90 1112.48 684.663) translate(670 555) scale(0.55 0.55)">
    <path id="svg_43" fill="#000" d="m800.74886,196.14757l-12.47,51.61l12.47,0l0,25.13a5.73,5.73 0 0 0 5.72,5.72l0,0a5.73,5.73 0 0 0 5.71,-5.72l0,-25.13l2.26,0l0,25.13a5.73,5.73 0 0 0 5.71,5.72l0,0a5.73,5.73 0 0 0 5.72,-5.72l0,-25.13l11.77,0l-11.77,-50.27l0,-2.8l1.85,0l0.13,0l8.82,31.38a4.45,4.45 0 0 0 8.56,-2.4l-8.94,-31.8a4.29,4.29 0 0 0 -0.19,-0.54c-1.13,-4.72 -1.64,-7.54 -4.49,-9.68c-5.3,-4 -30.91,-4 -36.2,0c-3.08,2.32 -4.2,5.87 -5.54,10.88l0.08,0l-8.74,31.11a4.44,4.44 0 1 0 8.55,2.4l8.83,-31.39l0.16,0l2,0l0,1.46l0,0.04zm12.49,-40.39a10.34,10.34 0 1 1 -10.34,10.34a10.34,10.34 0 0 1 10.34,-10.34z"/>
   </g>
  </g>
  <g id="BIO_3_1">
   <path transform="rotate(90 1221.33 597.375)" stroke="#000" fill="#fff" d="m1169.75601,556.46725l103.1579,0l0,81.81555l-103.1579,0l0,-81.81555z" id="svg_45"/>
   <g id="svg_47" transform="translate(760 455) scale(0.6 0.6)">
    <path id="svg_48" fill="#000" d="m771.20893,177.77777a10.34,10.34 0 1 1 -10.34,10.34a10.34,10.34 0 0 1 10.34,-10.34zm13.07,38.93l0,78.23a5.74,5.74 0 0 1 -5.72,5.72l0,0a5.73,5.73 0 0 1 -5.72,-5.72l0,-46l-3.11,0l0,46a5.74,5.74 0 0 1 -5.72,5.72l0,0a5.74,5.74 0 0 1 -5.72,-5.72l0,-78.23l-2,0l0,28.75c0,5.73 -8.67,5.73 -8.67,0l0,-30.94c0,-5 1.69,-8.56 4.77,-10.88c5.3,-4 32.33,-4 37.63,0c3.08,2.32 4.79,5.85 4.78,10.88l0,30.94c0,5.73 -8.68,5.73 -8.68,0l0,-28.75l-1.84,0z"/>
   </g>
  </g>
  <rect fill="#fff" x="1076.90732" y="814.66112" width="103.15789" height="60.83871" id="MA_3_7" stroke="#000"/>
  <path stroke="#000" fill="#fff" opacity="undefined" d="m1180.23668,294.43872l220,0l0,102.66666l-220,0l0,-102.66666z" id="BIO_3_21"/>
  <rect stroke="#000" fill="#fff" x="1400.08105" y="294.27127" width="220" height="103" id="BIO_3_20"/>
  <rect stroke="#000" fill="#fff" x="2059.28312" y="294.83096" width="220" height="102.66667" id="BIO_3_17"/>
  <rect stroke="#000" fill="#fff" x="1619.64797" y="294.87317" width="220" height="102.66667" id="BIO_3_19"/>
  <rect fill="#fff" x="1839.46557" y="294.92803" width="220" height="102.66667" id="BIO_3_18" stroke="#000"/>
  <rect stroke="#000" fill="#fff" x="2279.14379" y="294.7705" width="154.10736" height="103" id="BIO_3_16"/>
  <path stroke="#000" fill="#fff" opacity="undefined" d="m2433.56736,294.70885l233.90716,0l0,103l-233.90716,0l0,-103z" id="BIO_3_15"/>
  <path transform="rotate(90 2628.6 472.35)" fill="#fff" opacity="undefined" d="m2554.22707,434.06751l148.72509,0l0,76.56711l-148.72509,0l0,-76.56711z" id="BIO_3_14" stroke="#000"/>
  <rect fill="#fff" x="2526.08002" y="546.46358" width="140.91893" height="102.53243" id="BIO_3_13" stroke="#000"/>
  <path stroke="#000" id="nexus_3_5" d="m2385.77546,1185.5756l147.48521,0l0,469.24826l-147.48521,0l0,-469.24826z" opacity="undefined" fill="#fff"/>
  <rect fill="#fff" x="1848.18634" y="547.3887" width="100.01094" height="101.61111" id="BIO_3_8" stroke="#000"/>
  <g id="stairs_3_4">
   <path stroke="#000" fill="#fff" d="m2303.30232,1216.35959l82.43374,0l0,59.61538l-82.43374,0l0,-59.61538z" id="svg_79"/>
   <g id="svg_49" transform="translate(1866 1120) scale(0.5 0.5)">
    <path id="svg_50" fill="#000" d="m991.97273,213.33333l26.1,0c1.07,0 1.95,0.88 1.95,1.95l0,79.25c0,0.05 0,0.09 0,0.13l0,1.3l-122.88,0l0,-16.77c-0.02,-2.16 1.13,-3.31 3.34,-3.54l27.03,0.04l0,-19.37c-0.02,-0.99 0.41,-1.51 1.3,-1.52l29.13,0l0,-18.62c0.07,-1.3 0.81,-1.87 1.96,-2.01l29.53,0l0,-17.96c-0.05,-0.87 0.58,-2.88 2.54,-2.88l0,0z"/>
   </g>
  </g>
  <path fill="#fff" stroke="#000" opacity="undefined" d="m2400.43794,546.55063l125.21519,0l0,276.30139l-125.21519,0l0,-276.30139z" id="nexus_3_3"/>
  <rect fill="#fff" x="2380.45696" y="822.67196" width="214.14587" height="362.55146" id="nexus_3_4" stroke="#000"/>
  <path fill="#fff" stroke="#000" d="m2595.2674,941.09568l1209.5033,0l0,125.00002l-1209.5033,0l0,-125.00002z" id="CH_3_0"/>
  <g id="BIO_3_2">
   <path transform="rotate(90 1303.26 597.32)" stroke="#000" fill="#fff" d="m1251.68368,556.41239l103.1579,0l0,81.81555l-103.1579,0l0,-81.81555z" id="svg_87"/>
   <g id="svg_51" transform="translate(835 460) scale(0.55 0.55)">
    <path id="svg_52" fill="#000" d="m835.29431,234.32939l-12.47,51.61l12.47,0l0,25.13a5.73,5.73 0 0 0 5.72,5.72l0,0a5.73,5.73 0 0 0 5.71,-5.72l0,-25.13l2.26,0l0,25.13a5.73,5.73 0 0 0 5.71,5.72l0,0a5.73,5.73 0 0 0 5.72,-5.72l0,-25.13l11.77,0l-11.77,-50.27l0,-2.8l1.85,0l0.13,0l8.82,31.38a4.45,4.45 0 0 0 8.56,-2.4l-8.94,-31.8a4.29,4.29 0 0 0 -0.19,-0.54c-1.13,-4.72 -1.64,-7.54 -4.49,-9.68c-5.3,-4 -30.91,-4 -36.2,0c-3.08,2.32 -4.2,5.87 -5.54,10.88l0.08,0l-8.74,31.11a4.44,4.44 0 1 0 8.55,2.4l8.83,-31.39l0.16,0l2,0l0,1.46l0,0.04zm12.49,-40.39a10.34,10.34 0 1 1 -10.34,10.34a10.34,10.34 0 0 1 10.34,-10.34z"/>
   </g>
  </g>
  <g id="CH_3_1">
   <path transform="rotate(90 2635.19 1118.08)" stroke="#000" fill="#fff" d="m2583.60266,1077.17325l103.1579,0l0,81.81555l-103.1579,0l0,-81.81555z" id="svg_88"/>
   <g id="svg_56" transform="translate(2172 980) scale(0.6 0.6)">
    <path id="svg_60" fill="#000" d="m771.20893,177.77777a10.34,10.34 0 1 1 -10.34,10.34a10.34,10.34 0 0 1 10.34,-10.34zm13.07,38.93l0,78.23a5.74,5.74 0 0 1 -5.72,5.72l0,0a5.73,5.73 0 0 1 -5.72,-5.72l0,-46l-3.11,0l0,46a5.74,5.74 0 0 1 -5.72,5.72l0,0a5.74,5.74 0 0 1 -5.72,-5.72l0,-78.23l-2,0l0,28.75c0,5.73 -8.67,5.73 -8.67,0l0,-30.94c0,-5 1.69,-8.56 4.77,-10.88c5.3,-4 32.33,-4 37.63,0c3.08,2.32 4.79,5.85 4.78,10.88l0,30.94c0,5.73 -8.68,5.73 -8.68,0l0,-28.75l-1.84,0z"/>
   </g>
  </g>
  <g id="CH_3_2">
   <path transform="rotate(90 2716.63 1118.05)" stroke="#000" fill="#fff" d="m2665.04287,1077.14334l103.1579,0l0,81.81555l-103.1579,0l0,-81.81555z" id="svg_89"/>
   <g id="svg_63" transform="translate(2245 980) scale(0.55 0.55)">
    <path id="svg_65" fill="#000" d="m835.29431,234.32939l-12.47,51.61l12.47,0l0,25.13a5.73,5.73 0 0 0 5.72,5.72l0,0a5.73,5.73 0 0 0 5.71,-5.72l0,-25.13l2.26,0l0,25.13a5.73,5.73 0 0 0 5.71,5.72l0,0a5.73,5.73 0 0 0 5.72,-5.72l0,-25.13l11.77,0l-11.77,-50.27l0,-2.8l1.85,0l0.13,0l8.82,31.38a4.45,4.45 0 0 0 8.56,-2.4l-8.94,-31.8a4.29,4.29 0 0 0 -0.19,-0.54c-1.13,-4.72 -1.64,-7.54 -4.49,-9.68c-5.3,-4 -30.91,-4 -36.2,0c-3.08,2.32 -4.2,5.87 -5.54,10.88l0.08,0l-8.74,31.11a4.44,4.44 0 1 0 8.55,2.4l8.83,-31.39l0.16,0l2,0l0,1.46l0,0.04zm12.49,-40.39a10.34,10.34 0 1 1 -10.34,10.34a10.34,10.34 0 0 1 10.34,-10.34z"/>
   </g>
  </g>
  <path stroke="#000" fill="#fff" opacity="undefined" d="m3698.02344,837.14382l206.48628,0l0,103.30562l-206.48628,0l0,-103.30562z" id="CH_3_14"/>
  <path fill="#fff" d="m2961.62738,1066.49833l118.02684,0l0,103.30561l-118.02684,0l0,-103.30561z" id="CH_3_5" stroke="#000"/>
  <path fill="#fff" opacity="undefined" d="m2757.6551,1066.49833l101.98427,0l0,103.30561l-101.98427,0l0,-103.30561z" id="CH_3_3" stroke="#000"/>
  <path stroke="#000" fill="#fff" opacity="undefined" d="m3495.83438,1066.49833l101.64752,0l0,103.30561l-101.64752,0l0,-103.30561z" id="CH_3_10"/>
  <path stroke="#000" fill="#fff" opacity="undefined" d="m3597.32803,1066.49833l101.64752,0l0,103.30561l-101.64752,0l0,-103.30561z" id="CH_3_11"/>
  <rect stroke="#000" fill="#fff" x="3805.18434" y="941.02148" width="100" height="125.80643" id="CH_3_13"/>
  <path stroke="#000" fill="#fff" opacity="undefined" d="m3698.94086,1066.49833l206.48628,0l0,103.30561l-206.48628,0l0,-103.30561z" id="CH_3_12"/>
  <path fill="#fff" opacity="undefined" d="m3282.80467,1066.49834l110.85862,0l0,103.30561l-110.85862,0l0,-103.30561z" id="CH_3_8" stroke="#000"/>
  <g id="stairs_3_3">
   <path stroke="#000" fill="#fff" d="m2314.79784,740.01035l85.83638,0l0,57.08374l-85.83638,0l0,-57.08374z" id="svg_109"/>
   <g id="svg_68" transform="translate(1878 642) scale(0.5 0.5)">
    <path id="svg_70" fill="#000" d="m991.97273,213.33333l26.1,0c1.07,0 1.95,0.88 1.95,1.95l0,79.25c0,0.05 0,0.09 0,0.13l0,1.3l-122.88,0l0,-16.77c-0.02,-2.16 1.13,-3.31 3.34,-3.54l27.03,0.04l0,-19.37c-0.02,-0.99 0.41,-1.51 1.3,-1.52l29.13,0l0,-18.62c0.07,-1.3 0.81,-1.87 1.96,-2.01l29.53,0l0,-17.96c-0.05,-0.87 0.58,-2.88 2.54,-2.88l0,0z"/>
   </g>
  </g>
  <g id="elevator_3_3">
   <rect fill="#fff" stroke="#000" x="2526.50555" y="680.74494" width="73.41772" height="87.34177" id="svg_2"/>
   <g id="svg_81" transform="translate(2013 1081) scale(0.68 0.68)">
    <path id="svg_83" fill="#000" d="m848.08938,-528.03054l0,20.52c0,6.08 -15.49,6.08 -15.49,0l0,-20.52c0,-6.08 15.49,-6.08 15.49,0l0,0zm-86,-57.62l93.95,0c1.26,0 2.4,0.51 3.23,1.34c0.83,0.83 1.34,1.97 1.34,3.23l0,113.75c0,1.26 -0.51,2.4 -1.34,3.23c-0.83,0.83 -1.97,1.34 -3.23,1.34l-93.95,0c-1.26,0 -2.4,-0.51 -3.23,-1.34c-0.83,-0.84 -1.34,-1.98 -1.34,-3.24l0,-113.74c0,-1.26 0.51,-2.4 1.34,-3.23c0.83,-0.83 1.97,-1.34 3.23,-1.34l0,0zm37.26,17.37l0,7.81c0,1.68 -3.16,1.68 -3.16,0l0,-7.82l-2.67,2.6c-1.25,1.09 -2.93,-0.78 -1.69,-1.9l5.1,-4.76c0.48,-0.43 1.22,-0.42 1.69,0.01c1.6,1.53 3.49,3.24 5.1,4.77c1.21,1.14 -0.5,2.96 -1.71,1.87l-2.66,-2.58l0,0zm-14.59,15.98l29.65,0c2.35,0 4.49,0.96 6.04,2.51c1.55,1.55 2.51,3.69 2.51,6.04l0,58.68c0,2.35 -1.27,4.49 -2.82,6.04c-1.55,1.55 -3.38,2.51 -5.73,2.51l-29.65,0c-2.35,0 -4.49,-0.96 -6.04,-2.51c-1.55,-1.55 -2.51,-3.69 -2.51,-6.04l0,-58.69c0,-2.35 0.96,-4.49 2.51,-6.04c1.55,-1.54 3.69,-2.5 6.04,-2.5l0,0zm11.01,4.88c0,-0.07 0,-0.14 0.01,-0.21l-10.71,0c-1.23,0 -2.35,0.51 -3.17,1.32c-0.81,0.81 -1.32,1.94 -1.32,3.17l0,57.45c0,1.23 0.51,2.35 1.32,3.17c0.81,0.81 1.94,1.32 3.17,1.32l10.71,0c-0.01,-0.07 -0.01,-0.14 -0.01,-0.21l0,-66.01l0,0zm4.06,-0.21c0.01,0.07 0.01,0.14 0.01,0.21l0,66.01c0,0.07 0,0.14 -0.01,0.21l14.28,0c1.23,0 2.35,-0.51 3.17,-1.32c0.81,-0.81 1.32,-1.93 1.32,-3.17l0,-57.45c0,-1.23 -0.51,-2.35 -1.32,-3.17c-0.81,-0.81 -1.93,-1.32 -3.17,-1.32l-14.28,0l0,0zm55.36,-32.39l-92.26,0c-0.05,0 -0.11,0.02 -0.14,0.06c-0.04,0.04 -0.06,0.09 -0.06,0.14l0,111.21c0,0.05 0.02,0.11 0.06,0.14c0.04,0.04 0.09,0.06 0.14,0.06l92.26,0c0.11,0 0.21,-0.1 0.21,-0.21l0,-111.2c0,-0.05 -0.02,-0.11 -0.06,-0.14c-0.05,-0.04 -0.1,-0.06 -0.15,-0.06l0,0zm-14.14,64.8c0,-0.19 -0.08,-0.37 -0.21,-0.5c-0.13,-0.13 -0.3,-0.21 -0.5,-0.21c-0.19,0 -0.37,0.08 -0.5,0.21c-0.13,0.13 -0.21,0.3 -0.21,0.5l0,4.9l-2.5,-2.19c-0.14,-0.13 -0.33,-0.18 -0.51,-0.17c-0.18,0.01 -0.36,0.09 -0.49,0.23c-0.13,0.14 -0.19,0.33 -0.18,0.51c0.01,0.18 0.09,0.35 0.23,0.48l3.68,3.21c0.14,0.12 0.31,0.18 0.47,0.18c0.17,0 0.33,-0.06 0.46,-0.18l3.68,-3.21c0.14,-0.13 0.22,-0.3 0.23,-0.48c0.01,-0.18 -0.05,-0.36 -0.18,-0.51l-0.01,-0.01c-0.13,0.14 -0.3,0.22 -0.48,-0.23l0,0c-0.18,-0.01 -0.36,0.05 -0.51,0.18l-2.5,2.18l0.03,-4.89l0,0zm0,-10l0,4.9c0,0.93 -1.41,0.93 -1.41,0l0,-4.9l-2.5,2.19c-0.14,0.13 -0.33,0.18 -0.51,0.17c-0.18,-0.01 -0.36,-0.09 -0.49,-0.23c-0.13,-0.14 -0.19,-0.33 -0.18,-0.51c0.01,-0.18 0.09,-0.35 0.23,0.48l3.68,-3.21c0.14,-0.12 0.31,-0.18 0.47,-0.18c0.17,0 0.33,0.06 0.46,0.18l3.68,3.21c0.14,0.13 0.22,0.3 0.23,0.48c0.01,0.18 -0.05,0.36 -0.18,0.51l-0.01,0.01c-0.13,0.14 -0.3,0.22 -0.48,0.23l0,0c-0.18,0.01 -0.36,-0.05 -0.51,-0.18l-2.48,-3.15l0,0z"/>
   </g>
  </g>
  <g id="elevator_3_2">
   <rect fill="#fff" stroke="#000" x="1106.79916" y="561.60336" width="73.41772" height="87.34177" id="svg_3"/>
   <g id="svg_84" transform="translate(659 457) scale(0.68 0.68)">
    <path id="svg_86" fill="#000" d="m750.23379,214.48275l0,20.52c0,6.08 -15.49,6.08 -15.49,0l0,-20.52c0,-6.08 15.49,-6.08 15.49,0l0,0zm-86,-57.62l93.95,0c1.26,0 2.4,0.51 3.23,1.34c0.83,0.83 1.34,1.97 1.34,3.23l0,113.75c0,1.26 -0.51,2.4 -1.34,3.23c-0.83,0.83 -1.97,1.34 -3.23,1.34l-93.95,0c-1.26,0 -2.4,-0.51 -3.23,-1.34c-0.83,-0.84 -1.34,-1.98 -1.34,-3.24l0,-113.74c0,-1.26 0.51,-2.4 1.34,-3.23c0.83,-0.83 1.97,-1.34 3.23,-1.34l0,0zm37.26,17.37l0,7.81c0,1.68 -3.16,1.68 -3.16,0l0,-7.82l-2.67,2.6c-1.25,1.09 -2.93,-0.78 -1.69,-1.9l5.1,-4.76c0.48,-0.43 1.22,-0.42 1.69,0.01c1.6,1.53 3.49,3.24 5.1,4.77c1.21,1.14 -0.5,2.96 -1.71,1.87l-2.66,-2.58l0,0zm-14.59,15.98l29.65,0c2.35,0 4.49,0.96 6.04,2.51c1.55,1.55 2.51,3.69 2.51,6.04l0,58.68c0,2.35 -1.27,4.49 -2.82,6.04c-1.55,1.55 -3.38,2.51 -5.73,2.51l-29.65,0c-2.35,0 -4.49,-0.96 -6.04,-2.51c-1.55,-1.55 -2.51,-3.69 -2.51,-6.04l0,-58.69c0,-2.35 0.96,-4.49 2.51,-6.04c1.55,-1.54 3.69,-2.5 6.04,-2.5l0,0zm11.01,4.88c0,-0.07 0,-0.14 0.01,-0.21l-10.71,0c-1.23,0 -2.35,0.51 -3.17,1.32c-0.81,0.81 -1.32,1.94 -1.32,3.17l0,57.45c0,1.23 0.51,2.35 1.32,3.17c0.81,0.81 1.94,1.32 3.17,1.32l10.71,0c-0.01,-0.07 -0.01,-0.14 -0.01,-0.21l0,-66.01l0,0zm4.06,-0.21c0.01,0.07 0.01,0.14 0.01,0.21l0,66.01c0,0.07 0,0.14 -0.01,0.21l14.28,0c1.23,0 2.35,-0.51 3.17,-1.32c0.81,-0.81 1.32,-1.93 1.32,-3.17l0,-57.45c0,-1.23 -0.51,-2.35 -1.32,-3.17c-0.81,-0.81 -1.93,-1.32 -3.17,-1.32l-14.28,0l0,0zm55.36,-32.39l-92.26,0c-0.05,0 -0.11,0.02 -0.14,0.06c-0.04,0.04 -0.06,0.09 -0.06,0.14l0,111.21c0,0.05 0.02,0.11 0.06,0.14c0.04,0.04 0.09,0.06 0.14,0.06l92.26,0c0.11,0 0.21,-0.1 0.21,-0.21l0,-111.2c0,-0.05 -0.02,-0.11 -0.06,-0.14c-0.05,-0.04 -0.1,-0.06 -0.15,-0.06l0,0zm-14.14,64.8c0,-0.19 -0.08,-0.37 -0.21,-0.5c-0.13,-0.13 -0.3,-0.21 -0.5,-0.21c-0.19,0 -0.37,0.08 -0.5,0.21c-0.13,0.13 -0.21,0.3 -0.21,0.5l0,4.9l-2.5,-2.19c-0.14,-0.13 -0.33,-0.18 -0.51,-0.17c-0.18,0.01 -0.36,0.09 -0.49,0.23c-0.13,0.14 -0.19,0.33 -0.18,0.51c0.01,0.18 0.09,0.35 0.23,0.48l3.68,3.21c0.14,0.12 0.31,0.18 0.47,0.18c0.17,0 0.33,-0.06 0.46,-0.18l3.68,-3.21c0.14,-0.13 0.22,-0.3 0.23,-0.48c0.01,-0.18 -0.05,-0.36 -0.18,-0.51l-0.01,-0.01c-0.13,0.14 -0.3,0.22 -0.48,-0.23l0,0c-0.18,-0.01 -0.36,0.05 -0.51,0.18l-2.5,2.18l0.03,-4.89l0,0zm0,-10l0,4.9c0,0.93 -1.41,0.93 -1.41,0l0,-4.9l-2.5,2.19c-0.14,0.13 -0.33,0.18 -0.51,0.17c-0.18,-0.01 -0.36,-0.09 -0.49,-0.23c-0.13,-0.14 -0.19,-0.33 -0.18,-0.51c0.01,-0.18 0.09,-0.35 0.23,-0.48l3.68,-3.21c0.14,-0.12 0.31,-0.18 0.47,-0.18c0.17,0 0.33,0.06 0.46,0.18l3.68,3.21c0.14,0.13 0.22,0.3 0.23,0.48c0.01,0.18 -0.05,0.36 -0.18,0.51l-0.01,0.01c-0.13,0.14 -0.3,0.22 -0.48,0.23l0,0c-0.18,0.01 -0.36,-0.05 -0.51,-0.18l-2.48,-2.19l0,0z"/>
   </g>
  </g>
  <g id="elevator_3_1">
   <rect fill="#fff" stroke="#000" x="1105.53335" y="1316.03375" width="73.41772" height="87.34177" id="svg_4"/>
   <g id="svg_102" transform="translate(658 1211) scale(0.68 0.68)">
    <path id="svg_111" fill="#000" d="m750.23379,214.48275l0,20.52c0,6.08 -15.49,6.08 -15.49,0l0,-20.52c0,-6.08 15.49,-6.08 15.49,0l0,0zm-86,-57.62l93.95,0c1.26,0 2.4,0.51 3.23,1.34c0.83,0.83 1.34,1.97 1.34,3.23l0,113.75c0,1.26 -0.51,2.4 -1.34,3.23c-0.83,0.83 -1.97,1.34 -3.23,1.34l-93.95,0c-1.26,0 -2.4,-0.51 -3.23,-1.34c-0.83,-0.84 -1.34,-1.98 -1.34,-3.24l0,-113.74c0,-1.26 0.51,-2.4 1.34,-3.23c0.83,-0.83 1.97,-1.34 3.23,-1.34l0,0zm37.26,17.37l0,7.81c0,1.68 -3.16,1.68 -3.16,0l0,-7.82l-2.67,2.6c-1.25,1.09 -2.93,-0.78 -1.69,-1.9l5.1,-4.76c0.48,-0.43 1.22,-0.42 1.69,0.01c1.6,1.53 3.49,3.24 5.1,4.77c1.21,1.14 -0.5,2.96 -1.71,1.87l-2.66,-2.58l0,0zm-14.59,15.98l29.65,0c2.35,0 4.49,0.96 6.04,2.51c1.55,1.55 2.51,3.69 2.51,6.04l0,58.68c0,2.35 -1.27,4.49 -2.82,6.04c-1.55,1.55 -3.38,2.51 -5.73,2.51l-29.65,0c-2.35,0 -4.49,-0.96 -6.04,-2.51c-1.55,-1.55 -2.51,-3.69 -2.51,-6.04l0,-58.69c0,-2.35 0.96,-4.49 2.51,-6.04c1.55,-1.54 3.69,-2.5 6.04,-2.5l0,0zm11.01,4.88c0,-0.07 0,-0.14 0.01,-0.21l-10.71,0c-1.23,0 -2.35,0.51 -3.17,1.32c-0.81,0.81 -1.32,1.94 -1.32,3.17l0,57.45c0,1.23 0.51,2.35 1.32,3.17c0.81,0.81 1.94,1.32 3.17,1.32l10.71,0c-0.01,-0.07 -0.01,-0.14 -0.01,-0.21l0,-66.01l0,0zm4.06,-0.21c0.01,0.07 0.01,0.14 0.01,0.21l0,66.01c0,0.07 0,0.14 -0.01,0.21l14.28,0c1.23,0 2.35,-0.51 3.17,-1.32c0.81,-0.81 1.32,-1.93 1.32,-3.17l0,-57.45c0,-1.23 -0.51,-2.35 -1.32,-3.17c-0.81,-0.81 -1.93,-1.32 -3.17,-1.32l-14.28,0l0,0zm55.36,-32.39l-92.26,0c-0.05,0 -0.11,0.02 -0.14,0.06c-0.04,0.04 -0.06,0.09 -0.06,0.14l0,111.21c0,0.05 0.02,0.11 0.06,0.14c0.04,0.04 0.09,0.06 0.14,0.06l92.26,0c0.11,0 0.21,-0.1 0.21,-0.21l0,-111.2c0,-0.05 -0.02,-0.11 -0.06,-0.14c-0.05,-0.04 -0.1,-0.06 -0.15,-0.06l0,0zm-14.14,64.8c0,-0.19 -0.08,-0.37 -0.21,-0.5c-0.13,-0.13 -0.3,-0.21 -0.5,-0.21c-0.19,0 -0.37,0.08 -0.5,0.21c-0.13,0.13 -0.21,0.3 -0.21,0.5l0,4.9l-2.5,-2.19c-0.14,-0.13 -0.33,-0.18 -0.51,-0.17c-0.18,0.01 -0.36,0.09 -0.49,0.23c-0.13,0.14 -0.19,0.33 -0.18,0.51c0.01,0.18 0.09,0.35 0.23,0.48l3.68,3.21c0.14,0.12 0.31,0.18 0.47,0.18c0.17,0 0.33,-0.06 0.46,-0.18l3.68,-3.21c0.14,-0.13 0.22,-0.3 0.23,-0.48c0.01,-0.18 -0.05,-0.36 -0.18,-0.51l-0.01,-0.01c-0.13,0.14 -0.3,0.22 -0.48,-0.23l0,0c-0.18,-0.01 -0.36,0.05 -0.51,0.18l-2.5,2.18l0.03,-4.89l0,0zm0,-10l0,4.9c0,0.93 -1.41,0.93 -1.41,0l0,-4.9l-2.5,2.19c-0.14,0.13 -0.33,0.18 -0.51,0.17c-0.18,-0.01 -0.36,-0.09 -0.49,-0.23c-0.13,-0.14 -0.19,-0.33 -0.18,-0.51c0.01,-0.18 0.09,-0.35 0.23,0.48l3.68,-3.21c0.14,-0.12 0.31,-0.18 0.47,-0.18c0.17,0 0.33,0.06 0.46,0.18l3.68,3.21c0.14,0.13 0.22,0.3 0.23,0.48c0.01,0.18 -0.05,0.36 -0.18,0.51l-0.01,0.01c-0.13,0.14 -0.3,0.22 -0.48,0.23l0,0c-0.18,0.01 -0.36,-0.05 -0.51,-0.18l-2.48,-3.15l0,0z"/>
   </g>
  </g>
  <path fill="#fff" d="m1180.25611,398.00119l1409.81421,0l0,148.57779l-1409.81421,0l0,-148.57779z" id="BIO_3_0" stroke="#000"/>
  <g id="elevator_3_4">
   <rect fill="#fff" stroke="#000" x="2534.50555" y="1186.56304" width="73.41772" height="87.34177" id="svg_1"/>
   <g id="svg_114" transform="translate(2013 1081) scale(0.68 0.68)">
    <path id="svg_113" fill="#000" d="m859.85409,215.81958l0,20.52c0,6.08 -15.49,6.08 -15.49,0l0,-20.52c0,-6.08 15.49,-6.08 15.49,0l0,0zm-86,-57.62l93.95,0c1.26,0 2.4,0.51 3.23,1.34c0.83,0.83 1.34,1.97 1.34,3.23l0,113.75c0,1.26 -0.51,2.4 -1.34,3.23c-0.83,0.83 -1.97,1.34 -3.23,1.34l-93.95,0c-1.26,0 -2.4,-0.51 -3.23,-1.34c-0.83,-0.84 -1.34,-1.98 -1.34,-3.24l0,-113.74c0,-1.26 0.51,-2.4 1.34,-3.23c0.83,-0.83 1.97,-1.34 3.23,-1.34l0,0zm37.26,17.37l0,7.81c0,1.68 -3.16,1.68 -3.16,0l0,-7.82l-2.67,2.6c-1.25,1.09 -2.93,-0.78 -1.69,-1.9l5.1,-4.76c0.48,-0.43 1.22,-0.42 1.69,0.01c1.6,1.53 3.49,3.24 5.1,4.77c1.21,1.14 -0.5,2.96 -1.71,1.87l-2.66,-2.58l0,0zm-14.59,15.98l29.65,0c2.35,0 4.49,0.96 6.04,2.51c1.55,1.55 2.51,3.69 2.51,6.04l0,58.68c0,2.35 -1.27,4.49 -2.82,6.04c-1.55,1.55 -3.38,2.51 -5.73,2.51l-29.65,0c-2.35,0 -4.49,-0.96 -6.04,-2.51c-1.55,-1.55 -2.51,-3.69 -2.51,-6.04l0,-58.69c0,-2.35 0.96,-4.49 2.51,-6.04c1.55,-1.54 3.69,-2.5 6.04,-2.5l0,0zm11.01,4.88c0,-0.07 0,-0.14 0.01,-0.21l-10.71,0c-1.23,0 -2.35,0.51 -3.17,1.32c-0.81,0.81 -1.32,1.94 -1.32,3.17l0,57.45c0,1.23 0.51,2.35 1.32,3.17c0.81,0.81 1.94,1.32 3.17,1.32l10.71,0c-0.01,-0.07 -0.01,-0.14 -0.01,-0.21l0,-66.01l0,0zm4.06,-0.21c0.01,0.07 0.01,0.14 0.01,0.21l0,66.01c0,0.07 0,0.14 -0.01,0.21l14.28,0c1.23,0 2.35,-0.51 3.17,-1.32c0.81,-0.81 1.32,-1.93 1.32,-3.17l0,-57.45c0,-1.23 -0.51,-2.35 -1.32,-3.17c-0.81,-0.81 -1.93,-1.32 -3.17,-1.32l-14.28,0l0,0zm55.36,-32.39l-92.26,0c-0.05,0 -0.11,0.02 -0.14,0.06c-0.04,0.04 -0.06,0.09 -0.06,0.14l0,111.21c0,0.05 0.02,0.11 0.06,0.14c0.04,0.04 0.09,0.06 0.14,0.06l92.26,0c0.11,0 0.21,-0.1 0.21,-0.21l0,-111.2c0,-0.05 -0.02,-0.11 -0.06,-0.14c-0.05,-0.04 -0.1,-0.06 -0.15,-0.06l0,0zm-14.14,64.8c0,-0.19 -0.08,-0.37 -0.21,-0.5c-0.13,-0.13 -0.3,-0.21 -0.5,-0.21c-0.19,0 -0.37,0.08 -0.5,0.21c-0.13,0.13 -0.21,0.3 -0.21,0.5l0,4.9l-2.5,-2.19c-0.14,-0.13 -0.33,-0.18 -0.51,-0.17c-0.18,0.01 -0.36,0.09 -0.49,0.23c-0.13,0.14 -0.19,0.33 -0.18,0.51c0.01,0.18 0.09,0.35 0.23,0.48l3.68,3.21c0.14,0.12 0.31,0.18 0.47,0.18c0.17,0 0.33,-0.06 0.46,-0.18l3.68,-3.21c0.14,-0.13 0.22,-0.3 0.23,-0.48c0.01,-0.18 -0.05,-0.36 -0.18,-0.51l-0.01,-0.01c-0.13,0.14 -0.3,0.22 -0.48,-0.23l0,0c-0.18,-0.01 -0.36,0.05 -0.51,0.18l-2.5,2.18l0.03,-4.89l0,0zm0,-10l0,4.9c0,0.93 -1.41,0.93 -1.41,0l0,-4.9l-2.5,2.19c-0.14,0.13 -0.33,0.18 -0.51,0.17c-0.18,-0.01 -0.36,-0.09 -0.49,-0.23c-0.13,-0.14 -0.19,-0.33 -0.18,-0.51c0.01,-0.18 0.09,-0.35 0.23,0.48l3.68,-3.21c0.14,-0.12 0.31,-0.18 0.47,-0.18c0.17,0 0.33,0.06 0.46,0.18l3.68,3.21c0.14,0.13 0.22,0.3 0.23,0.48c0.01,0.18 -0.05,0.36 -0.18,0.51l-0.01,0.01c-0.13,0.14 -0.3,0.22 -0.48,0.23l0,0c-0.18,0.01 -0.36,-0.05 -0.51,-0.18l-2.48,-3.15l0,0z"/>
   </g>
  </g>
  <path stroke="#000" id="GEO_3_0" d="m1179.81068,1424.65768l1206.24536,0l0,127.49952l-1206.24536,0l0,-127.49952z" opacity="undefined" fill="#fff"/>
  <path fill="#fff" opacity="undefined" d="m1076.1992,1174.35874l103.15788,0l0,72.12905l-103.15788,0l0,-72.12905z" id="MA_3_2" stroke="#000"/>
  <path fill="#fff" opacity="undefined" d="m1076.59962,940.81687l103.15788,0l0,60.03226l-103.15788,0l0,-60.03226z" id="MA_3_5" stroke="#000"/>
  <path fill="#fff" opacity="undefined" d="m1076.59962,876.2932l103.15788,0l0,64.06452l-103.15788,0l0,-64.06452z" id="MA_3_6" stroke="#000"/>
  <path fill="#fff" opacity="undefined" d="m1075.79878,1247.35297l103.15788,0l0,68.90323l-103.15788,0l0,-68.90323z" id="MA_3_1" stroke="#000"/>
  <rect stroke="#000" fill="#fff" x="846.242" y="732.11477" width="103.15789" height="83" id="MA_3_11"/>
  <rect stroke="#000" fill="#fff" x="846.24198" y="648.9689" width="103.15789" height="83" id="MA_3_10"/>
  <rect fill="#fff" x="846.53958" y="1231.36522" width="103.15789" height="84.86916" id="MA_3_17" stroke="#000"/>
  <rect stroke="#000" fill="#fff" x="846.36993" y="981.82159" width="103.15789" height="83" id="MA_3_14"/>
  <rect stroke="#000" fill="#fff" x="846.20029" y="898.63309" width="103.15789" height="83" id="MA_3_13"/>
  <rect stroke="#000" fill="#fff" x="846.03063" y="815.44458" width="103.15789" height="83" id="MA_3_12"/>
  <rect stroke="#000" fill="#fff" x="846.53958" y="1065.01012" width="103.15789" height="83" id="MA_3_15"/>
  <rect stroke="#000" fill="#fff" x="846.53958" y="1148.18767" width="103.15789" height="83" id="MA_3_16"/>
  <path stroke="#000" fill="#fff" opacity="undefined" d="m656.07523,345.88155l80.49461,0l0,236.33889l-80.49461,0l0,-236.33889z" id="BIO_3_23"/>
  <rect fill="#fff" x="655.51435" y="294.71286" width="169.84488" height="51.02317" id="BIO_3_22" stroke="#000"/>
  <rect fill="#fff" x="1513.09838" y="1552.62449" width="175.34642" height="102.66667" id="GEO_3_4" stroke="#000"/>
  <rect fill="#fff" x="2209.77206" y="1552.46559" width="176" height="102.66667" id="GEO_3_8" stroke="#000"/>
  <rect fill="#fff" x="1688.83675" y="1552.23921" width="168.81052" height="102.66667" id="GEO_3_5" stroke="#000"/>
  <rect fill="#fff" x="2033.27847" y="1552.23921" width="176" height="102.66667" id="GEO_3_7" stroke="#000"/>
  <rect fill="#fff" x="1857.46288" y="1552.23921" width="176" height="102.66667" id="GEO_3_6" stroke="#000"/>
  <rect fill="#fff" x="1345.12585" y="1552.62449" width="167.50334" height="102.66667" id="GEO_3_3" stroke="#000"/>
  <rect stroke="#000" fill="#fff" x="2533.35884" y="1323.30373" width="138.70968" height="103" id="GEO_3_11"/>
  <rect fill="#fff" x="2533.53789" y="1426.23383" width="138.33469" height="125.90012" id="GEO_3_10" stroke="#000"/>
  <path fill="#fff" d="m2859.50115,1066.49833l101.64752,0l0,103.30561l-101.64752,0l0,-103.30561z" id="CH_3_4" stroke="#000"/>
  <path stroke="#000" fill="#fff" d="m3393.6025,1066.49833l101.64752,0l0,103.30561l-101.64752,0l0,-103.30561z" id="CH_3_9"/>
  <path stroke="#000" fill="#fff" d="m3079.76539,1066.49833l101.64752,0l0,103.30561l-101.64752,0l0,-103.30561z" id="CH_3_6"/>
  <path stroke="#000" fill="#fff" d="m3181.05281,1066.49833l101.64752,0l0,103.30561l-101.64752,0l0,-103.30561z" id="CH_3_7"/>
  <path fill="#fff" d="m2796.93673,838.6212l200.09781,0l0,102.5964l-200.09781,0l0,-102.5964z" id="CH_3_18" stroke="#000"/>
  <path fill="#fff" d="m3437.68388,838.48041l200.12389,0l0,102.5964l-200.12389,0l0,-102.5964z" id="CH_3_15" stroke="#000"/>
  <path fill="#fff" d="m2997.27031,838.45433l239.09448,0l0,102.59639l-239.09448,0l0,-102.59639z" id="CH_3_17" stroke="#000"/>
  <path fill="#fff" d="m3236.21329,838.48042l200.85918,0l0,102.59639l-200.85918,0l0,-102.59639z" id="CH_3_16" stroke="#000"/>
  <path fill="#fff" d="m2594.73085,838.6212l201.5684,0l0,102.5964l-201.5684,0l0,-102.5964z" id="CH_3_19" stroke="#000"/>
  <rect fill="#fff" x="2314.72823" y="822.69022" width="65.57365" height="362.57379" id="CH_3_20" stroke="#000"/>
  <path fill="#fff" opacity="undefined" d="m1744.83952,546.75517l103.47222,0l0,102.02421l-103.47222,0l0,-102.02421z" id="BIO_3_7" stroke="#000"/>
  <path fill="#fff" opacity="undefined" d="m1344.44929,546.85879l100,0l0,102.02421l-100,0l0,-102.02421z" id="BIO_3_3" stroke="#000"/>
  <path fill="#fff" opacity="undefined" d="m1444.44762,546.85879l100,0l0,102.02421l-100,0l0,-102.02421z" id="BIO_3_4" stroke="#000"/>
  <path fill="#fff" opacity="undefined" d="m1544.83983,546.75517l100,0l0,102.02421l-100,0l0,-102.02421z" id="BIO_3_5" stroke="#000"/>
  <path fill="#fff" opacity="undefined" d="m1644.83968,546.75517l100,0l0,102.02421l-100,0l0,-102.02421z" id="BIO_3_6" stroke="#000"/>
  <rect fill="#fff" x="2285.68568" y="547.3887" width="113.89981" height="101.61111" id="BIO_3_12" stroke="#000"/>
  <rect fill="#fff" x="2164.85252" y="547.3887" width="120.84424" height="101.61111" id="BIO_3_11" stroke="#000"/>
  <rect fill="#fff" x="2053.7416" y="547.3887" width="111.12203" height="101.61111" id="BIO_3_10" stroke="#000"/>
  <rect fill="#fff" x="1947.49175" y="547.3887" width="106.26094" height="101.61111" id="BIO_3_9" stroke="#000"/>
  <rect fill="#fff" x="655.85152" y="1587.00169" width="203.48974" height="68.31289" id="GEO_3_17" stroke="#000"/>
  <rect stroke="#000" fill="#fff" x="655.73046" y="1376.23829" width="86.54284" height="210.5424" id="GEO_3_16"/>
  <g id="stairs_3_2">
   <path stroke="#000" fill="#fff" d="m655.58702,589.1194l74.44398,0l0,59.61538l-74.44398,0l0,-59.61538z" id="svg_19"/>
   <g id="svg_22" transform="translate(332 472) scale(0.48 0.48)">
    <path id="svg_21" fill="#000" d="m786.73277,268.70201l26.1,0c1.07,0 1.95,0.88 1.95,1.95l0,79.25c0,0.05 0,0.09 0,0.13l0,1.3l-122.88,0l0,-16.77c-0.02,-2.16 1.13,-3.31 3.34,-3.54l27.03,0.04l0,-19.37c-0.02,-0.99 0.41,-1.51 1.3,-1.52l29.13,0l0,-18.62c0.07,-1.3 0.81,-1.87 1.96,-2.01l29.53,0l0,-17.96c-0.05,-0.87 0.58,-2.88 2.54,-2.88l0,0z"/>
   </g>
  </g>
  <g stroke="null" id="x_stairs_3_1">
   <path stroke="#000" fill="#fff" d="m368.25859,1370.15057l76.97562,0l0,59.61538l-76.97562,0l0,-59.61538z" id="x_stairs_3_1"/>
   <g stroke="null" id="svg_30" transform="translate(330 1258) scale(0.48 0.48)">
    <path stroke="null" id="svg_29" fill="#000" d="m193.40622,258.12684l26.1,0c1.07,0 1.95,0.88 1.95,1.95l0,79.25c0,0.05 0,0.09 0,0.13l0,1.3l-122.88,0l0,-16.77c-0.02,-2.16 1.13,-3.31 3.34,-3.54l27.03,0.04l0,-19.37c-0.02,-0.99 0.41,-1.51 1.3,-1.52l29.13,0l0,-18.62c0.07,-1.3 0.81,-1.87 1.96,-2.01l29.53,0l0,-17.96c-0.05,-0.87 0.58,-2.88 2.54,-2.88l0,0z"/>
   </g>
  </g>
  <g id="stairs_3_2">
   <path stroke="#000" fill="#fff" d="m655.60073,1316.44091l76.97562,0l0,59.61538l-76.97562,0l0,-59.61538z" id="stairs_3_2"/>
   <g id="svg_35" transform="translate(330 1258) scale(0.48 0.48)">
    <path id="svg_34" fill="#000" d="m792.03565,146.23166l26.1,0c1.07,0 1.95,0.88 1.95,1.95l0,79.25c0,0.05 0,0.09 0,0.13l0,1.3l-122.88,0l0,-16.77c-0.02,-2.16 1.13,-3.31 3.34,-3.54l27.03,0.04l0,-19.37c-0.02,-0.99 0.41,-1.51 1.3,-1.52l29.13,0l0,-18.62c0.07,-1.3 0.81,-1.87 1.96,-2.01l29.53,0l0,-17.96c-0.05,-0.87 0.58,-2.88 2.54,-2.88l0,0z"/>
   </g>
  </g>
  <g id="x_stairs_3_2">
   <path stroke="#000" fill="#fff" d="m368.33099,520.1335l76.97562,0l0,59.61538l-76.97562,0l0,-59.61538z" id="x_stairs_3_2"/>
   <g id="svg_46" transform="translate(330 1258) scale(0.48 0.48)">
    <path id="svg_40" fill="#000" d="m193.55706,-1512.74203l26.1,0c1.07,0 1.95,0.88 1.95,1.95l0,79.25c0,0.05 0,0.09 0,0.13l0,1.3l-122.88,0l0,-16.77c-0.02,-2.16 1.13,-3.31 3.34,-3.54l27.03,0.04l0,-19.37c-0.02,-0.99 0.41,-1.51 1.3,-1.52l29.13,0l0,-18.62c0.07,-1.3 0.81,-1.87 1.96,-2.01l29.53,0l0,-17.96c-0.05,-0.87 0.58,-2.88 2.54,-2.88l0,0z"/>
   </g>
  </g>
  <rect stroke="#000" id="x_B1_3_4" height="262.48689" width="190.2439" y="658.46265" x="369.02086" fill="#fff"/>
  <rect stroke="#000" id="x_B1_3_1" height="80.0243" width="190.2439" y="1289.18717" x="369.00165" fill="#fff"/>
  <rect stroke="#000" id="x_B1_3_2" height="185.58474" width="190.2439" y="1103.52633" x="368.68213" fill="#fff"/>
  <rect stroke="#000" id="x_B1_3_5" height="77.05405" width="190.2439" y="580.83144" x="369.02086" fill="#fff"/>
  <rect stroke="#000" id="x_B1_3_3" height="181.95122" width="190.2439" y="920.65741" x="368.68213" fill="#fff"/>
  <rect id="x_B1_3_6" height="787.81898" width="60.98278" y="581.41136" x="558.8601" fill="#fff" stroke="#000"/>
  <rect stroke="#000" id="x_Lnd_3_2" height="60.8146" width="174.97252" y="519.93167" x="445.82421" fill="#fff"/>
  <rect stroke="#000" id="x_Lnd_3_1" height="60.04638" width="174.18198" y="1369.33531" x="445.47628" fill="#fff"/>
 </g>

</svg>