<svg width="4000" height="2000" xmlns="http://www.w3.org/2000/svg" stroke="null">
 <g id="Layer_1" stroke="null">
  <title stroke="null">Layer 1</title>
  <rect stroke="#000" fill="#fff" x="834.89742" y="1514.44705" width="525.90906" height="339.1228" id="nexus_1_1"/>
  <path fill="#fff" opacity="undefined" d="m835.36048,492.55969l524.97181,0l0,354.34356l-524.97181,0l0,-354.34356z" id="nexus_1_2" stroke="#000"/>
  <rect fill="#ffffff" x="1161.94818" y="847.41419" width="198.16973" height="666.91177" id="hall5" stroke="#000"/>
  <g id="GEO_1_1" stroke="null">
   <path fill="#fff" d="m1443.41698,1750.23038l0,103.1579l-81.81555,0l0,-103.1579l81.81555,0z" id="svg_121" stroke="#000"/>
   <g id="svg_119" transform="translate(760 1465) scale(0.6 0.6)" stroke="null">
    <path id="svg_120" fill="#000" d="m1073.82309,507.78206a10.34,10.34 0 1 1 -10.34,10.34a10.34,10.34 0 0 1 10.34,-10.34zm13.07,38.93l0,78.23a5.74,5.74 0 0 1 -5.72,5.72l0,0a5.73,5.73 0 0 1 -5.72,-5.72l0,-46l-3.11,0l0,46a5.74,5.74 0 0 1 -5.72,5.72l0,0a5.74,5.74 0 0 1 -5.72,-5.72l0,-78.23l-2,0l0,28.75c0,5.73 -8.67,5.73 -8.67,0l0,-30.94c0,-5 1.69,-8.56 4.77,-10.88c5.3,-4 32.33,-4 37.63,0c3.08,2.32 4.79,5.85 4.78,10.88l0,30.94c0,5.73 -8.68,5.73 -8.68,0l0,-28.75l-1.84,0z" stroke="null"/>
   </g>
  </g>
  <g id="GEO_1_2" stroke="null">
   <path fill="#fff" d="m1433.47349,1760.53863l103.1579,0l0,82.34185l-103.1579,0l0,-82.34185z" id="svg_112" stroke="#000" transform="rotate(90 1485.05 1801.71)"/>
   <g id="svg_110" transform="translate(835 1465) scale(0.55 0.55)" stroke="null">
    <path id="svg_111" fill="#000" d="m1165.41881,594.33407l-12.47,51.61l12.47,0l0,25.13a5.73,5.73 0 0 0 5.72,5.72l0,0a5.73,5.73 0 0 0 5.71,-5.72l0,-25.13l2.26,0l0,25.13a5.73,5.73 0 0 0 5.71,5.72l0,0a5.73,5.73 0 0 0 5.72,-5.72l0,-25.13l11.77,0l-11.77,-50.27l0,-2.8l1.85,0l0.13,0l8.82,31.38a4.45,4.45 0 0 0 8.56,-2.4l-8.94,-31.8a4.29,4.29 0 0 0 -0.19,-0.54c-1.13,-4.72 -1.64,-7.54 -4.49,-9.68c-5.3,-4 -30.91,-4 -36.2,0c-3.08,2.32 -4.2,5.87 -5.54,10.88l0.08,0l-8.74,31.11a4.44,4.44 0 1 0 8.55,2.4l8.83,-31.39l0.16,0l2,0l0,1.46l0,0.04zm12.49,-40.39a10.34,10.34 0 1 1 -10.34,10.34a10.34,10.34 0 0 1 10.34,-10.34z" stroke="null"/>
   </g>
  </g>
  <rect fill="#fff" x="1526.69432" y="1750.62707" width="163.32469" height="102.66667" id="GEO_1_3" stroke="#000"/>
  <rect fill="#fff" x="1360.43058" y="1520.50839" width="329.13554" height="101.15152" id="GEO_1_4" stroke="#000"/>
  <g id="BIO_1_1" stroke="null">
   <path transform="rotate(90 1402.9 795.378)" fill="#fff" d="m1351.32451,754.46983l103.1579,0l0,81.81555l-103.1579,0l0,-81.81555z" id="svg_98" stroke="#000"/>
   <g id="svg_96" transform="translate(760 455) scale(0.6 0.6)" stroke="null">
    <path id="svg_97" fill="#000" d="m1073.82307,507.78206a10.34,10.34 0 1 1 -10.34,10.34a10.34,10.34 0 0 1 10.34,-10.34zm13.07,38.93l0,78.23a5.74,5.74 0 0 1 -5.72,5.72l0,0a5.73,5.73 0 0 1 -5.72,-5.72l0,-46l-3.11,0l0,46a5.74,5.74 0 0 1 -5.72,5.72l0,0a5.74,5.74 0 0 1 -5.72,-5.72l0,-78.23l-2,0l0,28.75c0,5.73 -8.67,5.73 -8.67,0l0,-30.94c0,-5 1.69,-8.56 4.77,-10.88c5.3,-4 32.33,-4 37.63,0c3.08,2.32 4.79,5.85 4.78,10.88l0,30.94c0,5.73 -8.68,5.73 -8.68,0l0,-28.75l-1.84,0z" stroke="null"/>
   </g>
  </g>
  <path stroke="#000" fill="#fff" opacity="undefined" d="m1360.98551,492.4413l220.81967,0l0,102.66666l-220.81967,0l0,-102.66666z" id="BIO_1_17"/>
  <path stroke="#000" fill="#fff" opacity="undefined" d="m854.91297,150.11448l2181.97787,0l0,341.65382l-2181.97787,0l0,-341.65382z" id="B3_1_0"/>
  <rect fill="#fff" x="1581.64955" y="492.27385" width="220" height="103" id="BIO_1_16" stroke="#000"/>
  <rect fill="#fff" x="2240.85162" y="492.83354" width="220" height="102.66667" id="BIO_1_13" stroke="#000"/>
  <rect fill="#fff" x="1801.21647" y="492.87575" width="220" height="102.66667" id="BIO_1_15" stroke="#000"/>
  <rect fill="#fff" x="2021.03407" y="492.93061" width="220" height="102.66667" id="BIO_1_14" stroke="#000"/>
  <rect fill="#fff" x="2460.71225" y="492.77308" width="247.2583" height="103" id="BIO_1_12" stroke="#000"/>
  <path stroke="#000" id="CH_1_53" d="m2708.34377,920.5782l1006.48569,0l0,115.73801l-1006.48569,0l0,-115.73801z" opacity="undefined" fill="#fff"/>
  <path id="BIO_1_11" d="m2408.49296,744.00238l172.49961,0l0,103l-172.49961,0l0,-103z" opacity="undefined" fill="#fff" stroke="#000"/>
  <g stroke="null" id="stairs_1_4">
   <path stroke="#000" fill="#fff" d="m2484.87082,1384.36217l82.43374,0l0,60.61538l-82.43374,0l0,-60.61538z" id="svg_86"/>
   <g stroke="null" id="svg_84" transform="translate(1866 1120) scale(0.5 0.5)">
    <path stroke="null" id="svg_85" fill="#000" d="m1355.10971,544.11012l26.1,0c1.07,0 1.95,0.89476 1.95,1.98271l0,80.57935c0,0.05084 0,0.09151 0,0.13218l0,1.32181l-122.88,0l0,-17.0513c-0.02,-2.19623 1.13,-3.36552 3.34,-3.59938l27.03,0.04067l0,-19.69492c-0.02,-1.00661 0.41,-1.53533 1.3,-1.5455l29.13,0l0,-18.93234c0.07,-1.32181 0.81,-1.90137 1.96,-2.04372l29.53,0l0,-18.26126c-0.05,-0.88459 0.58,-2.92831 2.54,-2.92831l0,0z"/>
   </g>
  </g>
  <path fill="#fff" d="m2582.00644,744.55321l125.21519,0l0,276.30139l-125.21519,0l0,-276.30139z" id="nexus_1_3" stroke="#000"/>
  <path stroke="#000" id="CH_1_52" d="m2736.34377,1368.5782l978.48574,0l0,115.738l-978.48574,0l0,-115.738z" opacity="undefined" fill="#fff"/>
  <rect fill="#ffffff" x="2484.64976" y="1020.67454" width="291.52151" height="362.55146" id="nexus_1_4" stroke="#000"/>
  <g id="BIO_1_2" stroke="null">
   <path fill="#fff" d="m1433.25218,754.41497l103.1579,0l0,81.81555l-103.1579,0l0,-81.81555z" id="svg_79" stroke="#000" transform="rotate(90 1484.83 795.323)"/>
   <g id="svg_77" transform="translate(835 460) scale(0.55 0.55)" stroke="null">
    <path id="svg_78" fill="#000" d="m1165.41881,594.33407l-12.47,51.61l12.47,0l0,25.13a5.73,5.73 0 0 0 5.72,5.72l0,0a5.73,5.73 0 0 0 5.71,-5.72l0,-25.13l2.26,0l0,25.13a5.73,5.73 0 0 0 5.71,5.72l0,0a5.73,5.73 0 0 0 5.72,-5.72l0,-25.13l11.77,0l-11.77,-50.27l0,-2.8l1.85,0l0.13,0l8.82,31.38a4.45,4.45 0 0 0 8.56,-2.4l-8.94,-31.8a4.29,4.29 0 0 0 -0.19,-0.54c-1.13,-4.72 -1.64,-7.54 -4.49,-9.68c-5.3,-4 -30.91,-4 -36.2,0c-3.08,2.32 -4.2,5.87 -5.54,10.88l0.08,0l-8.74,31.11a4.44,4.44 0 1 0 8.55,2.4l8.83,-31.39l0.16,0l2,0l0,1.46l0,0.04zm12.49,-40.39a10.34,10.34 0 1 1 -10.34,10.34a10.34,10.34 0 0 1 10.34,-10.34z" stroke="null"/>
   </g>
  </g>
  <g id="stairs_1_3" stroke="null">
   <path fill="#fff" d="m2496.36634,938.01293l85.83638,0l0,57.08374l-85.83638,0l0,-57.08374z" id="svg_46" stroke="#000"/>
   <g id="svg_44" transform="translate(1878 642) scale(0.5 0.5)" stroke="null">
    <path id="svg_45" fill="#000" d="m1355.10971,609.33849l26.1,0c1.07,0 1.95,0.88 1.95,1.95l0,79.25c0,0.05 0,0.09 0,0.13l0,1.3l-122.88,0l0,-16.77c-0.02,-2.16 1.13,-3.31 3.34,-3.54l27.03,0.04l0,-19.37c-0.02,-0.99 0.41,-1.51 1.3,-1.52l29.13,0l0,-18.62c0.07,-1.3 0.81,-1.87 1.96,-2.01l29.53,0l0,-17.96c-0.05,-0.87 0.58,-2.88 2.54,-2.88l0,0z" stroke="null"/>
   </g>
  </g>
  <g id="stairs_1_2" stroke="null">
   <path fill="#fff" d="m837.16749,786.98951l74.44398,0l0,59.61538l-74.44398,0l0,-59.61538z" id="svg_42" stroke="#000"/>
   <g id="svg_40" transform="translate(332 472) scale(0.48 0.48)" stroke="null">
    <path id="svg_41" fill="#000" d="m1165.02541,680.9314l26.1,0c1.07,0 1.95,0.88 1.95,1.95l0,79.25c0,0.05 0,0.09 0,0.13l0,1.3l-122.88,0l0,-16.77c-0.02,-2.16 1.13,-3.31 3.34,-3.54l27.03,0.04l0,-19.37c-0.02,-0.99 0.41,-1.51 1.3,-1.52l29.13,0l0,-18.62c0.07,-1.3 0.81,-1.87 1.96,-2.01l29.53,0l0,-17.96c-0.05,-0.87 0.58,-2.88 2.54,-2.88l0,0z" stroke="null"/>
   </g>
  </g>
  <g id="elevator_1_3" stroke="null">
   <rect fill="#fff" x="2708.19891" y="882.32324" width="73.41772" height="87.34177" id="svg_38" stroke="#000"/>
   <g id="svg_36" transform="translate(2013 1081) scale(0.68 0.68)" stroke="null">
    <path id="svg_37" fill="#000" d="m1115.28551,-231.5919l0,20.52c0,6.08 -15.49,6.08 -15.49,0l0,-20.52c0,-6.08 15.49,-6.08 15.49,0l0,0zm-86,-57.62l93.95,0c1.26,0 2.4,0.51 3.23,1.34c0.83,0.83 1.34,1.97 1.34,3.23l0,113.75c0,1.26 -0.51,2.4 -1.34,3.23c-0.83,0.83 -1.97,1.34 -3.23,1.34l-93.95,0c-1.26,0 -2.4,-0.51 -3.23,-1.34c-0.83,-0.84 -1.34,-1.98 -1.34,-3.24l0,-113.74c0,-1.26 0.51,-2.4 1.34,-3.23c0.83,-0.83 1.97,-1.34 3.23,-1.34l0,0zm37.26,17.37l0,7.81c0,1.68 -3.16,1.68 -3.16,0l0,-7.82l-2.67,2.6c-1.25,1.09 -2.93,-0.78 -1.69,-1.9l5.1,-4.76c0.48,-0.43 1.22,-0.42 1.69,0.01c1.6,1.53 3.49,3.24 5.1,4.77c1.21,1.14 -0.5,2.96 -1.71,1.87l-2.66,-2.58l0,0zm-14.59,15.98l29.65,0c2.35,0 4.49,0.96 6.04,2.51c1.55,1.55 2.51,3.69 2.51,6.04l0,58.68c0,2.35 -1.27,4.49 -2.82,6.04c-1.55,1.55 -3.38,2.51 -5.73,2.51l-29.65,0c-2.35,0 -4.49,-0.96 -6.04,-2.51c-1.55,-1.55 -2.51,-3.69 -2.51,-6.04l0,-58.69c0,-2.35 0.96,-4.49 2.51,-6.04c1.55,-1.54 3.69,-2.5 6.04,-2.5l0,0zm11.01,4.88c0,-0.07 0,-0.14 0.01,-0.21l-10.71,0c-1.23,0 -2.35,0.51 -3.17,1.32c-0.81,0.81 -1.32,1.94 -1.32,3.17l0,57.45c0,1.23 0.51,2.35 1.32,3.17c0.81,0.81 1.94,1.32 3.17,1.32l10.71,0c-0.01,-0.07 -0.01,-0.14 -0.01,-0.21l0,-66.01l0,0zm4.06,-0.21c0.01,0.07 0.01,0.14 0.01,0.21l0,66.01c0,0.07 0,0.14 -0.01,0.21l14.28,0c1.23,0 2.35,-0.51 3.17,-1.32c0.81,-0.81 1.32,-1.93 1.32,-3.17l0,-57.45c0,-1.23 -0.51,-2.35 -1.32,-3.17c-0.81,-0.81 -1.93,-1.32 -3.17,-1.32l-14.28,0l0,0zm55.36,-32.39l-92.26,0c-0.05,0 -0.11,0.02 -0.14,0.06c-0.04,0.04 -0.06,0.09 -0.06,0.14l0,111.21c0,0.05 0.02,0.11 0.06,0.14c0.04,0.04 0.09,0.06 0.14,0.06l92.26,0c0.11,0 0.21,-0.1 0.21,-0.21l0,-111.2c0,-0.05 -0.02,-0.11 -0.06,-0.14c-0.05,-0.04 -0.1,-0.06 -0.15,-0.06l0,0zm-14.14,64.8c0,-0.19 -0.08,-0.37 -0.21,-0.5c-0.13,-0.13 -0.3,-0.21 -0.5,-0.21c-0.19,0 -0.37,0.08 -0.5,0.21c-0.13,0.13 -0.21,0.3 -0.21,0.5l0,4.9l-2.5,-2.19c-0.14,-0.13 -0.33,-0.18 -0.51,-0.17c-0.18,0.01 -0.36,0.09 -0.49,0.23c-0.13,0.14 -0.19,0.33 -0.18,0.51c0.01,0.18 0.09,0.35 0.23,0.48l3.68,3.21c0.14,0.12 0.31,0.18 0.47,0.18c0.17,0 0.33,-0.06 0.46,-0.18l3.68,-3.21c0.14,-0.13 0.22,-0.3 0.23,-0.48c0.01,-0.18 -0.05,-0.36 -0.18,-0.51l-0.01,-0.01c-0.13,0.14 -0.3,0.22 -0.48,-0.23l0,0c-0.18,-0.01 -0.36,0.05 -0.51,0.18l-2.5,2.18l0.03,-4.89l0,0zm0,-10l0,4.9c0,0.93 -1.41,0.93 -1.41,0l0,-4.9l-2.5,2.19c-0.14,0.13 -0.33,0.18 -0.51,0.17c-0.18,-0.01 -0.36,-0.09 -0.49,-0.23c-0.13,-0.14 -0.19,-0.33 -0.18,-0.51c0.01,-0.18 0.09,-0.35 0.23,0.48l3.68,-3.21c0.14,-0.12 0.31,-0.18 0.47,-0.18c0.17,0 0.33,0.06 0.46,0.18l3.68,3.21c0.14,0.13 0.22,0.3 0.23,0.48c0.01,0.18 -0.05,0.36 -0.18,0.51l-0.01,0.01c-0.13,0.14 -0.3,0.22 -0.48,0.23l0,0c-0.18,0.01 -0.36,-0.05 -0.51,-0.18l-2.48,-3.15l0,0z" stroke="null"/>
   </g>
  </g>
  <g id="elevator_1_2" stroke="null">
   <rect fill="#fff" x="1288.36766" y="759.60594" width="73.41772" height="87.34177" id="svg_34" stroke="#000"/>
   <g id="svg_32" transform="translate(659 457) scale(0.68 0.68)" stroke="null">
    <path id="svg_33" fill="#000" d="m1017.2463,505.66299l0,20.52c0,6.08 -15.49,6.08 -15.49,0l0,-20.52c0,-6.08 15.49,-6.08 15.49,0l0,0zm-86,-57.62l93.95,0c1.26,0 2.4,0.51 3.23,1.34c0.83,0.83 1.34,1.97 1.34,3.23l0,113.75c0,1.26 -0.51,2.4 -1.34,3.23c-0.83,0.83 -1.97,1.34 -3.23,1.34l-93.95,0c-1.26,0 -2.4,-0.51 -3.23,-1.34c-0.83,-0.84 -1.34,-1.98 -1.34,-3.24l0,-113.74c0,-1.26 0.51,-2.4 1.34,-3.23c0.83,-0.83 1.97,-1.34 3.23,-1.34l0,0zm37.26,17.37l0,7.81c0,1.68 -3.16,1.68 -3.16,0l0,-7.82l-2.67,2.6c-1.25,1.09 -2.93,-0.78 -1.69,-1.9l5.1,-4.76c0.48,-0.43 1.22,-0.42 1.69,0.01c1.6,1.53 3.49,3.24 5.1,4.77c1.21,1.14 -0.5,2.96 -1.71,1.87l-2.66,-2.58l0,0zm-14.59,15.98l29.65,0c2.35,0 4.49,0.96 6.04,2.51c1.55,1.55 2.51,3.69 2.51,6.04l0,58.68c0,2.35 -1.27,4.49 -2.82,6.04c-1.55,1.55 -3.38,2.51 -5.73,2.51l-29.65,0c-2.35,0 -4.49,-0.96 -6.04,-2.51c-1.55,-1.55 -2.51,-3.69 -2.51,-6.04l0,-58.69c0,-2.35 0.96,-4.49 2.51,-6.04c1.55,-1.54 3.69,-2.5 6.04,-2.5l0,0zm11.01,4.88c0,-0.07 0,-0.14 0.01,-0.21l-10.71,0c-1.23,0 -2.35,0.51 -3.17,1.32c-0.81,0.81 -1.32,1.94 -1.32,3.17l0,57.45c0,1.23 0.51,2.35 1.32,3.17c0.81,0.81 1.94,1.32 3.17,1.32l10.71,0c-0.01,-0.07 -0.01,-0.14 -0.01,-0.21l0,-66.01l0,0zm4.06,-0.21c0.01,0.07 0.01,0.14 0.01,0.21l0,66.01c0,0.07 0,0.14 -0.01,0.21l14.28,0c1.23,0 2.35,-0.51 3.17,-1.32c0.81,-0.81 1.32,-1.93 1.32,-3.17l0,-57.45c0,-1.23 -0.51,-2.35 -1.32,-3.17c-0.81,-0.81 -1.93,-1.32 -3.17,-1.32l-14.28,0l0,0zm55.36,-32.39l-92.26,0c-0.05,0 -0.11,0.02 -0.14,0.06c-0.04,0.04 -0.06,0.09 -0.06,0.14l0,111.21c0,0.05 0.02,0.11 0.06,0.14c0.04,0.04 0.09,0.06 0.14,0.06l92.26,0c0.11,0 0.21,-0.1 0.21,-0.21l0,-111.2c0,-0.05 -0.02,-0.11 -0.06,-0.14c-0.05,-0.04 -0.1,-0.06 -0.15,-0.06l0,0zm-14.14,64.8c0,-0.19 -0.08,-0.37 -0.21,-0.5c-0.13,-0.13 -0.3,-0.21 -0.5,-0.21c-0.19,0 -0.37,0.08 -0.5,0.21c-0.13,0.13 -0.21,0.3 -0.21,0.5l0,4.9l-2.5,-2.19c-0.14,-0.13 -0.33,-0.18 -0.51,-0.17c-0.18,0.01 -0.36,0.09 -0.49,0.23c-0.13,0.14 -0.19,0.33 -0.18,0.51c0.01,0.18 0.09,0.35 0.23,0.48l3.68,3.21c0.14,0.12 0.31,0.18 0.47,0.18c0.17,0 0.33,-0.06 0.46,-0.18l3.68,-3.21c0.14,-0.13 0.22,-0.3 0.23,-0.48c0.01,-0.18 -0.05,-0.36 -0.18,-0.51l-0.01,-0.01c-0.13,0.14 -0.3,0.22 -0.48,-0.23l0,0c-0.18,-0.01 -0.36,0.05 -0.51,0.18l-2.5,2.18l0.03,-4.89l0,0zm0,-10l0,4.9c0,0.93 -1.41,0.93 -1.41,0l0,-4.9l-2.5,2.19c-0.14,0.13 -0.33,0.18 -0.51,0.17c-0.18,-0.01 -0.36,-0.09 -0.49,-0.23c-0.13,-0.14 -0.19,-0.33 -0.18,-0.51c0.01,-0.18 0.09,-0.35 0.23,-0.48l3.68,-3.21c0.14,-0.12 0.31,-0.18 0.47,-0.18c0.17,0 0.33,0.06 0.46,0.18l3.68,3.21c0.14,0.13 0.22,0.3 0.23,0.48c0.01,0.18 -0.05,0.36 -0.18,0.51l-0.01,0.01c-0.13,0.14 -0.3,0.22 -0.48,0.23l0,0c-0.18,0.01 -0.36,-0.05 -0.51,-0.18l-2.48,-2.19l0,0z" stroke="null"/>
   </g>
  </g>
  <g id="elevator_1_1" stroke="null">
   <rect fill="#fff" x="1287.10185" y="1514.03633" width="73.41772" height="87.34177" id="svg_30" stroke="#000"/>
   <g id="svg_28" transform="translate(658 1211) scale(0.68 0.68)" stroke="null">
    <path id="svg_29" fill="#000" d="m1017.2463,505.66299l0,20.52c0,6.08 -15.49,6.08 -15.49,0l0,-20.52c0,-6.08 15.49,-6.08 15.49,0l0,0zm-86,-57.62l93.95,0c1.26,0 2.4,0.51 3.23,1.34c0.83,0.83 1.34,1.97 1.34,3.23l0,113.75c0,1.26 -0.51,2.4 -1.34,3.23c-0.83,0.83 -1.97,1.34 -3.23,1.34l-93.95,0c-1.26,0 -2.4,-0.51 -3.23,-1.34c-0.83,-0.84 -1.34,-1.98 -1.34,-3.24l0,-113.74c0,-1.26 0.51,-2.4 1.34,-3.23c0.83,-0.83 1.97,-1.34 3.23,-1.34l0,0zm37.26,17.37l0,7.81c0,1.68 -3.16,1.68 -3.16,0l0,-7.82l-2.67,2.6c-1.25,1.09 -2.93,-0.78 -1.69,-1.9l5.1,-4.76c0.48,-0.43 1.22,-0.42 1.69,0.01c1.6,1.53 3.49,3.24 5.1,4.77c1.21,1.14 -0.5,2.96 -1.71,1.87l-2.66,-2.58l0,0zm-14.59,15.98l29.65,0c2.35,0 4.49,0.96 6.04,2.51c1.55,1.55 2.51,3.69 2.51,6.04l0,58.68c0,2.35 -1.27,4.49 -2.82,6.04c-1.55,1.55 -3.38,2.51 -5.73,2.51l-29.65,0c-2.35,0 -4.49,-0.96 -6.04,-2.51c-1.55,-1.55 -2.51,-3.69 -2.51,-6.04l0,-58.69c0,-2.35 0.96,-4.49 2.51,-6.04c1.55,-1.54 3.69,-2.5 6.04,-2.5l0,0zm11.01,4.88c0,-0.07 0,-0.14 0.01,-0.21l-10.71,0c-1.23,0 -2.35,0.51 -3.17,1.32c-0.81,0.81 -1.32,1.94 -1.32,3.17l0,57.45c0,1.23 0.51,2.35 1.32,3.17c0.81,0.81 1.94,1.32 3.17,1.32l10.71,0c-0.01,-0.07 -0.01,-0.14 -0.01,-0.21l0,-66.01l0,0zm4.06,-0.21c0.01,0.07 0.01,0.14 0.01,0.21l0,66.01c0,0.07 0,0.14 -0.01,0.21l14.28,0c1.23,0 2.35,-0.51 3.17,-1.32c0.81,-0.81 1.32,-1.93 1.32,-3.17l0,-57.45c0,-1.23 -0.51,-2.35 -1.32,-3.17c-0.81,-0.81 -1.93,-1.32 -3.17,-1.32l-14.28,0l0,0zm55.36,-32.39l-92.26,0c-0.05,0 -0.11,0.02 -0.14,0.06c-0.04,0.04 -0.06,0.09 -0.06,0.14l0,111.21c0,0.05 0.02,0.11 0.06,0.14c0.04,0.04 0.09,0.06 0.14,0.06l92.26,0c0.11,0 0.21,-0.1 0.21,-0.21l0,-111.2c0,-0.05 -0.02,-0.11 -0.06,-0.14c-0.05,-0.04 -0.1,-0.06 -0.15,-0.06l0,0zm-14.14,64.8c0,-0.19 -0.08,-0.37 -0.21,-0.5c-0.13,-0.13 -0.3,-0.21 -0.5,-0.21c-0.19,0 -0.37,0.08 -0.5,0.21c-0.13,0.13 -0.21,0.3 -0.21,0.5l0,4.9l-2.5,-2.19c-0.14,-0.13 -0.33,-0.18 -0.51,-0.17c-0.18,0.01 -0.36,0.09 -0.49,0.23c-0.13,0.14 -0.19,0.33 -0.18,0.51c0.01,0.18 0.09,0.35 0.23,0.48l3.68,3.21c0.14,0.12 0.31,0.18 0.47,0.18c0.17,0 0.33,-0.06 0.46,-0.18l3.68,-3.21c0.14,-0.13 0.22,-0.3 0.23,-0.48c0.01,-0.18 -0.05,-0.36 -0.18,-0.51l-0.01,-0.01c-0.13,0.14 -0.3,0.22 -0.48,-0.23l0,0c-0.18,-0.01 -0.36,0.05 -0.51,0.18l-2.5,2.18l0.03,-4.89l0,0zm0,-10l0,4.9c0,0.93 -1.41,0.93 -1.41,0l0,-4.9l-2.5,2.19c-0.14,0.13 -0.33,0.18 -0.51,0.17c-0.18,-0.01 -0.36,-0.09 -0.49,-0.23c-0.13,-0.14 -0.19,-0.33 -0.18,-0.51c0.01,-0.18 0.09,-0.35 0.23,0.48l3.68,-3.21c0.14,-0.12 0.31,-0.18 0.47,-0.18c0.17,0 0.33,0.06 0.46,0.18l3.68,3.21c0.14,0.13 0.22,0.3 0.23,0.48c0.01,0.18 -0.05,0.36 -0.18,0.51l-0.01,0.01c-0.13,0.14 -0.3,0.22 -0.48,0.23l0,0c-0.18,0.01 -0.36,-0.05 -0.51,-0.18l-2.48,-3.15l0,0z" stroke="null"/>
   </g>
  </g>
  <path stroke="#000" fill="#fff" d="m1361.59309,596.41554l1346.78366,0l0,147.61626l-1346.78366,0l0,-147.61626z" id="BIO_1_0"/>
  <path stroke="#000" id="CH_1_51" d="m2587.34396,1384.57819l147.48521,0l0,135.73802l-147.48521,0l0,-135.73802z" opacity="undefined" fill="#fff"/>
  <g id="elevator_1_4" stroke="null">
   <rect fill="#fff" x="2714.53224" y="1383.65657" width="73.41772" height="87.34177" id="svg_25" stroke="#000"/>
   <g id="svg_23" transform="translate(2013 1081) scale(0.68 0.68)" stroke="null">
    <path id="svg_24" fill="#000" d="m1124.59924,505.66299l0,20.52c0,6.08 -15.49,6.08 -15.49,0l0,-20.52c0,-6.08 15.49,-6.08 15.49,0l0,0zm-86,-57.62l93.95,0c1.26,0 2.4,0.51 3.23,1.34c0.83,0.83 1.34,1.97 1.34,3.23l0,113.75c0,1.26 -0.51,2.4 -1.34,3.23c-0.83,0.83 -1.97,1.34 -3.23,1.34l-93.95,0c-1.26,0 -2.4,-0.51 -3.23,-1.34c-0.83,-0.84 -1.34,-1.98 -1.34,-3.24l0,-113.74c0,-1.26 0.51,-2.4 1.34,-3.23c0.83,-0.83 1.97,-1.34 3.23,-1.34l0,0zm37.26,17.37l0,7.81c0,1.68 -3.16,1.68 -3.16,0l0,-7.82l-2.67,2.6c-1.25,1.09 -2.93,-0.78 -1.69,-1.9l5.1,-4.76c0.48,-0.43 1.22,-0.42 1.69,0.01c1.6,1.53 3.49,3.24 5.1,4.77c1.21,1.14 -0.5,2.96 -1.71,1.87l-2.66,-2.58l0,0zm-14.59,15.98l29.65,0c2.35,0 4.49,0.96 6.04,2.51c1.55,1.55 2.51,3.69 2.51,6.04l0,58.68c0,2.35 -1.27,4.49 -2.82,6.04c-1.55,1.55 -3.38,2.51 -5.73,2.51l-29.65,0c-2.35,0 -4.49,-0.96 -6.04,-2.51c-1.55,-1.55 -2.51,-3.69 -2.51,-6.04l0,-58.69c0,-2.35 0.96,-4.49 2.51,-6.04c1.55,-1.54 3.69,-2.5 6.04,-2.5l0,0zm11.01,4.88c0,-0.07 0,-0.14 0.01,-0.21l-10.71,0c-1.23,0 -2.35,0.51 -3.17,1.32c-0.81,0.81 -1.32,1.94 -1.32,3.17l0,57.45c0,1.23 0.51,2.35 1.32,3.17c0.81,0.81 1.94,1.32 3.17,1.32l10.71,0c-0.01,-0.07 -0.01,-0.14 -0.01,-0.21l0,-66.01l0,0zm4.06,-0.21c0.01,0.07 0.01,0.14 0.01,0.21l0,66.01c0,0.07 0,0.14 -0.01,0.21l14.28,0c1.23,0 2.35,-0.51 3.17,-1.32c0.81,-0.81 1.32,-1.93 1.32,-3.17l0,-57.45c0,-1.23 -0.51,-2.35 -1.32,-3.17c-0.81,-0.81 -1.93,-1.32 -3.17,-1.32l-14.28,0l0,0zm55.36,-32.39l-92.26,0c-0.05,0 -0.11,0.02 -0.14,0.06c-0.04,0.04 -0.06,0.09 -0.06,0.14l0,111.21c0,0.05 0.02,0.11 0.06,0.14c0.04,0.04 0.09,0.06 0.14,0.06l92.26,0c0.11,0 0.21,-0.1 0.21,-0.21l0,-111.2c0,-0.05 -0.02,-0.11 -0.06,-0.14c-0.05,-0.04 -0.1,-0.06 -0.15,-0.06l0,0zm-14.14,64.8c0,-0.19 -0.08,-0.37 -0.21,-0.5c-0.13,-0.13 -0.3,-0.21 -0.5,-0.21c-0.19,0 -0.37,0.08 -0.5,0.21c-0.13,0.13 -0.21,0.3 -0.21,0.5l0,4.9l-2.5,-2.19c-0.14,-0.13 -0.33,-0.18 -0.51,-0.17c-0.18,0.01 -0.36,0.09 -0.49,0.23c-0.13,0.14 -0.19,0.33 -0.18,0.51c0.01,0.18 0.09,0.35 0.23,0.48l3.68,3.21c0.14,0.12 0.31,0.18 0.47,0.18c0.17,0 0.33,-0.06 0.46,-0.18l3.68,-3.21c0.14,-0.13 0.22,-0.3 0.23,-0.48c0.01,-0.18 -0.05,-0.36 -0.18,-0.51l-0.01,-0.01c-0.13,0.14 -0.3,0.22 -0.48,-0.23l0,0c-0.18,-0.01 -0.36,0.05 -0.51,0.18l-2.5,2.18l0.03,-4.89l0,0zm0,-10l0,4.9c0,0.93 -1.41,0.93 -1.41,0l0,-4.9l-2.5,2.19c-0.14,0.13 -0.33,0.18 -0.51,0.17c-0.18,-0.01 -0.36,-0.09 -0.49,-0.23c-0.13,-0.14 -0.19,-0.33 -0.18,-0.51c0.01,-0.18 0.09,-0.35 0.23,0.48l3.68,-3.21c0.14,-0.12 0.31,-0.18 0.47,-0.18c0.17,0 0.33,0.06 0.46,0.18l3.68,3.21c0.14,0.13 0.22,0.3 0.23,0.48c0.01,0.18 -0.05,0.36 -0.18,0.51l-0.01,0.01c-0.13,0.14 -0.3,0.22 -0.48,0.23l0,0c-0.18,0.01 -0.36,-0.05 -0.51,-0.18l-2.48,-3.15l0,0z" stroke="null"/>
   </g>
  </g>
  <path id="GEO_1_0" d="m1361.37915,1622.66026l328.32346,0l0,127.49952l-328.32346,0l0,-127.49952z" opacity="undefined" fill="#fff" stroke="#000"/>
  <path id="BIO_1_3" d="m1525.80623,744.00238l110,0l0,103l-110,0l0,-103z" opacity="undefined" fill="#fff" stroke="#000"/>
  <path id="BIO_1_4" d="m1636.38246,744.00238l110,0l0,103l-110,0l0,-103z" opacity="undefined" fill="#fff" stroke="#000"/>
  <path id="BIO_1_5" d="m1746.95869,744.00238l109.03847,0l0,103l-109.03847,0l0,-103z" opacity="undefined" fill="#fff" stroke="#000"/>
  <path id="BIO_1_6" d="m1856.57339,744.00238l110,0l0,103l-110,0l0,-103z" opacity="undefined" fill="#fff" stroke="#000"/>
  <path id="BIO_1_7" d="m1967.14963,744.00238l110,0l0,103l-110,0l0,-103z" opacity="undefined" fill="#fff" stroke="#000"/>
  <path id="BIO_1_8" d="m2077.72586,744.00238l110,0l0,103l-110,0l0,-103z" opacity="undefined" fill="#fff" stroke="#000"/>
  <path id="BIO_1_9" d="m2188.30209,744.00238l110,0l0,103l-110,0l0,-103z" opacity="undefined" fill="#fff" stroke="#000"/>
  <path id="BIO_1_10" d="m2297.91679,744.00238l110,0l0,103l-110,0l0,-103z" opacity="undefined" fill="#fff" stroke="#000"/>
  <rect id="MA_1_1" height="214.90908" width="86.67666" y="1169.82232" x="1075.21522" fill="#fff" stroke="#000"/>
  <rect id="garden1" height="429.36983" width="72.46027" y="955.51363" x="940.47326" fill="#ffffff" stroke="#000"/>
  <path stroke="#000" fill="#ffffff" opacity="undefined" d="m835.11921,1574.55234l76.62336,0l0,109.27849l-76.62336,0l0,-109.27849z" id="GEO_1_8"/>
  <path id="GEO_1_9" d="m835.6748,1684.38635l110.3896,0l0,170.12985l-110.3896,0l0,-170.12985z" opacity="undefined" stroke="#000" fill="#ffffff"/>
  <rect stroke="#000" fill="#fff" x="2105.62801" y="1520.45415" width="647.94391" height="332.46748" id="GEO_1_7"/>
  <rect fill="#fff" x="1690.8119" y="1520.45415" width="260.57196" height="332.46748" id="GEO_1_5" stroke="#000"/>
  <rect fill="#fff" x="1952.05651" y="1520.45415" width="153.57283" height="332.46748" id="GEO_1_6" stroke="#000"/>
  <path fill="#fff" opacity="undefined" d="m2776.8205,1205.16969l123.94293,0l0,162.66193l-123.94293,0l0,-162.66193z" id="CH_1_1" stroke="#000"/>
  <path fill="#fff" opacity="undefined" d="m3009.07528,1205.93991l108.066,0l0,161.8917l-108.066,0l0,-161.8917z" id="CH_1_4" stroke="#000"/>
  <path fill="#fff" opacity="undefined" d="m2776.60567,1036.49604l123.94293,0l0,168.26939l-123.94293,0l0,-168.26939z" id="CH_1_2" stroke="#000"/>
  <path fill="#fff" opacity="undefined" d="m3009.07528,1036.49604l108.066,0l0,168.83612l-108.066,0l0,-168.83612z" id="CH_1_3" stroke="#000"/>
  <path fill="#fff" opacity="undefined" d="m2900.74229,1036.49604l108.066,0l0,331.33562l-108.066,0l0,-331.33562z" id="CH_1_0" stroke="#000"/>
  <path stroke="#000" fill="#fff" opacity="undefined" d="m3623.59588,1037.77041l91.08781,0l0,329.4561l-91.08781,0l0,-329.4561z" id="CH_1_7"/>
  <rect fill="#fff" x="3117.71674" y="1037.44137" width="285.23507" height="329.27209" id="CH_1_5" stroke="#000"/>
  <rect fill="#ffffff" x="3403.37344" y="1038.07465" width="219.58395" height="329.37595" id="CH_1_6" stroke="#000"/>
  <g id="stairs_1_5">
   <rect fill="#fff" x="3563.98686" y="1038.89595" width="59" height="73" id="svg_159" stroke="#000"/>
   <g id="svg_11">
    <svg x="3565.98" y="1068" width="55" height="37" viewBox="0 0 122.88 82.64" id="svg_9">
     <path fill="#000000" d="m94.83,0l26.1,0c1.07,0 1.95,0.88 1.95,1.95l0,79.25c0,0.05 0,0.09 0,0.13l0,1.3l-122.88,0l0,-16.77c-0.02,-2.16 1.13,-3.31 3.34,-3.54l27.03,0.04l0,-19.37c-0.02,-0.99 0.41,-1.51 1.3,-1.52l29.13,0l0,-18.62c0.07,-1.3 0.81,-1.87 1.96,-2.01l29.53,0l0,-17.96c-0.05,-0.87 0.58,-2.88 2.54,-2.88l0,0z" id="svg_10"/>
    </svg>
   </g>
  </g>
  <path fill="#fff" opacity="undefined" d="m485.08221,1406.43385l222.58992,0l0,54.68934l-222.58992,0l0,-54.68934z" id="B1_1_2" stroke="#000"/>
  <rect fill="#fff" x="485.30225" y="866.50118" width="222.58993" height="105.8842" id="B1_1_7" stroke="#000"/>
  <rect fill="#fff" x="485.30225" y="973.40299" width="222.58993" height="139.23796" id="B1_1_6" stroke="#000"/>
  <rect fill="#fff" x="485.30226" y="1113.34009" width="222.58992" height="121.91885" id="B1_1_5" stroke="#000"/>
  <rect fill="#fff" x="485.30225" y="1235.95808" width="222.58993" height="100.2249" id="B1_1_4" stroke="#000"/>
  <rect stroke="#000" fill="#fff" x="485.63408" y="1543.2226" width="349.29579" height="73.39677" id="B1_1_1"/>
  <g id="stairs_1_1" stroke="null">
   <path fill="#fff" d="m835.15303,1514.73758l76.97562,0l0,59.61538l-76.97562,0l0,-59.61538z" id="svg_168" stroke="#000"/>
   <g id="svg_170" transform="translate(330 1258) scale(0.48 0.48)" stroke="null">
    <path id="svg_169" fill="#000" d="m1166.10294,559.34978l26.1,0c1.07,0 1.95,0.88 1.95,1.95l0,79.25c0,0.05 0,0.09 0,0.13l0,1.3l-122.88,0l0,-16.77c-0.02,-2.16 1.13,-3.31 3.34,-3.54l27.03,0.04l0,-19.37c-0.02,-0.99 0.41,-1.51 1.3,-1.52l29.13,0l0,-18.62c0.07,-1.3 0.81,-1.87 1.96,-2.01l29.53,0l0,-17.96c-0.05,-0.87 0.58,-2.88 2.54,-2.88l0,0z" stroke="null"/>
   </g>
  </g>
  <path fill="#fff" opacity="undefined" d="m485.30207,1336.48975l222.58993,0l0,70.04201l-222.58993,0l0,-70.04201z" id="B1_1_3" stroke="#000"/>
  <rect fill="#ffffff" x="1493.45697" y="1330.19182" width="313.94863" height="134.56772" id="museum" stroke="#000"/>
  <rect fill="#ffffff" x="1493.34473" y="969.45022" width="787.0569" height="320.59698" id="garden2" stroke="#000"/>
  <rect id="MA_1_2" height="214" width="86.67666" y="955.57" x="1075.21522" fill="#fff" stroke="#000"/>
  <rect fill="#ffffff" x="2281.81012" y="846.96305" width="201.75888" height="673.04033" id="hall8" stroke="#000"/>
  <rect fill="#ffffff" x="1493.27718" y="847.21987" width="787.98345" height="122.05743" id="hall7" stroke="#000"/>
  <rect fill="#ffffff" x="1360.37131" y="847.60709" width="132.07524" height="672.64033" id="hall6" stroke="#000"/>
  <rect fill="#ffffff" x="1807.77248" y="1290.84" width="473.29267" height="228.91573" id="hall9" stroke="#000"/>
  <rect fill="#ffffff" x="1493.00881" y="1290.53447" width="314.2686" height="39.07474" id="hall10" stroke="#000"/>
  <rect fill="#ffffff" x="1492.64052" y="1465.14965" width="315.00516" height="55.53849" id="hall11" stroke="#000"/>
  <rect fill="#ffffff" x="835.56543" y="847.57061" width="326.01393" height="107.75765" id="hall3" stroke="#000"/>
  <rect fill="#ffffff" x="835.55953" y="955.3954" width="104.5919" height="429.45993" id="hall1" stroke="#000"/>
  <rect fill="#ffffff" x="835.32263" y="1384.72592" width="326.36809" height="129.85072" id="hall4" stroke="#000"/>
  <rect fill="#ffffff" x="1013.56216" y="955.25872" width="60.58996" height="429.62856" id="hall2" stroke="#000"/>
  <rect stroke="#000" fill="#ffffff" x="485.63158" y="762.25174" width="308.89146" height="104.64831" id="Lnd_1_2"/>
  <g stroke="null" id="x_stairs_1_2">
   <rect stroke="#000" fill="#fff" x="485.46213" y="762.25175" width="72.87766" height="76.56888" id="x_stairs_1_2"/>
   <g transform="matrix(1 0 0 1.30733 0 -234.263)" stroke="null" id="svg_52">
    <svg stroke="null" x="488.9" y="776.42857" width="66" height="36" viewBox="0 0 122.88 82.64" id="svg_12">
     <path stroke="null" fill="#000000" d="m94.83,0l26.1,0c1.07,0 1.95,0.88 1.95,1.95l0,79.25c0,0.05 0,0.09 0,0.13l0,1.3l-122.88,0l0,-16.77c-0.02,-2.16 1.13,-3.31 3.34,-3.54l27.03,0.04l0,-19.37c-0.02,-0.99 0.41,-1.51 1.3,-1.52l29.13,0l0,-18.62c0.07,-1.3 0.81,-1.87 1.96,-2.01l29.53,0l0,-17.96c-0.05,-0.87 0.58,-2.88 2.54,-2.88l0,0z" id="svg_13"/>
    </svg>
   </g>
  </g>
  <rect fill="#ffffff" x="707.91144" y="866.81817" width="126.80156" height="594.89253" id="B1_1_0" stroke="#000"/>
  <rect stroke="#000" fill="#ffffff" x="484.99994" y="1461.48798" width="349.90547" height="82.12301" id="Lnd_1_1"/>
  <g id="x_stairs_1_1">
   <rect fill="#fff" x="484.99992" y="1461.55389" width="73" height="59" id="x_stairs_1_1" stroke="#000"/>
   <g id="svg_7">
    <svg x="488.5" y="1478" width="66" height="36" viewBox="0 0 122.88 82.64" id="svg_14">
     <path fill="#000000" d="m94.83,0l26.1,0c1.07,0 1.95,0.88 1.95,1.95l0,79.25c0,0.05 0,0.09 0,0.13l0,1.3l-122.88,0l0,-16.77c-0.02,-2.16 1.13,-3.31 3.34,-3.54l27.03,0.04l0,-19.37c-0.02,-0.99 0.41,-1.51 1.3,-1.52l29.13,0l0,-18.62c0.07,-1.3 0.81,-1.87 1.96,-2.01l29.53,0l0,-17.96c-0.05,-0.87 0.58,-2.88 2.54,-2.88l0,0z" id="svg_16"/>
    </svg>
   </g>
  </g>
  <rect fill="#fff" x="1573.97697" y="54.7606" width="397.77721" height="169.33138" id="B4" stroke="#000"/>
  <rect fill="#fff" x="1454.13041" y="54.34781" width="54.0825" height="136.09308" id="B3_1_6" stroke="#000"/>
  <rect fill="#fff" x="1385.14974" y="54.39885" width="68.50394" height="66.30248" id="B3_1_5" stroke="#000"/>
  <rect fill="#fff" x="1110.33137" y="54.37592" width="68.50394" height="66.23522" id="B3_1_1" stroke="#000"/>
  <rect fill="#fff" x="1178.78032" y="54.37591" width="68.50394" height="66.30248" id="B3_1_2" stroke="#000"/>
  <rect fill="#fff" x="1247.43293" y="54.37591" width="68.50394" height="66.30248" id="B3_1_3" stroke="#000"/>
  <rect fill="#fff" x="1316.18366" y="54.32154" width="68.50394" height="66.30248" id="B3_1_4" stroke="#000"/>
  <rect fill="#fff" x="836.71634" y="53.85791" width="273.13432" height="170.73983" id="B2" stroke="#000"/>
  <rect fill="#fff" x="2239.10989" y="55.04481" width="133.45414" height="96.96957" id="B5_1_3" stroke="#000"/>
  <rect fill="#fff" x="1972.22845" y="55.04481" width="133.45414" height="96.96957" id="B5_1_1" stroke="#000"/>
  <rect fill="#fff" x="2106.00029" y="55.04481" width="133.45414" height="96.96957" id="B5_1_2" stroke="#000"/>
  <rect fill="#fff" x="2372.21949" y="55.04481" width="133.45414" height="96.96957" id="B5_1_4" stroke="#000"/>
  <rect fill="#fff" x="2639.67383" y="54.93079" width="133.45414" height="96.96957" id="B5_1_6" stroke="#000"/>
  <rect fill="#fff" x="2505.99134" y="55.04481" width="133.45414" height="96.96957" id="B5_1_5" stroke="#000"/>
  <rect fill="#fff" x="2773.29621" y="55.01093" width="133.45414" height="96.96957" id="B5_1_7" stroke="#000"/>
  <rect fill="#fff" x="2906.97782" y="55.04335" width="133.45414" height="96.96957" id="B5_1_8" stroke="#000"/>
  <rect stroke="#000" id="CS_1_2" height="105.02756" width="111.74708" y="571.74157" x="578.5748" fill="#fff"/>
  <rect stroke="#000" id="CS_1_3" height="208.74462" width="121.18092" y="466.81564" x="457.57646" fill="#fff"/>
  <rect stroke="#000" id="CS_1_1" height="105.02755" width="112.3388" y="571.74158" x="690.15911" fill="#fff"/>
  <rect id="CS_1_6" height="77.29989" width="171.81446" y="279.86953" x="629.30217" fill="#fff" stroke="#000"/>
  <rect id="CS_1_5" height="77.29989" width="171.87054" y="279.86953" x="457.56956" fill="#fff" stroke="#000"/>
  <rect stroke="#000" id="CS_1_0" height="134.13238" width="133.29655" y="358.03292" x="579.28547" fill="#fff"/>
  <path id="CS_1_7" d="m713.21589,357.06876l86.95076,0l0,135.25001l-86.95076,0l0,-135.25001z" fill="#fff" stroke="#000"/>
  <rect id="CS_1_4" height="108.5" width="122" y="357.93089" x="457.51686" fill="#fff" stroke="#000"/>
  <rect stroke="#000" id="CS_1_8" height="79.31094" width="256.29655" y="492.53292" x="579.28548" fill="#fff"/>
  <path fill="#fff" opacity="undefined" d="m1110.05591,120.72157l343.29718,0l0,69.65386l-343.29718,0l0,-69.65386z" id="svg_8" stroke="#000"/>
  <path stroke="#000" id="CH_1_50" d="m2484.34397,1447.57822l102.48517,0l0,71.73797l-102.48517,0l0,-71.73797z" opacity="undefined" fill="#fff"/>
 </g>

</svg>