<svg width="4000.000000000001" height="2000.0000000000005" xmlns="http://www.w3.org/2000/svg" stroke="null">
 <g stroke="null">
  <title stroke="null">Layer 1</title>
  <path transform="rotate(90 1687.91 1497.31)" id="GEO_6_8" d="m1636.32832,1441.52027l103.1579,0l0,111.57894l-103.1579,0l0,-111.57894z" opacity="undefined" fill="#fff" stroke="#000"/>
  <path id="MA_6_2" d="m628.33595,931.74301l103.1579,0l0,164.48218l-103.1579,0l0,-164.48218z" opacity="undefined" fill="#fff" stroke="#000"/>
  <rect id="MA_6_3" height="111.57895" width="103.15789" y="819.5711" x="628.33595" fill="#fff" stroke="#000"/>
  <path id="MA_6_11" d="m397.69464,1096.49585l103.1579,0l0,111.57894l-103.1579,0l0,-111.57894z" opacity="undefined" fill="#fff" stroke="#000"/>
  <path id="MA_6_9" d="m397.67061,819.07641l103.1579,0l0,164.48218l-103.1579,0l0,-164.48218z" opacity="undefined" fill="#fff" stroke="#000"/>
  <path id="MA_6_8" d="m397.67061,653.91512l103.1579,0l0,164.48218l-103.1579,0l0,-164.48218z" opacity="undefined" fill="#fff" stroke="#000"/>
  <rect id="MA_6_7" height="111.57895" width="103.15789" y="542.30224" x="397.67062" fill="#fff" stroke="#000"/>
  <rect id="MA_6_10" height="111.57895" width="103.15789" y="984.2377" x="397.67061" fill="#fff" stroke="#000"/>
  <path transform="rotate(90 1784.77 1497.04)" id="GEO_6_9" d="m1733.19318,1456.1355l103.1579,0l0,81.81555l-103.1579,0l0,-81.81555z" opacity="undefined" fill="#fff" stroke="#000"/>
  <rect id="nexus_6_1" height="339.1228" width="333.33335" y="1209.77781" x="397.33326" fill="#fff" stroke="#000"/>
  <path id="nexus_6_2" d="m398.21045,187.89045l333.33334,0l0,354.34356l-333.33334,0l0,-354.34356z" opacity="undefined" fill="#fff" stroke="#000"/>
  <rect id="MA_6_0" height="665.41921" width="125.50016" y="542.74495" x="501.69964" fill="#fff" stroke="#000"/>
  <g id="MA_6_5">
   <path id="svg_23" d="m628.33595,625.99995l103.1579,0l0,81.81555l-103.1579,0l0,-81.81555z" fill="#fff" stroke="#000"/>
   <g transform="rotate(90 685.57 667.92) translate(670 630) scale(0.6 0.6)" id="svg_6">
    <path d="m23.59,0a10.34,10.34 0 1 1 -10.34,10.34a10.34,10.34 0 0 1 10.34,-10.34zm13.07,38.93l0,78.23a5.74,5.74 0 0 1 -5.72,5.72l0,0a5.73,5.73 0 0 1 -5.72,-5.72l0,-46l-3.11,0l0,46a5.74,5.74 0 0 1 -5.72,5.72l0,0a5.74,5.74 0 0 1 -5.72,-5.72l0,-78.23l-2,0l0,28.75c0,5.73 -8.67,5.73 -8.67,0l0,-30.94c0,-5 1.69,-8.56 4.77,-10.88c5.3,-4 32.33,-4 37.63,0c3.08,2.32 4.79,5.85 4.78,10.88l0,30.94c0,5.73 -8.68,5.73 -8.68,0l0,-28.75l-1.84,0z" fill="#000" id="svg_9"/>
   </g>
  </g>
  <g id="GEO_6_1" stroke="null">
   <path id="svg_24" d="m813.27712,1445.56114l0,103.1579l-81.81555,0l0,-103.1579l81.81555,0z" fill="#fff" stroke="#000"/>
   <g transform="translate(760 1465) scale(0.6 0.6)" id="svg_10" stroke="null">
    <path d="m23.59002,0a10.34,10.34 0 1 1 -10.34,10.34a10.34,10.34 0 0 1 10.34,-10.34zm13.07,38.93l0,78.23a5.74,5.74 0 0 1 -5.72,5.72l0,0a5.73,5.73 0 0 1 -5.72,-5.72l0,-46l-3.11,0l0,46a5.74,5.74 0 0 1 -5.72,5.72l0,0a5.74,5.74 0 0 1 -5.72,-5.72l0,-78.23l-2,0l0,28.75c0,5.73 -8.67,5.73 -8.67,0l0,-30.94c0,-5 1.69,-8.56 4.77,-10.88c5.3,-4 32.33,-4 37.63,0c3.08,2.32 4.79,5.85 4.78,10.88l0,30.94c0,5.73 -8.68,5.73 -8.68,0l0,-28.75l-1.84,0z" fill="#000" id="svg_17" stroke="null"/>
   </g>
  </g>
  <rect id="GEO_6_12" height="102.66667" width="288" y="1215.83915" x="1649.56056" fill="#fff" stroke="#000"/>
  <path id="MA_6_1" d="m628.35998,1097.16251l103.1579,0l0,111.57894l-103.1579,0l0,-111.57894z" opacity="undefined" fill="#fff" stroke="#000"/>
  <path transform="rotate(90 1352.88 1497.31)" id="GEO_6_5" d="m1301.3039,1441.52027l103.1579,0l0,111.57894l-103.1579,0l0,-111.57894z" opacity="undefined" fill="#fff" stroke="#000"/>
  <path id="GEO_6_4" d="m1189.45491,1440.98061l103.1579,0l0,112.66586l-103.1579,0l0,-112.66586z" opacity="undefined" fill="#fff" transform="rotate(90 1241.03 1497.31)" stroke="#000"/>
  <path transform="rotate(90 1881.73 1496.82)" id="GEO_6_10" d="m1830.14944,1441.03248l103.15789,0l0,111.57894l-103.15789,0l0,-111.57894z" opacity="undefined" fill="#fff" stroke="#000"/>
  <path transform="rotate(90 1575.52 1497.31)" id="GEO_6_7" d="m1523.93891,1441.52027l103.1579,0l0,111.57894l-103.1579,0l0,-111.57894z" opacity="undefined" fill="#fff" stroke="#000"/>
  <g id="GEO_6_2">
   <path transform="rotate(90 854.913 1497.04)" id="svg_32" d="m803.33363,1455.86939l103.1579,0l0,82.34185l-103.1579,0l0,-82.34185z" fill="#fff" stroke="#000"/>
   <g transform="translate(835, 1465) scale(0.55)" id="svg_20">
    <path d="m19.71,40.39l-12.47,51.61l12.47,0l0,25.13a5.73,5.73 0 0 0 5.72,5.72l0,0a5.73,5.73 0 0 0 5.71,-5.72l0,-25.13l2.26,0l0,25.13a5.73,5.73 0 0 0 5.71,5.72l0,0a5.73,5.73 0 0 0 5.72,-5.72l0,-25.13l11.77,0l-11.77,-50.27l0,-2.8l1.85,0l0.13,0l8.82,31.38a4.45,4.45 0 0 0 8.56,-2.4l-8.94,-31.8a4.29,4.29 0 0 0 -0.19,-0.54c-1.13,-4.72 -1.64,-7.54 -4.49,-9.68c-5.3,-4 -30.91,-4 -36.2,0c-3.08,2.32 -4.2,5.87 -5.54,10.88l0.08,0l-8.74,31.11a4.44,4.44 0 1 0 8.55,2.4l8.83,-31.39l0.16,0l2,0l0,1.46l0,0.04zm12.49,-40.39a10.34,10.34 0 1 1 -10.34,10.34a10.34,10.34 0 0 1 10.34,-10.34z" fill="#000" id="svg_26"/>
   </g>
  </g>
  <path transform="rotate(90 1464 1497.31)" id="GEO_6_6" d="m1412.4267,1441.52027l103.15789,0l0,111.57894l-103.15789,0l0,-111.57894z" opacity="undefined" fill="#fff" stroke="#000"/>
  <rect id="GEO_6_3" height="102.66667" width="288" y="1445.95783" x="896.55447" fill="#fff" stroke="#000"/>
  <rect id="GEO_6_14" height="102.66667" width="288" y="1215.83914" x="1073.61646" fill="#fff" stroke="#000"/>
  <rect id="GEO_6_13" height="102.66667" width="288" y="1215.83915" x="1361.61105" fill="#fff" stroke="#000"/>
  <rect stroke="#000" id="GEO_6_15" height="102.66667" width="343.42125" y="1215.83915" x="730.29073" fill="#fff"/>
  <rect id="GEO_6_11" height="332.07886" width="138.70968" y="1216.63707" x="2084.78748" fill="#fff" stroke="#000"/>
  <g id="stairs_6_5">
   <path transform="rotate(90 3219.51 792.758)" id="svg_41" d="m3178.27102,762.95063l82.47835,0l0,59.61538l-82.47835,0l0,-59.61538z" fill="#fff" stroke="#000"/>
   <g transform="translate(3195, 790) scale(0.42)" id="svg_38">
    <path d="m94.83,0l26.1,0c1.07,0 1.95,0.88 1.95,1.95l0,79.25c0,0.05 0,0.09 0,0.13l0,1.3l-122.88,0l0,-16.77c-0.02,-2.16 1.13,-3.31 3.34,-3.54l27.03,0.04l0,-19.37c-0.02,-0.99 0.41,-1.51 1.3,-1.52l29.13,0l0,-18.62c0.07,-1.3 0.81,-1.87 1.96,-2.01l29.53,0l0,-17.96c-0.05,-0.87 0.58,-2.88 2.54,-2.88l0,0z" fill="#000" id="svg_39"/>
   </g>
  </g>
  <g id="MA_6_6">
   <path id="svg_44" d="m628.33595,543.33332l103.1579,0l0,81.81555l-103.1579,0l0,-81.81555z" fill="#fff" stroke="#000"/>
   <g transform="rotate(90 688.025 589.72) translate(670 555) scale(0.55 0.55)" id="svg_42">
    <path d="m19.71,40.39l-12.47,51.61l12.47,0l0,25.13a5.73,5.73 0 0 0 5.72,5.72l0,0a5.73,5.73 0 0 0 5.71,-5.72l0,-25.13l2.26,0l0,25.13a5.73,5.73 0 0 0 5.71,5.72l0,0a5.73,5.73 0 0 0 5.72,-5.72l0,-25.13l11.77,0l-11.77,-50.27l0,-2.8l1.85,0l0.13,0l8.82,31.38a4.45,4.45 0 0 0 8.56,-2.4l-8.94,-31.8a4.29,4.29 0 0 0 -0.19,-0.54c-1.13,-4.72 -1.64,-7.54 -4.49,-9.68c-5.3,-4 -30.91,-4 -36.2,0c-3.08,2.32 -4.2,5.87 -5.54,10.88l0.08,0l-8.74,31.11a4.44,4.44 0 1 0 8.55,2.4l8.83,-31.39l0.16,0l2,0l0,1.46l0,0.04zm12.49,-40.39a10.34,10.34 0 1 1 -10.34,10.34a10.34,10.34 0 0 1 10.34,-10.34z" fill="#000" id="svg_43"/>
   </g>
  </g>
  <g id="BIO_6_1">
   <path transform="rotate(90 772.764 490.708)" id="svg_45" d="m721.18465,449.80059l103.1579,0l0,81.81555l-103.1579,0l0,-81.81555z" fill="#fff" stroke="#000"/>
   <g transform="translate(760, 455) scale(0.6)" id="svg_47">
    <path d="m23.59,0a10.34,10.34 0 1 1 -10.34,10.34a10.34,10.34 0 0 1 10.34,-10.34zm13.07,38.93l0,78.23a5.74,5.74 0 0 1 -5.72,5.72l0,0a5.73,5.73 0 0 1 -5.72,-5.72l0,-46l-3.11,0l0,46a5.74,5.74 0 0 1 -5.72,5.72l0,0a5.74,5.74 0 0 1 -5.72,-5.72l0,-78.23l-2,0l0,28.75c0,5.73 -8.67,5.73 -8.67,0l0,-30.94c0,-5 1.69,-8.56 4.77,-10.88c5.3,-4 32.33,-4 37.63,0c3.08,2.32 4.79,5.85 4.78,10.88l0,30.94c0,5.73 -8.68,5.73 -8.68,0l0,-28.75l-1.84,0z" fill="#000" id="svg_48"/>
   </g>
  </g>
  <rect id="MA_6_4" height="111.57895" width="103.15789" y="706.96882" x="628.33596" fill="#fff" stroke="#000"/>
  <path id="BIO_6_17" d="m731.66532,187.77206l220,0l0,102.66666l-220,0l0,-102.66666z" opacity="undefined" fill="#fff" stroke="#000"/>
  <rect id="BIO_6_16" height="103" width="220" y="187.60461" x="951.50969" fill="#fff" stroke="#000"/>
  <rect id="BIO_6_13" height="102.66667" width="220" y="188.1643" x="1610.71176" fill="#fff" stroke="#000"/>
  <rect id="BIO_6_15" height="102.66667" width="220" y="188.20651" x="1171.07661" fill="#fff" stroke="#000"/>
  <rect stroke="#000" id="BIO_6_14" height="102.66667" width="220" y="188.26137" x="1390.89421" fill="#fff"/>
  <rect id="BIO_6_12" height="103" width="154.10736" y="188.10384" x="1830.57243" fill="#fff" stroke="#000"/>
  <path id="BIO_6_11" d="m1984.996,188.04219l233.90716,0l0,103l-233.90716,0l0,-103z" opacity="undefined" fill="#fff" stroke="#000"/>
  <path transform="rotate(90 2180.02 365.684)" stroke="#000" id="BIO_6_10" d="m2105.65571,327.40085l148.72509,0l0,76.56711l-148.72509,0l0,-76.56711z" opacity="undefined" fill="#fff"/>
  <rect stroke="#000" id="BIO_6_9" height="102.53243" width="140.91893" y="439.79692" x="2077.50866" fill="#fff"/>
  <path fill="#fff" opacity="undefined" d="m1937.2041,1078.90894l147.48521,0l0,469.24826l-147.48521,0l0,-469.24826z" id="nexus_6_5" stroke="#000"/>
  <rect stroke="#000" id="BIO_6_8" height="103" width="156.26086" y="439.33315" x="1794.75326" fill="#fff"/>
  <rect id="BIO_6_3" height="103" width="180" y="439.33315" x="895.66644" fill="#fff" stroke="#000"/>
  <rect id="BIO_6_4" height="103" width="180" y="439.33315" x="1074.95062" fill="#fff" stroke="#000"/>
  <rect id="BIO_6_5" height="103" width="180" y="439.33315" x="1254.90128" fill="#fff" stroke="#000"/>
  <rect id="BIO_6_6" height="103" width="180" y="439.33315" x="1434.85194" fill="#fff" stroke="#000"/>
  <rect id="BIO_6_7" height="103" width="180" y="439.33315" x="1614.8026" fill="#fff" stroke="#000"/>
  <g id="stairs_6_4">
   <path id="svg_79" d="m1854.73096,1109.69293l82.43374,0l0,59.61538l-82.43374,0l0,-59.61538z" fill="#fff" stroke="#000"/>
   <g transform="translate(1866, 1120) scale(0.5)" id="svg_49">
    <path d="m94.83,0l26.1,0c1.07,0 1.95,0.88 1.95,1.95l0,79.25c0,0.05 0,0.09 0,0.13l0,1.3l-122.88,0l0,-16.77c-0.02,-2.16 1.13,-3.31 3.34,-3.54l27.03,0.04l0,-19.37c-0.02,-0.99 0.41,-1.51 1.3,-1.52l29.13,0l0,-18.62c0.07,-1.3 0.81,-1.87 1.96,-2.01l29.53,0l0,-17.96c-0.05,-0.87 0.58,-2.88 2.54,-2.88l0,0z" fill="#000" id="svg_50"/>
   </g>
  </g>
  <path id="nexus_6_3" d="m1951.86658,439.88397l125.21519,0l0,276.30139l-125.21519,0l0,-276.30139z" stroke="#000" fill="#fff"/>
  <rect id="nexus_6_4" height="362.55146" width="280.14586" y="716.0053" x="1865.88555" fill="#fff" stroke="#000"/>
  <rect id="CH_6_0" height="125.00001" width="1209.50331" y="834.42898" x="2146.69604" fill="#fff" stroke="#000"/>
  <g id="BIO_6_2">
   <path transform="rotate(90 854.691 490.653)" id="svg_87" d="m803.11232,449.74573l103.1579,0l0,81.81555l-103.1579,0l0,-81.81555z" fill="#fff" stroke="#000"/>
   <g transform="translate(835, 460) scale(0.55)" id="svg_51">
    <path d="m19.71,40.39l-12.47,51.61l12.47,0l0,25.13a5.73,5.73 0 0 0 5.72,5.72l0,0a5.73,5.73 0 0 0 5.71,-5.72l0,-25.13l2.26,0l0,25.13a5.73,5.73 0 0 0 5.71,5.72l0,0a5.73,5.73 0 0 0 5.72,-5.72l0,-25.13l11.77,0l-11.77,-50.27l0,-2.8l1.85,0l0.13,0l8.82,31.38a4.45,4.45 0 0 0 8.56,-2.4l-8.94,-31.8a4.29,4.29 0 0 0 -0.19,-0.54c-1.13,-4.72 -1.64,-7.54 -4.49,-9.68c-5.3,-4 -30.91,-4 -36.2,0c-3.08,2.32 -4.2,5.87 -5.54,10.88l0.08,0l-8.74,31.11a4.44,4.44 0 1 0 8.55,2.4l8.83,-31.39l0.16,0l2,0l0,1.46l0,0.04zm12.49,-40.39a10.34,10.34 0 1 1 -10.34,10.34a10.34,10.34 0 0 1 10.34,-10.34z" fill="#000" id="svg_52"/>
   </g>
  </g>
  <g id="CH_6_1">
   <path transform="rotate(90 2186.61 1011.41)" id="svg_88" d="m2135.0313,970.50659l103.1579,0l0,81.81555l-103.1579,0l0,-81.81555z" fill="#fff" stroke="#000"/>
   <g transform="translate(2172, 980) scale(0.6)" id="svg_56">
    <path d="m23.59,0a10.34,10.34 0 1 1 -10.34,10.34a10.34,10.34 0 0 1 10.34,-10.34zm13.07,38.93l0,78.23a5.74,5.74 0 0 1 -5.72,5.72l0,0a5.73,5.73 0 0 1 -5.72,-5.72l0,-46l-3.11,0l0,46a5.74,5.74 0 0 1 -5.72,5.72l0,0a5.74,5.74 0 0 1 -5.72,-5.72l0,-78.23l-2,0l0,28.75c0,5.73 -8.67,5.73 -8.67,0l0,-30.94c0,-5 1.69,-8.56 4.77,-10.88c5.3,-4 32.33,-4 37.63,0c3.08,2.32 4.79,5.85 4.78,10.88l0,30.94c0,5.73 -8.68,5.73 -8.68,0l0,-28.75l-1.84,0z" fill="#000" id="svg_60"/>
   </g>
  </g>
  <g id="CH_6_2">
   <path transform="rotate(90 2268.05 1011.38)" id="svg_89" d="m2216.47151,970.47668l103.1579,0l0,81.81555l-103.1579,0l0,-81.81555z" fill="#fff" stroke="#000"/>
   <g transform="translate(2245, 980) scale(0.55)" id="svg_63">
    <path d="m19.71,40.39l-12.47,51.61l12.47,0l0,25.13a5.73,5.73 0 0 0 5.72,5.72l0,0a5.73,5.73 0 0 0 5.71,-5.72l0,-25.13l2.26,0l0,25.13a5.73,5.73 0 0 0 5.71,5.72l0,0a5.73,5.73 0 0 0 5.72,-5.72l0,-25.13l11.77,0l-11.77,-50.27l0,-2.8l1.85,0l0.13,0l8.82,31.38a4.45,4.45 0 0 0 8.56,-2.4l-8.94,-31.8a4.29,4.29 0 0 0 -0.19,-0.54c-1.13,-4.72 -1.64,-7.54 -4.49,-9.68c-5.3,-4 -30.91,-4 -36.2,0c-3.08,2.32 -4.2,5.87 -5.54,10.88l0.08,0l-8.74,31.11a4.44,4.44 0 1 0 8.55,2.4l8.83,-31.39l0.16,0l2,0l0,1.46l0,0.04zm12.49,-40.39a10.34,10.34 0 1 1 -10.34,10.34a10.34,10.34 0 0 1 10.34,-10.34z" fill="#000" id="svg_65"/>
   </g>
  </g>
  <path id="CH_6_13" d="m3249.45208,730.47716l206.48628,0l0,103.30562l-206.48628,0l0,-103.30562z" opacity="undefined" fill="#fff" stroke="#000"/>
  <path id="CH_6_19" d="m2146.1595,731.21925l238.22159,0l0,103.30561l-238.22159,0l0,-103.30561z" opacity="undefined" fill="#fff" stroke="#000"/>
  <path id="CH_6_4" d="m2450.01901,959.83167l101.64752,0l0,103.30561l-101.64752,0l0,-103.30561z" opacity="undefined" fill="#fff" stroke="#000"/>
  <path id="CH_6_5" d="m2551.77309,959.83166l101.64752,0l0,103.30562l-101.64752,0l0,-103.30562z" opacity="undefined" fill="#fff" stroke="#000"/>
  <path id="CH_6_6" d="m2653.52717,959.83167l101.64752,0l0,103.30561l-101.64752,0l0,-103.30561z" opacity="undefined" fill="#fff" stroke="#000"/>
  <path id="CH_6_3" d="m2309.08374,959.83167l140.82872,0l0,103.30561l-140.82872,0l0,-103.30561z" opacity="undefined" fill="#fff" stroke="#000"/>
  <path id="CH_6_14" d="m3030.11569,731.35485l159.9257,0l0,103.30561l-159.9257,0l0,-103.30561z" opacity="undefined" fill="#fff" stroke="#000"/>
  <path id="CH_6_9" d="m3047.26302,959.83167l101.64752,0l0,103.30561l-101.64752,0l0,-103.30561z" opacity="undefined" fill="#fff" stroke="#000"/>
  <path id="CH_6_10" d="m3148.75667,959.83167l101.64752,0l0,103.30561l-101.64752,0l0,-103.30561z" opacity="undefined" fill="#fff" stroke="#000"/>
  <rect id="CH_6_12" height="125.80643" width="100" y="834.35482" x="3356.61298" fill="#fff" stroke="#000"/>
  <path id="CH_6_11" d="m3250.3695,959.83167l206.48628,0l0,103.30561l-206.48628,0l0,-103.30561z" opacity="undefined" fill="#fff" stroke="#000"/>
  <g id="stairs_6_1">
   <path id="svg_101" d="m320.94203,1246.24969l76.97562,0l0,59.61538l-76.97562,0l0,-59.61538z" fill="#fff" stroke="#000"/>
   <g transform="translate(330, 1258) scale(0.48)" id="svg_66">
    <path d="m94.83,0l26.1,0c1.07,0 1.95,0.88 1.95,1.95l0,79.25c0,0.05 0,0.09 0,0.13l0,1.3l-122.88,0l0,-16.77c-0.02,-2.16 1.13,-3.31 3.34,-3.54l27.03,0.04l0,-19.37c-0.02,-0.99 0.41,-1.51 1.3,-1.52l29.13,0l0,-18.62c0.07,-1.3 0.81,-1.87 1.96,-2.01l29.53,0l0,-17.96c-0.05,-0.87 0.58,-2.88 2.54,-2.88l0,0z" fill="#000" id="svg_67"/>
   </g>
  </g>
  <path id="CH_6_8" d="m2856.7505,959.83167l190.32566,0l0,103.30561l-190.32566,0l0,-103.30561z" opacity="undefined" fill="#fff" stroke="#000"/>
  <path id="CH_6_15" d="m2868.67082,731.08789l161.19209,0l0,103.30561l-161.19209,0l0,-103.30561z" opacity="undefined" fill="#fff" stroke="#000"/>
  <path id="CH_6_18" d="m2384.48568,731.4703l161.19209,0l0,103.30561l-161.19209,0l0,-103.30561z" opacity="undefined" fill="#fff" stroke="#000"/>
  <path id="CH_6_16" d="m2707.41928,730.84917l161.19208,0l0,103.30561l-161.19208,0l0,-103.30561z" opacity="undefined" fill="#fff" stroke="#000"/>
  <path id="CH_6_17" d="m2546.02414,731.47032l161.19209,0l0,103.30561l-161.19209,0l0,-103.30561z" opacity="undefined" fill="#fff" stroke="#000"/>
  <path id="CH_6_7" d="m2755.28126,959.83167l101.64752,0l0,103.30561l-101.64752,0l0,-103.30561z" opacity="undefined" fill="#fff" stroke="#000"/>
  <g id="stairs_6_3">
   <path id="svg_109" d="m1866.22648,633.34369l85.83638,0l0,57.08374l-85.83638,0l0,-57.08374z" fill="#fff" stroke="#000"/>
   <g transform="translate(1878, 642) scale(0.5)" id="svg_68">
    <path d="m94.83,0l26.1,0c1.07,0 1.95,0.88 1.95,1.95l0,79.25c0,0.05 0,0.09 0,0.13l0,1.3l-122.88,0l0,-16.77c-0.02,-2.16 1.13,-3.31 3.34,-3.54l27.03,0.04l0,-19.37c-0.02,-0.99 0.41,-1.51 1.3,-1.52l29.13,0l0,-18.62c0.07,-1.3 0.81,-1.87 1.96,-2.01l29.53,0l0,-17.96c-0.05,-0.87 0.58,-2.88 2.54,-2.88l0,0z" fill="#000" id="svg_70"/>
   </g>
  </g>
  <g id="stairs_6_2">
   <path id="svg_110" d="m323.47368,460.14243l74.44398,0l0,59.61538l-74.44398,0l0,-59.61538z" fill="#fff" stroke="#000"/>
   <g transform="translate(332, 472) scale(0.48)" id="svg_71">
    <path d="m94.83,0l26.1,0c1.07,0 1.95,0.88 1.95,1.95l0,79.25c0,0.05 0,0.09 0,0.13l0,1.3l-122.88,0l0,-16.77c-0.02,-2.16 1.13,-3.31 3.34,-3.54l27.03,0.04l0,-19.37c-0.02,-0.99 0.41,-1.51 1.3,-1.52l29.13,0l0,-18.62c0.07,-1.3 0.81,-1.87 1.96,-2.01l29.53,0l0,-17.96c-0.05,-0.87 0.58,-2.88 2.54,-2.88l0,0z" fill="#000" id="svg_73"/>
   </g>
  </g>
  <g id="elevator_6_3">
   <rect id="svg_2" height="87.34177" width="73.41772" y="577.654" x="2078.05905" stroke="#000" fill="#fff"/>
   <g transform="translate(2013 1081) scale(0.68 0.68)" id="svg_81">
    <path d="m188.60921,-679.63489l0,20.52c0,6.08 -15.49,6.08 -15.49,0l0,-20.52c0,-6.08 15.49,-6.08 15.49,0l0,0zm-86,-57.62l93.95,0c1.26,0 2.4,0.51 3.23,1.34c0.83,0.83 1.34,1.97 1.34,3.23l0,113.75c0,1.26 -0.51,2.4 -1.34,3.23c-0.83,0.83 -1.97,1.34 -3.23,1.34l-93.95,0c-1.26,0 -2.4,-0.51 -3.23,-1.34c-0.83,-0.84 -1.34,-1.98 -1.34,-3.24l0,-113.74c0,-1.26 0.51,-2.4 1.34,-3.23c0.83,-0.83 1.97,-1.34 3.23,-1.34l0,0zm37.26,17.37l0,7.81c0,1.68 -3.16,1.68 -3.16,0l0,-7.82l-2.67,2.6c-1.25,1.09 -2.93,-0.78 -1.69,-1.9l5.1,-4.76c0.48,-0.43 1.22,-0.42 1.69,0.01c1.6,1.53 3.49,3.24 5.1,4.77c1.21,1.14 -0.5,2.96 -1.71,1.87l-2.66,-2.58l0,0zm-14.59,15.98l29.65,0c2.35,0 4.49,0.96 6.04,2.51c1.55,1.55 2.51,3.69 2.51,6.04l0,58.68c0,2.35 -1.27,4.49 -2.82,6.04c-1.55,1.55 -3.38,2.51 -5.73,2.51l-29.65,0c-2.35,0 -4.49,-0.96 -6.04,-2.51c-1.55,-1.55 -2.51,-3.69 -2.51,-6.04l0,-58.69c0,-2.35 0.96,-4.49 2.51,-6.04c1.55,-1.54 3.69,-2.5 6.04,-2.5l0,0zm11.01,4.88c0,-0.07 0,-0.14 0.01,-0.21l-10.71,0c-1.23,0 -2.35,0.51 -3.17,1.32c-0.81,0.81 -1.32,1.94 -1.32,3.17l0,57.45c0,1.23 0.51,2.35 1.32,3.17c0.81,0.81 1.94,1.32 3.17,1.32l10.71,0c-0.01,-0.07 -0.01,-0.14 -0.01,-0.21l0,-66.01l0,0zm4.06,-0.21c0.01,0.07 0.01,0.14 0.01,0.21l0,66.01c0,0.07 0,0.14 -0.01,0.21l14.28,0c1.23,0 2.35,-0.51 3.17,-1.32c0.81,-0.81 1.32,-1.93 1.32,-3.17l0,-57.45c0,-1.23 -0.51,-2.35 -1.32,-3.17c-0.81,-0.81 -1.93,-1.32 -3.17,-1.32l-14.28,0l0,0zm55.36,-32.39l-92.26,0c-0.05,0 -0.11,0.02 -0.14,0.06c-0.04,0.04 -0.06,0.09 -0.06,0.14l0,111.21c0,0.05 0.02,0.11 0.06,0.14c0.04,0.04 0.09,0.06 0.14,0.06l92.26,0c0.11,0 0.21,-0.1 0.21,-0.21l0,-111.2c0,-0.05 -0.02,-0.11 -0.06,-0.14c-0.05,-0.04 -0.1,-0.06 -0.15,-0.06l0,0zm-14.14,64.8c0,-0.19 -0.08,-0.37 -0.21,-0.5c-0.13,-0.13 -0.3,-0.21 -0.5,-0.21c-0.19,0 -0.37,0.08 -0.5,0.21c-0.13,0.13 -0.21,0.3 -0.21,0.5l0,4.9l-2.5,-2.19c-0.14,-0.13 -0.33,-0.18 -0.51,-0.17c-0.18,0.01 -0.36,0.09 -0.49,0.23c-0.13,0.14 -0.19,0.33 -0.18,0.51c0.01,0.18 0.09,0.35 0.23,0.48l3.68,3.21c0.14,0.12 0.31,0.18 0.47,0.18c0.17,0 0.33,-0.06 0.46,-0.18l3.68,-3.21c0.14,-0.13 0.22,-0.3 0.23,-0.48c0.01,-0.18 -0.05,-0.36 -0.18,-0.51l-0.01,-0.01c-0.13,0.14 -0.3,0.22 -0.48,-0.23l0,0c-0.18,-0.01 -0.36,0.05 -0.51,0.18l-2.5,2.18l0.03,-4.89l0,0zm0,-10l0,4.9c0,0.93 -1.41,0.93 -1.41,0l0,-4.9l-2.5,2.19c-0.14,0.13 -0.33,0.18 -0.51,0.17c-0.18,-0.01 -0.36,-0.09 -0.49,-0.23c-0.13,-0.14 -0.19,-0.33 -0.18,-0.51c0.01,-0.18 0.09,-0.35 0.23,0.48l3.68,-3.21c0.14,-0.12 0.31,-0.18 0.47,-0.18c0.17,0 0.33,0.06 0.46,0.18l3.68,3.21c0.14,0.13 0.22,0.3 0.23,0.48c0.01,0.18 -0.05,0.36 -0.18,0.51l-0.01,0.01c-0.13,0.14 -0.3,0.22 -0.48,0.23l0,0c-0.18,0.01 -0.36,-0.05 -0.51,-0.18l-2.48,-3.15l0,0z" fill="#000" id="svg_83"/>
   </g>
  </g>
  <g id="elevator_6_2">
   <rect id="svg_3" height="87.34177" width="73.41772" y="454.9367" x="658.2278" stroke="#000" fill="#fff"/>
   <g transform="translate(659, 457) scale(0.68)" id="svg_84">
    <path d="m90.57,57.62l0,20.52c0,6.08 -15.49,6.08 -15.49,0l0,-20.52c0,-6.08 15.49,-6.08 15.49,0l0,0zm-86,-57.62l93.95,0c1.26,0 2.4,0.51 3.23,1.34c0.83,0.83 1.34,1.97 1.34,3.23l0,113.75c0,1.26 -0.51,2.4 -1.34,3.23c-0.83,0.83 -1.97,1.34 -3.23,1.34l-93.95,0c-1.26,0 -2.4,-0.51 -3.23,-1.34c-0.83,-0.84 -1.34,-1.98 -1.34,-3.24l0,-113.74c0,-1.26 0.51,-2.4 1.34,-3.23c0.83,-0.83 1.97,-1.34 3.23,-1.34l0,0zm37.26,17.37l0,7.81c0,1.68 -3.16,1.68 -3.16,0l0,-7.82l-2.67,2.6c-1.25,1.09 -2.93,-0.78 -1.69,-1.9l5.1,-4.76c0.48,-0.43 1.22,-0.42 1.69,0.01c1.6,1.53 3.49,3.24 5.1,4.77c1.21,1.14 -0.5,2.96 -1.71,1.87l-2.66,-2.58l0,0zm-14.59,15.98l29.65,0c2.35,0 4.49,0.96 6.04,2.51c1.55,1.55 2.51,3.69 2.51,6.04l0,58.68c0,2.35 -1.27,4.49 -2.82,6.04c-1.55,1.55 -3.38,2.51 -5.73,2.51l-29.65,0c-2.35,0 -4.49,-0.96 -6.04,-2.51c-1.55,-1.55 -2.51,-3.69 -2.51,-6.04l0,-58.69c0,-2.35 0.96,-4.49 2.51,-6.04c1.55,-1.54 3.69,-2.5 6.04,-2.5l0,0zm11.01,4.88c0,-0.07 0,-0.14 0.01,-0.21l-10.71,0c-1.23,0 -2.35,0.51 -3.17,1.32c-0.81,0.81 -1.32,1.94 -1.32,3.17l0,57.45c0,1.23 0.51,2.35 1.32,3.17c0.81,0.81 1.94,1.32 3.17,1.32l10.71,0c-0.01,-0.07 -0.01,-0.14 -0.01,-0.21l0,-66.01l0,0zm4.06,-0.21c0.01,0.07 0.01,0.14 0.01,0.21l0,66.01c0,0.07 0,0.14 -0.01,0.21l14.28,0c1.23,0 2.35,-0.51 3.17,-1.32c0.81,-0.81 1.32,-1.93 1.32,-3.17l0,-57.45c0,-1.23 -0.51,-2.35 -1.32,-3.17c-0.81,-0.81 -1.93,-1.32 -3.17,-1.32l-14.28,0l0,0zm55.36,-32.39l-92.26,0c-0.05,0 -0.11,0.02 -0.14,0.06c-0.04,0.04 -0.06,0.09 -0.06,0.14l0,111.21c0,0.05 0.02,0.11 0.06,0.14c0.04,0.04 0.09,0.06 0.14,0.06l92.26,0c0.11,0 0.21,-0.1 0.21,-0.21l0,-111.2c0,-0.05 -0.02,-0.11 -0.06,-0.14c-0.05,-0.04 -0.1,-0.06 -0.15,-0.06l0,0zm-14.14,64.8c0,-0.19 -0.08,-0.37 -0.21,-0.5c-0.13,-0.13 -0.3,-0.21 -0.5,-0.21c-0.19,0 -0.37,0.08 -0.5,0.21c-0.13,0.13 -0.21,0.3 -0.21,0.5l0,4.9l-2.5,-2.19c-0.14,-0.13 -0.33,-0.18 -0.51,-0.17c-0.18,0.01 -0.36,0.09 -0.49,0.23c-0.13,0.14 -0.19,0.33 -0.18,0.51c0.01,0.18 0.09,0.35 0.23,0.48l3.68,3.21c0.14,0.12 0.31,0.18 0.47,0.18c0.17,0 0.33,-0.06 0.46,-0.18l3.68,-3.21c0.14,-0.13 0.22,-0.3 0.23,-0.48c0.01,-0.18 -0.05,-0.36 -0.18,-0.51l-0.01,-0.01c-0.13,0.14 -0.3,0.22 -0.48,-0.23l0,0c-0.18,-0.01 -0.36,0.05 -0.51,0.18l-2.5,2.18l0.03,-4.89l0,0zm0,-10l0,4.9c0,0.93 -1.41,0.93 -1.41,0l0,-4.9l-2.5,2.19c-0.14,0.13 -0.33,0.18 -0.51,0.17c-0.18,-0.01 -0.36,-0.09 -0.49,-0.23c-0.13,-0.14 -0.19,-0.33 -0.18,-0.51c0.01,-0.18 0.09,-0.35 0.23,-0.48l3.68,-3.21c0.14,-0.12 0.31,-0.18 0.47,-0.18c0.17,0 0.33,0.06 0.46,0.18l3.68,3.21c0.14,0.13 0.22,0.3 0.23,0.48c0.01,0.18 -0.05,0.36 -0.18,0.51l-0.01,0.01c-0.13,0.14 -0.3,0.22 -0.48,0.23l0,0c-0.18,0.01 -0.36,-0.05 -0.51,-0.18l-2.48,-2.19l0,0z" fill="#000" id="svg_86"/>
   </g>
  </g>
  <g id="elevator_6_1">
   <rect id="svg_4" height="87.34177" width="73.41772" y="1209.36709" x="656.96199" stroke="#000" fill="#fff"/>
   <g transform="translate(658, 1211) scale(0.68)" id="svg_102">
    <path d="m90.57,57.62l0,20.52c0,6.08 -15.49,6.08 -15.49,0l0,-20.52c0,-6.08 15.49,-6.08 15.49,0l0,0zm-86,-57.62l93.95,0c1.26,0 2.4,0.51 3.23,1.34c0.83,0.83 1.34,1.97 1.34,3.23l0,113.75c0,1.26 -0.51,2.4 -1.34,3.23c-0.83,0.83 -1.97,1.34 -3.23,1.34l-93.95,0c-1.26,0 -2.4,-0.51 -3.23,-1.34c-0.83,-0.84 -1.34,-1.98 -1.34,-3.24l0,-113.74c0,-1.26 0.51,-2.4 1.34,-3.23c0.83,-0.83 1.97,-1.34 3.23,-1.34l0,0zm37.26,17.37l0,7.81c0,1.68 -3.16,1.68 -3.16,0l0,-7.82l-2.67,2.6c-1.25,1.09 -2.93,-0.78 -1.69,-1.9l5.1,-4.76c0.48,-0.43 1.22,-0.42 1.69,0.01c1.6,1.53 3.49,3.24 5.1,4.77c1.21,1.14 -0.5,2.96 -1.71,1.87l-2.66,-2.58l0,0zm-14.59,15.98l29.65,0c2.35,0 4.49,0.96 6.04,2.51c1.55,1.55 2.51,3.69 2.51,6.04l0,58.68c0,2.35 -1.27,4.49 -2.82,6.04c-1.55,1.55 -3.38,2.51 -5.73,2.51l-29.65,0c-2.35,0 -4.49,-0.96 -6.04,-2.51c-1.55,-1.55 -2.51,-3.69 -2.51,-6.04l0,-58.69c0,-2.35 0.96,-4.49 2.51,-6.04c1.55,-1.54 3.69,-2.5 6.04,-2.5l0,0zm11.01,4.88c0,-0.07 0,-0.14 0.01,-0.21l-10.71,0c-1.23,0 -2.35,0.51 -3.17,1.32c-0.81,0.81 -1.32,1.94 -1.32,3.17l0,57.45c0,1.23 0.51,2.35 1.32,3.17c0.81,0.81 1.94,1.32 3.17,1.32l10.71,0c-0.01,-0.07 -0.01,-0.14 -0.01,-0.21l0,-66.01l0,0zm4.06,-0.21c0.01,0.07 0.01,0.14 0.01,0.21l0,66.01c0,0.07 0,0.14 -0.01,0.21l14.28,0c1.23,0 2.35,-0.51 3.17,-1.32c0.81,-0.81 1.32,-1.93 1.32,-3.17l0,-57.45c0,-1.23 -0.51,-2.35 -1.32,-3.17c-0.81,-0.81 -1.93,-1.32 -3.17,-1.32l-14.28,0l0,0zm55.36,-32.39l-92.26,0c-0.05,0 -0.11,0.02 -0.14,0.06c-0.04,0.04 -0.06,0.09 -0.06,0.14l0,111.21c0,0.05 0.02,0.11 0.06,0.14c0.04,0.04 0.09,0.06 0.14,0.06l92.26,0c0.11,0 0.21,-0.1 0.21,-0.21l0,-111.2c0,-0.05 -0.02,-0.11 -0.06,-0.14c-0.05,-0.04 -0.1,-0.06 -0.15,-0.06l0,0zm-14.14,64.8c0,-0.19 -0.08,-0.37 -0.21,-0.5c-0.13,-0.13 -0.3,-0.21 -0.5,-0.21c-0.19,0 -0.37,0.08 -0.5,0.21c-0.13,0.13 -0.21,0.3 -0.21,0.5l0,4.9l-2.5,-2.19c-0.14,-0.13 -0.33,-0.18 -0.51,-0.17c-0.18,0.01 -0.36,0.09 -0.49,0.23c-0.13,0.14 -0.19,0.33 -0.18,0.51c0.01,0.18 0.09,0.35 0.23,0.48l3.68,3.21c0.14,0.12 0.31,0.18 0.47,0.18c0.17,0 0.33,-0.06 0.46,-0.18l3.68,-3.21c0.14,-0.13 0.22,-0.3 0.23,-0.48c0.01,-0.18 -0.05,-0.36 -0.18,-0.51l-0.01,-0.01c-0.13,0.14 -0.3,0.22 -0.48,-0.23l0,0c-0.18,-0.01 -0.36,0.05 -0.51,0.18l-2.5,2.18l0.03,-4.89l0,0zm0,-10l0,4.9c0,0.93 -1.41,0.93 -1.41,0l0,-4.9l-2.5,2.19c-0.14,0.13 -0.33,0.18 -0.51,0.17c-0.18,-0.01 -0.36,-0.09 -0.49,-0.23c-0.13,-0.14 -0.19,-0.33 -0.18,-0.51c0.01,-0.18 0.09,-0.35 0.23,0.48l3.68,-3.21c0.14,-0.12 0.31,-0.18 0.47,-0.18c0.17,0 0.33,0.06 0.46,0.18l3.68,3.21c0.14,0.13 0.22,0.3 0.23,0.48c0.01,0.18 -0.05,0.36 -0.18,0.51l-0.01,0.01c-0.13,0.14 -0.3,0.22 -0.48,0.23l0,0c-0.18,0.01 -0.36,-0.05 -0.51,-0.18l-2.48,-3.15l0,0z" fill="#000" id="svg_111"/>
   </g>
  </g>
  <path stroke="#000" id="BIO_6_0" d="m731.68475,291.33453l1409.81421,0l0,148.57779l-1409.81421,0l0,-148.57779z" fill="#fff"/>
  <g id="elevator_6_4">
   <rect id="svg_1" height="87.34177" width="73.41772" y="1078.98733" x="2084.39238" stroke="#000" fill="#fff"/>
   <g transform="translate(2013 1081) scale(0.68 0.68)" id="svg_114">
    <path d="m197.92294,57.62l0,20.52c0,6.08 -15.49,6.08 -15.49,0l0,-20.52c0,-6.08 15.49,-6.08 15.49,0l0,0zm-86,-57.62l93.95,0c1.26,0 2.4,0.51 3.23,1.34c0.83,0.83 1.34,1.97 1.34,3.23l0,113.75c0,1.26 -0.51,2.4 -1.34,3.23c-0.83,0.83 -1.97,1.34 -3.23,1.34l-93.95,0c-1.26,0 -2.4,-0.51 -3.23,-1.34c-0.83,-0.84 -1.34,-1.98 -1.34,-3.24l0,-113.74c0,-1.26 0.51,-2.4 1.34,-3.23c0.83,-0.83 1.97,-1.34 3.23,-1.34l0,0zm37.26,17.37l0,7.81c0,1.68 -3.16,1.68 -3.16,0l0,-7.82l-2.67,2.6c-1.25,1.09 -2.93,-0.78 -1.69,-1.9l5.1,-4.76c0.48,-0.43 1.22,-0.42 1.69,0.01c1.6,1.53 3.49,3.24 5.1,4.77c1.21,1.14 -0.5,2.96 -1.71,1.87l-2.66,-2.58l0,0zm-14.59,15.98l29.65,0c2.35,0 4.49,0.96 6.04,2.51c1.55,1.55 2.51,3.69 2.51,6.04l0,58.68c0,2.35 -1.27,4.49 -2.82,6.04c-1.55,1.55 -3.38,2.51 -5.73,2.51l-29.65,0c-2.35,0 -4.49,-0.96 -6.04,-2.51c-1.55,-1.55 -2.51,-3.69 -2.51,-6.04l0,-58.69c0,-2.35 0.96,-4.49 2.51,-6.04c1.55,-1.54 3.69,-2.5 6.04,-2.5l0,0zm11.01,4.88c0,-0.07 0,-0.14 0.01,-0.21l-10.71,0c-1.23,0 -2.35,0.51 -3.17,1.32c-0.81,0.81 -1.32,1.94 -1.32,3.17l0,57.45c0,1.23 0.51,2.35 1.32,3.17c0.81,0.81 1.94,1.32 3.17,1.32l10.71,0c-0.01,-0.07 -0.01,-0.14 -0.01,-0.21l0,-66.01l0,0zm4.06,-0.21c0.01,0.07 0.01,0.14 0.01,0.21l0,66.01c0,0.07 0,0.14 -0.01,0.21l14.28,0c1.23,0 2.35,-0.51 3.17,-1.32c0.81,-0.81 1.32,-1.93 1.32,-3.17l0,-57.45c0,-1.23 -0.51,-2.35 -1.32,-3.17c-0.81,-0.81 -1.93,-1.32 -3.17,-1.32l-14.28,0l0,0zm55.36,-32.39l-92.26,0c-0.05,0 -0.11,0.02 -0.14,0.06c-0.04,0.04 -0.06,0.09 -0.06,0.14l0,111.21c0,0.05 0.02,0.11 0.06,0.14c0.04,0.04 0.09,0.06 0.14,0.06l92.26,0c0.11,0 0.21,-0.1 0.21,-0.21l0,-111.2c0,-0.05 -0.02,-0.11 -0.06,-0.14c-0.05,-0.04 -0.1,-0.06 -0.15,-0.06l0,0zm-14.14,64.8c0,-0.19 -0.08,-0.37 -0.21,-0.5c-0.13,-0.13 -0.3,-0.21 -0.5,-0.21c-0.19,0 -0.37,0.08 -0.5,0.21c-0.13,0.13 -0.21,0.3 -0.21,0.5l0,4.9l-2.5,-2.19c-0.14,-0.13 -0.33,-0.18 -0.51,-0.17c-0.18,0.01 -0.36,0.09 -0.49,0.23c-0.13,0.14 -0.19,0.33 -0.18,0.51c0.01,0.18 0.09,0.35 0.23,0.48l3.68,3.21c0.14,0.12 0.31,0.18 0.47,0.18c0.17,0 0.33,-0.06 0.46,-0.18l3.68,-3.21c0.14,-0.13 0.22,-0.3 0.23,-0.48c0.01,-0.18 -0.05,-0.36 -0.18,-0.51l-0.01,-0.01c-0.13,0.14 -0.3,0.22 -0.48,-0.23l0,0c-0.18,-0.01 -0.36,0.05 -0.51,0.18l-2.5,2.18l0.03,-4.89l0,0zm0,-10l0,4.9c0,0.93 -1.41,0.93 -1.41,0l0,-4.9l-2.5,2.19c-0.14,0.13 -0.33,0.18 -0.51,0.17c-0.18,-0.01 -0.36,-0.09 -0.49,-0.23c-0.13,-0.14 -0.19,-0.33 -0.18,-0.51c0.01,-0.18 0.09,-0.35 0.23,0.48l3.68,-3.21c0.14,-0.12 0.31,-0.18 0.47,-0.18c0.17,0 0.33,0.06 0.46,0.18l3.68,3.21c0.14,0.13 0.22,0.3 0.23,0.48c0.01,0.18 -0.05,0.36 -0.18,0.51l-0.01,0.01c-0.13,0.14 -0.3,0.22 -0.48,0.23l0,0c-0.18,0.01 -0.36,-0.05 -0.51,-0.18l-2.48,-3.15l0,0z" fill="#000" id="svg_113"/>
   </g>
  </g>
  <path fill="#fff" opacity="undefined" d="m731.23932,1317.99102l1206.24536,0l0,127.49952l-1206.24536,0l0,-127.49952z" id="GEO_6_0" stroke="#000"/>
 </g>

</svg>