<svg width="3999.9999999999995" height="1999.9999999999998" xmlns="http://www.w3.org/2000/svg" stroke="null">
 <g stroke="null">
  <title stroke="null">Layer 1</title>
  <rect id="MA_4_12" height="83" width="103.15789" y="708.08263" x="398.39459" fill="#fff" stroke="#000"/>
  <rect id="nexus_4_1" height="339.1228" width="332.49326" y="1209.77781" x="398.17335" fill="#fff" stroke="#000"/>
  <path id="nexus_4_2" d="m398.21045,187.89045l333.33334,0l0,354.34356l-333.33334,0l0,-354.34356z" opacity="undefined" fill="#fff" stroke="#000"/>
  <rect id="MA_4_0" height="666.47739" width="125.50016" y="542.74495" x="501.69964" fill="#fff" stroke="#000"/>
  <g id="MA_4_8">
   <path id="svg_23" d="m627.42272,624.17348l103.1579,0l0,81.81555l-103.1579,0l0,-81.81555z" fill="#fff" stroke="#000"/>
   <g transform="rotate(90 677.577 660.814) translate(670 630) scale(0.6 0.6)" id="svg_6">
    <path d="m22.06794,-3.04411a10.34,10.34 0 1 1 -10.34,10.34a10.34,10.34 0 0 1 10.34,-10.34zm13.07,38.93l0,78.23a5.74,5.74 0 0 1 -5.72,5.72l0,0a5.73,5.73 0 0 1 -5.72,-5.72l0,-46l-3.11,0l0,46a5.74,5.74 0 0 1 -5.72,5.72l0,0a5.74,5.74 0 0 1 -5.72,-5.72l0,-78.23l-2,0l0,28.75c0,5.73 -8.67,5.73 -8.67,0l0,-30.94c0,-5 1.69,-8.56 4.77,-10.88c5.3,-4 32.33,-4 37.63,0c3.08,2.32 4.79,5.85 4.78,10.88l0,30.94c0,5.73 -8.68,5.73 -8.68,0l0,-28.75l-1.84,0z" fill="#000" id="svg_9"/>
   </g>
  </g>
  <g id="GEO_4_1">
   <path transform="rotate(90 772.371 1497.14)" id="svg_24" d="m720.7921,1456.23387l103.1579,0l0,81.81555l-103.1579,0l0,-81.81555z" fill="#fff" stroke="#000"/>
   <g transform="translate(760, 1465) scale(0.6)" id="svg_10">
    <path d="m23.59,0a10.34,10.34 0 1 1 -10.34,10.34a10.34,10.34 0 0 1 10.34,-10.34zm13.07,38.93l0,78.23a5.74,5.74 0 0 1 -5.72,5.72l0,0a5.73,5.73 0 0 1 -5.72,-5.72l0,-46l-3.11,0l0,46a5.74,5.74 0 0 1 -5.72,5.72l0,0a5.74,5.74 0 0 1 -5.72,-5.72l0,-78.23l-2,0l0,28.75c0,5.73 -8.67,5.73 -8.67,0l0,-30.94c0,-5 1.69,-8.56 4.77,-10.88c5.3,-4 32.33,-4 37.63,0c3.08,2.32 4.79,5.85 4.78,10.88l0,30.94c0,5.73 -8.68,5.73 -8.68,0l0,-28.75l-1.84,0z" fill="#000" id="svg_17"/>
   </g>
  </g>
  <g stroke="null" id="GEO_4_2">
   <path transform="rotate(90 854.913 1497.04)" stroke="#000" id="svg_32" d="m803.33363,1455.86939l103.1579,0l0,82.34185l-103.1579,0l0,-82.34185z" fill="#fff"/>
   <g stroke="null" transform="translate(835, 1465) scale(0.55)" id="svg_20">
    <path stroke="null" d="m19.71,40.39l-12.47,51.61l12.47,0l0,25.13a5.73,5.73 0 0 0 5.72,5.72l0,0a5.73,5.73 0 0 0 5.71,-5.72l0,-25.13l2.26,0l0,25.13a5.73,5.73 0 0 0 5.71,5.72l0,0a5.73,5.73 0 0 0 5.72,-5.72l0,-25.13l11.77,0l-11.77,-50.27l0,-2.8l1.85,0l0.13,0l8.82,31.38a4.45,4.45 0 0 0 8.56,-2.4l-8.94,-31.8a4.29,4.29 0 0 0 -0.19,-0.54c-1.13,-4.72 -1.64,-7.54 -4.49,-9.68c-5.3,-4 -30.91,-4 -36.2,0c-3.08,2.32 -4.2,5.87 -5.54,10.88l0.08,0l-8.74,31.11a4.44,4.44 0 1 0 8.55,2.4l8.83,-31.39l0.16,0l2,0l0,1.46l0,0.04zm12.49,-40.39a10.34,10.34 0 1 1 -10.34,10.34a10.34,10.34 0 0 1 10.34,-10.34z" fill="#000" id="svg_26"/>
   </g>
  </g>
  <rect id="GEO_4_6" height="102.66667" width="148" y="1445.99318" x="1339.87485" fill="#fff" stroke="#000"/>
  <rect id="GEO_4_13" height="102.66667" width="247.61946" y="1215.80307" x="1689.57414" fill="#fff" stroke="#000"/>
  <rect id="GEO_4_15" height="102.66667" width="242.49252" y="1215.83915" x="1209.17567" fill="#fff" stroke="#000"/>
  <rect stroke="#000" id="GEO_4_17" height="102.66667" width="241" y="1215.83915" x="730.29073" fill="#fff"/>
  <g id="stairs_4_5" stroke="null">
   <path id="svg_41" d="m3249.31738,751.51901l0,82.78138l-59.61538,0l0,-82.78138l59.61538,0z" fill="#fff" stroke="#000"/>
   <g transform="translate(3195 790) scale(0.42 0.42)" id="svg_38" stroke="null">
    <path d="m94.83,-6.57406l26.1,0c1.07,0 1.95,0.88323 1.95,1.95716l0,79.54117c0,0.05018 0,0.09033 0,0.13048l0,1.30478l-122.88,0l0,-16.83161c-0.02,-2.16794 1.13,-3.32216 3.34,-3.55301l27.03,0.04015l0,-19.44117c-0.02,-0.99364 0.41,-1.51555 1.3,-1.52558l29.13,0l0,-18.68841c0.07,-1.30478 0.81,-1.87687 1.96,-2.01738l29.53,0l0,-18.02599c-0.05,-0.8732 0.58,-2.89058 2.54,-2.89058l0,0l0,-0.00001z" fill="#000" id="svg_39" stroke="null"/>
   </g>
  </g>
  <g id="MA_4_9">
   <path id="svg_44" d="m627.42272,542.42009l103.1579,0l0,81.81555l-103.1579,0l0,-81.81555z" fill="#fff" stroke="#000"/>
   <g transform="rotate(90 685.417 584.135) translate(670 555) scale(0.55 0.55)" id="svg_42">
    <path d="m18.04957,38.72957l-12.47,51.61l12.47,0l0,25.13a5.73,5.73 0 0 0 5.72,5.72l0,0a5.73,5.73 0 0 0 5.71,-5.72l0,-25.13l2.26,0l0,25.13a5.73,5.73 0 0 0 5.71,5.72l0,0a5.73,5.73 0 0 0 5.72,-5.72l0,-25.13l11.77,0l-11.77,-50.27l0,-2.8l1.85,0l0.13,0l8.82,31.38a4.45,4.45 0 0 0 8.56,-2.4l-8.94,-31.8a4.29,4.29 0 0 0 -0.19,-0.54c-1.13,-4.72 -1.64,-7.54 -4.49,-9.68c-5.3,-4 -30.91,-4 -36.2,0c-3.08,2.32 -4.2,5.87 -5.54,10.88l0.08,0l-8.74,31.11a4.44,4.44 0 1 0 8.55,2.4l8.83,-31.39l0.16,0l2,0l0,1.46l0,0.04zm12.49,-40.39a10.34,10.34 0 1 1 -10.34,10.34a10.34,10.34 0 0 1 10.34,-10.34z" fill="#000" id="svg_43"/>
   </g>
  </g>
  <g id="man-sign-container">
   <path transform="rotate(90 772.764 490.708)" id="BIO_4_1" d="m721.18465,449.80059l103.1579,0l0,81.81555l-103.1579,0l0,-81.81555z" fill="#fff" stroke="#000"/>
   <g transform="translate(760, 455) scale(0.6)" id="svg_47">
    <path d="m23.59,0a10.34,10.34 0 1 1 -10.34,10.34a10.34,10.34 0 0 1 10.34,-10.34zm13.07,38.93l0,78.23a5.74,5.74 0 0 1 -5.72,5.72l0,0a5.73,5.73 0 0 1 -5.72,-5.72l0,-46l-3.11,0l0,46a5.74,5.74 0 0 1 -5.72,5.72l0,0a5.74,5.74 0 0 1 -5.72,-5.72l0,-78.23l-2,0l0,28.75c0,5.73 -8.67,5.73 -8.67,0l0,-30.94c0,-5 1.69,-8.56 4.77,-10.88c5.3,-4 32.33,-4 37.63,0c3.08,2.32 4.79,5.85 4.78,10.88l0,30.94c0,5.73 -8.68,5.73 -8.68,0l0,-28.75l-1.84,0z" fill="#000" id="svg_48"/>
   </g>
  </g>
  <path id="BIO_4_17" d="m969.55981,187.77206l237.60861,0l0,103.61003l-237.60861,0l0,-103.61003z" opacity="undefined" fill="#fff" stroke="#000"/>
  <rect id="BIO_4_14" height="103.19024" width="150" y="188.1643" x="1572.51915" fill="#fff" stroke="#000"/>
  <rect id="BIO_4_16" height="103.42514" width="216.45472" y="188.14392" x="1206.87643" fill="#fff" stroke="#000"/>
  <rect id="BIO_4_13" height="103" width="307.49062" y="188.10384" x="1722.1514" fill="#fff" stroke="#000"/>
  <path id="BIO_4_12" d="m2029.95759,188.04219l188.94556,0l0,103l-188.94556,0l0,-103z" opacity="undefined" fill="#fff" stroke="#000"/>
  <path transform="rotate(90 2180.02 365.684)" stroke="#000" id="BIO_4_11" d="m2105.65571,327.40085l148.72509,0l0,76.56711l-148.72509,0l0,-76.56711z" opacity="undefined" fill="#fff"/>
  <rect stroke="#000" id="BIO_4_10" height="102.53243" width="140.91893" y="439.79692" x="2077.50866" fill="#fff"/>
  <rect stroke="#000" id="nexus_4_5" height="468.84318" width="147.71061" y="1078.90885" x="1937.20404" fill="#fff"/>
  <rect id="BIO_4_3" height="102.25431" width="125.74702" y="440.07285" x="895.93955" fill="#fff" stroke="#000"/>
  <g id="stairs_4_4">
   <path id="svg_79" d="m1854.73096,1109.69293l82.43374,0l0,59.61538l-82.43374,0l0,-59.61538z" fill="#fff" stroke="#000"/>
   <g transform="translate(1866, 1120) scale(0.5)" id="svg_49">
    <path d="m94.83,0l26.1,0c1.07,0 1.95,0.88 1.95,1.95l0,79.25c0,0.05 0,0.09 0,0.13l0,1.3l-122.88,0l0,-16.77c-0.02,-2.16 1.13,-3.31 3.34,-3.54l27.03,0.04l0,-19.37c-0.02,-0.99 0.41,-1.51 1.3,-1.52l29.13,0l0,-18.62c0.07,-1.3 0.81,-1.87 1.96,-2.01l29.53,0l0,-17.96c-0.05,-0.87 0.58,-2.88 2.54,-2.88l0,0z" fill="#000" id="svg_50"/>
   </g>
  </g>
  <rect stroke="#000" id="nexus_4_3" height="276.30138" width="125.21519" y="439.88398" x="1951.86661" fill="#fff"/>
  <rect stroke="#000" id="nexus_4_4" height="362.55146" width="208.14586" y="716.0053" x="1937.88551" fill="#fff"/>
  <rect id="CH_4_0" height="125.00001" width="1209.50331" y="834.42898" x="2146.69604" fill="#fff" stroke="#000"/>
  <g id="BIO_4_2">
   <path transform="rotate(90 854.691 490.653)" id="svg_87" d="m803.11232,449.74573l103.1579,0l0,81.81555l-103.1579,0l0,-81.81555z" fill="#fff" stroke="#000"/>
   <g transform="translate(835, 460) scale(0.55)" id="svg_51">
    <path d="m19.71,40.39l-12.47,51.61l12.47,0l0,25.13a5.73,5.73 0 0 0 5.72,5.72l0,0a5.73,5.73 0 0 0 5.71,-5.72l0,-25.13l2.26,0l0,25.13a5.73,5.73 0 0 0 5.71,5.72l0,0a5.73,5.73 0 0 0 5.72,-5.72l0,-25.13l11.77,0l-11.77,-50.27l0,-2.8l1.85,0l0.13,0l8.82,31.38a4.45,4.45 0 0 0 8.56,-2.4l-8.94,-31.8a4.29,4.29 0 0 0 -0.19,-0.54c-1.13,-4.72 -1.64,-7.54 -4.49,-9.68c-5.3,-4 -30.91,-4 -36.2,0c-3.08,2.32 -4.2,5.87 -5.54,10.88l0.08,0l-8.74,31.11a4.44,4.44 0 1 0 8.55,2.4l8.83,-31.39l0.16,0l2,0l0,1.46l0,0.04zm12.49,-40.39a10.34,10.34 0 1 1 -10.34,10.34a10.34,10.34 0 0 1 10.34,-10.34z" fill="#000" id="svg_52"/>
   </g>
  </g>
  <g id="CH_4_1">
   <path transform="rotate(90 2186.61 1011.41)" id="svg_88" d="m2135.0313,970.50659l103.1579,0l0,81.81555l-103.1579,0l0,-81.81555z" fill="#fff" stroke="#000"/>
   <g transform="translate(2172, 980) scale(0.6)" id="svg_56">
    <path d="m23.59,0a10.34,10.34 0 1 1 -10.34,10.34a10.34,10.34 0 0 1 10.34,-10.34zm13.07,38.93l0,78.23a5.74,5.74 0 0 1 -5.72,5.72l0,0a5.73,5.73 0 0 1 -5.72,-5.72l0,-46l-3.11,0l0,46a5.74,5.74 0 0 1 -5.72,5.72l0,0a5.74,5.74 0 0 1 -5.72,-5.72l0,-78.23l-2,0l0,28.75c0,5.73 -8.67,5.73 -8.67,0l0,-30.94c0,-5 1.69,-8.56 4.77,-10.88c5.3,-4 32.33,-4 37.63,0c3.08,2.32 4.79,5.85 4.78,10.88l0,30.94c0,5.73 -8.68,5.73 -8.68,0l0,-28.75l-1.84,0z" fill="#000" id="svg_60"/>
   </g>
  </g>
  <g id="CH_4_2">
   <path transform="rotate(90 2268.05 1011.38)" id="svg_89" d="m2216.47151,970.47668l103.1579,0l0,81.81555l-103.1579,0l0,-81.81555z" fill="#fff" stroke="#000"/>
   <g transform="translate(2245, 980) scale(0.55)" id="svg_63">
    <path d="m19.71,40.39l-12.47,51.61l12.47,0l0,25.13a5.73,5.73 0 0 0 5.72,5.72l0,0a5.73,5.73 0 0 0 5.71,-5.72l0,-25.13l2.26,0l0,25.13a5.73,5.73 0 0 0 5.71,5.72l0,0a5.73,5.73 0 0 0 5.72,-5.72l0,-25.13l11.77,0l-11.77,-50.27l0,-2.8l1.85,0l0.13,0l8.82,31.38a4.45,4.45 0 0 0 8.56,-2.4l-8.94,-31.8a4.29,4.29 0 0 0 -0.19,-0.54c-1.13,-4.72 -1.64,-7.54 -4.49,-9.68c-5.3,-4 -30.91,-4 -36.2,0c-3.08,2.32 -4.2,5.87 -5.54,10.88l0.08,0l-8.74,31.11a4.44,4.44 0 1 0 8.55,2.4l8.83,-31.39l0.16,0l2,0l0,1.46l0,0.04zm12.49,-40.39a10.34,10.34 0 1 1 -10.34,10.34a10.34,10.34 0 0 1 10.34,-10.34z" fill="#000" id="svg_65"/>
   </g>
  </g>
  <path id="CH_4_14" d="m3249.45208,730.78019l206.48628,0l0,103.60866l-206.48628,0l0,-103.60866z" opacity="undefined" fill="#fff" stroke="#000"/>
  <path id="CH_4_15" d="m2967.96751,731.29243l221.65134,0l0,103.00259l-221.65134,0l0,-103.00259z" opacity="undefined" fill="#fff" stroke="#000"/>
  <path id="CH_4_9" d="m2969.1064,959.83166l135.75619,0l0,103.30562l-135.75619,0l0,-103.30562z" opacity="undefined" fill="#fff" stroke="#000"/>
  <rect id="CH_4_13" height="125.80643" width="100" y="834.35482" x="3356.61298" fill="#fff" stroke="#000"/>
  <path id="CH_4_12" d="m3315.03623,959.83167l141.81953,0l0,103.30561l-141.81953,0l0,-103.30561z" opacity="undefined" fill="#fff" stroke="#000"/>
  <g id="stairs_4_1">
   <path id="svg_101" d="m320.94203,1246.24969l76.97562,0l0,59.61538l-76.97562,0l0,-59.61538z" fill="#fff" stroke="#000"/>
   <g transform="translate(330 1258) scale(0.48 0.48)" id="svg_66">
    <path d="m94.83,0l26.1,0c1.07,0 1.95,0.88 1.95,1.95l0,79.25c0,0.05 0,0.09 0,0.13l0,1.3l-122.88,0l0,-16.77c-0.02,-2.16 1.13,-3.31 3.34,-3.54l27.03,0.04l0,-19.37c-0.02,-0.99 0.41,-1.51 1.3,-1.52l29.13,0l0,-18.62c0.07,-1.3 0.81,-1.87 1.96,-2.01l29.53,0l0,-17.96c-0.05,-0.87 0.58,-2.88 2.54,-2.88l0,0z" fill="#000" id="svg_67"/>
   </g>
  </g>
  <g id="stairs_4_3">
   <path id="svg_109" d="m1866.22648,633.34369l85.83638,0l0,57.08374l-85.83638,0l0,-57.08374z" fill="#fff" stroke="#000"/>
   <g transform="translate(1878, 642) scale(0.5)" id="svg_68">
    <path d="m94.83,0l26.1,0c1.07,0 1.95,0.88 1.95,1.95l0,79.25c0,0.05 0,0.09 0,0.13l0,1.3l-122.88,0l0,-16.77c-0.02,-2.16 1.13,-3.31 3.34,-3.54l27.03,0.04l0,-19.37c-0.02,-0.99 0.41,-1.51 1.3,-1.52l29.13,0l0,-18.62c0.07,-1.3 0.81,-1.87 1.96,-2.01l29.53,0l0,-17.96c-0.05,-0.87 0.58,-2.88 2.54,-2.88l0,0z" fill="#000" id="svg_70"/>
   </g>
  </g>
  <g id="stairs_4_2">
   <path id="svg_110" d="m323.47368,460.14243l74.44398,0l0,59.61538l-74.44398,0l0,-59.61538z" fill="#fff" stroke="#000"/>
   <g transform="translate(332, 472) scale(0.48)" id="svg_71">
    <path d="m94.83,0l26.1,0c1.07,0 1.95,0.88 1.95,1.95l0,79.25c0,0.05 0,0.09 0,0.13l0,1.3l-122.88,0l0,-16.77c-0.02,-2.16 1.13,-3.31 3.34,-3.54l27.03,0.04l0,-19.37c-0.02,-0.99 0.41,-1.51 1.3,-1.52l29.13,0l0,-18.62c0.07,-1.3 0.81,-1.87 1.96,-2.01l29.53,0l0,-17.96c-0.05,-0.87 0.58,-2.88 2.54,-2.88l0,0z" fill="#000" id="svg_73"/>
   </g>
  </g>
  <g id="elevator_4_3">
   <rect id="svg_2" height="87.34177" width="73.41772" y="578.9372" x="2078.16474" stroke="#000" fill="#fff"/>
   <g transform="translate(2013 1081) scale(0.68 0.68)" id="svg_81">
    <path d="m188.76465,-677.74783l0,20.52c0,6.08 -15.49,6.08 -15.49,0l0,-20.52c0,-6.08 15.49,-6.08 15.49,0l0,0zm-86,-57.62l93.95,0c1.26,0 2.4,0.51 3.23,1.34c0.83,0.83 1.34,1.97 1.34,3.23l0,113.75c0,1.26 -0.51,2.4 -1.34,3.23c-0.83,0.83 -1.97,1.34 -3.23,1.34l-93.95,0c-1.26,0 -2.4,-0.51 -3.23,-1.34c-0.83,-0.84 -1.34,-1.98 -1.34,-3.24l0,-113.74c0,-1.26 0.51,-2.4 1.34,-3.23c0.83,-0.83 1.97,-1.34 3.23,-1.34l0,0zm37.26,17.37l0,7.81c0,1.68 -3.16,1.68 -3.16,0l0,-7.82l-2.67,2.6c-1.25,1.09 -2.93,-0.78 -1.69,-1.9l5.1,-4.76c0.48,-0.43 1.22,-0.42 1.69,0.01c1.6,1.53 3.49,3.24 5.1,4.77c1.21,1.14 -0.5,2.96 -1.71,1.87l-2.66,-2.58l0,0zm-14.59,15.98l29.65,0c2.35,0 4.49,0.96 6.04,2.51c1.55,1.55 2.51,3.69 2.51,6.04l0,58.68c0,2.35 -1.27,4.49 -2.82,6.04c-1.55,1.55 -3.38,2.51 -5.73,2.51l-29.65,0c-2.35,0 -4.49,-0.96 -6.04,-2.51c-1.55,-1.55 -2.51,-3.69 -2.51,-6.04l0,-58.69c0,-2.35 0.96,-4.49 2.51,-6.04c1.55,-1.54 3.69,-2.5 6.04,-2.5l0,0zm11.01,4.88c0,-0.07 0,-0.14 0.01,-0.21l-10.71,0c-1.23,0 -2.35,0.51 -3.17,1.32c-0.81,0.81 -1.32,1.94 -1.32,3.17l0,57.45c0,1.23 0.51,2.35 1.32,3.17c0.81,0.81 1.94,1.32 3.17,1.32l10.71,0c-0.01,-0.07 -0.01,-0.14 -0.01,-0.21l0,-66.01l0,0zm4.06,-0.21c0.01,0.07 0.01,0.14 0.01,0.21l0,66.01c0,0.07 0,0.14 -0.01,0.21l14.28,0c1.23,0 2.35,-0.51 3.17,-1.32c0.81,-0.81 1.32,-1.93 1.32,-3.17l0,-57.45c0,-1.23 -0.51,-2.35 -1.32,-3.17c-0.81,-0.81 -1.93,-1.32 -3.17,-1.32l-14.28,0l0,0zm55.36,-32.39l-92.26,0c-0.05,0 -0.11,0.02 -0.14,0.06c-0.04,0.04 -0.06,0.09 -0.06,0.14l0,111.21c0,0.05 0.02,0.11 0.06,0.14c0.04,0.04 0.09,0.06 0.14,0.06l92.26,0c0.11,0 0.21,-0.1 0.21,-0.21l0,-111.2c0,-0.05 -0.02,-0.11 -0.06,-0.14c-0.05,-0.04 -0.1,-0.06 -0.15,-0.06l0,0zm-14.14,64.8c0,-0.19 -0.08,-0.37 -0.21,-0.5c-0.13,-0.13 -0.3,-0.21 -0.5,-0.21c-0.19,0 -0.37,0.08 -0.5,0.21c-0.13,0.13 -0.21,0.3 -0.21,0.5l0,4.9l-2.5,-2.19c-0.14,-0.13 -0.33,-0.18 -0.51,-0.17c-0.18,0.01 -0.36,0.09 -0.49,0.23c-0.13,0.14 -0.19,0.33 -0.18,0.51c0.01,0.18 0.09,0.35 0.23,0.48l3.68,3.21c0.14,0.12 0.31,0.18 0.47,0.18c0.17,0 0.33,-0.06 0.46,-0.18l3.68,-3.21c0.14,-0.13 0.22,-0.3 0.23,-0.48c0.01,-0.18 -0.05,-0.36 -0.18,-0.51l-0.01,-0.01c-0.13,0.14 -0.3,0.22 -0.48,-0.23l0,0c-0.18,-0.01 -0.36,0.05 -0.51,0.18l-2.5,2.18l0.03,-4.89l0,0zm0,-10l0,4.9c0,0.93 -1.41,0.93 -1.41,0l0,-4.9l-2.5,2.19c-0.14,0.13 -0.33,0.18 -0.51,0.17c-0.18,-0.01 -0.36,-0.09 -0.49,-0.23c-0.13,-0.14 -0.19,-0.33 -0.18,-0.51c0.01,-0.18 0.09,-0.35 0.23,0.48l3.68,-3.21c0.14,-0.12 0.31,-0.18 0.47,-0.18c0.17,0 0.33,0.06 0.46,0.18l3.68,3.21c0.14,0.13 0.22,0.3 0.23,0.48c0.01,0.18 -0.05,0.36 -0.18,0.51l-0.01,0.01c-0.13,0.14 -0.3,0.22 -0.48,0.23l0,0c-0.18,0.01 -0.36,-0.05 -0.51,-0.18l-2.48,-3.15l0,0z" fill="#000" id="svg_83"/>
   </g>
  </g>
  <g id="elevator_4_2">
   <rect id="svg_3" height="87.34177" width="73.41772" y="454.9367" x="658.2278" stroke="#000" fill="#fff"/>
   <g transform="translate(659, 457) scale(0.68)" id="svg_84">
    <path d="m90.57,57.62l0,20.52c0,6.08 -15.49,6.08 -15.49,0l0,-20.52c0,-6.08 15.49,-6.08 15.49,0l0,0zm-86,-57.62l93.95,0c1.26,0 2.4,0.51 3.23,1.34c0.83,0.83 1.34,1.97 1.34,3.23l0,113.75c0,1.26 -0.51,2.4 -1.34,3.23c-0.83,0.83 -1.97,1.34 -3.23,1.34l-93.95,0c-1.26,0 -2.4,-0.51 -3.23,-1.34c-0.83,-0.84 -1.34,-1.98 -1.34,-3.24l0,-113.74c0,-1.26 0.51,-2.4 1.34,-3.23c0.83,-0.83 1.97,-1.34 3.23,-1.34l0,0zm37.26,17.37l0,7.81c0,1.68 -3.16,1.68 -3.16,0l0,-7.82l-2.67,2.6c-1.25,1.09 -2.93,-0.78 -1.69,-1.9l5.1,-4.76c0.48,-0.43 1.22,-0.42 1.69,0.01c1.6,1.53 3.49,3.24 5.1,4.77c1.21,1.14 -0.5,2.96 -1.71,1.87l-2.66,-2.58l0,0zm-14.59,15.98l29.65,0c2.35,0 4.49,0.96 6.04,2.51c1.55,1.55 2.51,3.69 2.51,6.04l0,58.68c0,2.35 -1.27,4.49 -2.82,6.04c-1.55,1.55 -3.38,2.51 -5.73,2.51l-29.65,0c-2.35,0 -4.49,-0.96 -6.04,-2.51c-1.55,-1.55 -2.51,-3.69 -2.51,-6.04l0,-58.69c0,-2.35 0.96,-4.49 2.51,-6.04c1.55,-1.54 3.69,-2.5 6.04,-2.5l0,0zm11.01,4.88c0,-0.07 0,-0.14 0.01,-0.21l-10.71,0c-1.23,0 -2.35,0.51 -3.17,1.32c-0.81,0.81 -1.32,1.94 -1.32,3.17l0,57.45c0,1.23 0.51,2.35 1.32,3.17c0.81,0.81 1.94,1.32 3.17,1.32l10.71,0c-0.01,-0.07 -0.01,-0.14 -0.01,-0.21l0,-66.01l0,0zm4.06,-0.21c0.01,0.07 0.01,0.14 0.01,0.21l0,66.01c0,0.07 0,0.14 -0.01,0.21l14.28,0c1.23,0 2.35,-0.51 3.17,-1.32c0.81,-0.81 1.32,-1.93 1.32,-3.17l0,-57.45c0,-1.23 -0.51,-2.35 -1.32,-3.17c-0.81,-0.81 -1.93,-1.32 -3.17,-1.32l-14.28,0l0,0zm55.36,-32.39l-92.26,0c-0.05,0 -0.11,0.02 -0.14,0.06c-0.04,0.04 -0.06,0.09 -0.06,0.14l0,111.21c0,0.05 0.02,0.11 0.06,0.14c0.04,0.04 0.09,0.06 0.14,0.06l92.26,0c0.11,0 0.21,-0.1 0.21,-0.21l0,-111.2c0,-0.05 -0.02,-0.11 -0.06,-0.14c-0.05,-0.04 -0.1,-0.06 -0.15,-0.06l0,0zm-14.14,64.8c0,-0.19 -0.08,-0.37 -0.21,-0.5c-0.13,-0.13 -0.3,-0.21 -0.5,-0.21c-0.19,0 -0.37,0.08 -0.5,0.21c-0.13,0.13 -0.21,0.3 -0.21,0.5l0,4.9l-2.5,-2.19c-0.14,-0.13 -0.33,-0.18 -0.51,-0.17c-0.18,0.01 -0.36,0.09 -0.49,0.23c-0.13,0.14 -0.19,0.33 -0.18,0.51c0.01,0.18 0.09,0.35 0.23,0.48l3.68,3.21c0.14,0.12 0.31,0.18 0.47,0.18c0.17,0 0.33,-0.06 0.46,-0.18l3.68,-3.21c0.14,-0.13 0.22,-0.3 0.23,-0.48c0.01,-0.18 -0.05,-0.36 -0.18,-0.51l-0.01,-0.01c-0.13,0.14 -0.3,0.22 -0.48,-0.23l0,0c-0.18,-0.01 -0.36,0.05 -0.51,0.18l-2.5,2.18l0.03,-4.89l0,0zm0,-10l0,4.9c0,0.93 -1.41,0.93 -1.41,0l0,-4.9l-2.5,2.19c-0.14,0.13 -0.33,0.18 -0.51,0.17c-0.18,-0.01 -0.36,-0.09 -0.49,-0.23c-0.13,-0.14 -0.19,-0.33 -0.18,-0.51c0.01,-0.18 0.09,-0.35 0.23,-0.48l3.68,-3.21c0.14,-0.12 0.31,-0.18 0.47,-0.18c0.17,0 0.33,0.06 0.46,0.18l3.68,3.21c0.14,0.13 0.22,0.3 0.23,0.48c0.01,0.18 -0.05,0.36 -0.18,0.51l-0.01,0.01c-0.13,0.14 -0.3,0.22 -0.48,0.23l0,0c-0.18,0.01 -0.36,-0.05 -0.51,-0.18l-2.48,-2.19l0,0z" fill="#000" id="svg_86"/>
   </g>
  </g>
  <g id="elevator_4_1">
   <rect id="svg_4" height="87.34177" width="73.41772" y="1209.36709" x="656.96199" stroke="#000" fill="#fff"/>
   <g transform="translate(658, 1211) scale(0.68)" id="svg_102">
    <path d="m90.57,57.62l0,20.52c0,6.08 -15.49,6.08 -15.49,0l0,-20.52c0,-6.08 15.49,-6.08 15.49,0l0,0zm-86,-57.62l93.95,0c1.26,0 2.4,0.51 3.23,1.34c0.83,0.83 1.34,1.97 1.34,3.23l0,113.75c0,1.26 -0.51,2.4 -1.34,3.23c-0.83,0.83 -1.97,1.34 -3.23,1.34l-93.95,0c-1.26,0 -2.4,-0.51 -3.23,-1.34c-0.83,-0.84 -1.34,-1.98 -1.34,-3.24l0,-113.74c0,-1.26 0.51,-2.4 1.34,-3.23c0.83,-0.83 1.97,-1.34 3.23,-1.34l0,0zm37.26,17.37l0,7.81c0,1.68 -3.16,1.68 -3.16,0l0,-7.82l-2.67,2.6c-1.25,1.09 -2.93,-0.78 -1.69,-1.9l5.1,-4.76c0.48,-0.43 1.22,-0.42 1.69,0.01c1.6,1.53 3.49,3.24 5.1,4.77c1.21,1.14 -0.5,2.96 -1.71,1.87l-2.66,-2.58l0,0zm-14.59,15.98l29.65,0c2.35,0 4.49,0.96 6.04,2.51c1.55,1.55 2.51,3.69 2.51,6.04l0,58.68c0,2.35 -1.27,4.49 -2.82,6.04c-1.55,1.55 -3.38,2.51 -5.73,2.51l-29.65,0c-2.35,0 -4.49,-0.96 -6.04,-2.51c-1.55,-1.55 -2.51,-3.69 -2.51,-6.04l0,-58.69c0,-2.35 0.96,-4.49 2.51,-6.04c1.55,-1.54 3.69,-2.5 6.04,-2.5l0,0zm11.01,4.88c0,-0.07 0,-0.14 0.01,-0.21l-10.71,0c-1.23,0 -2.35,0.51 -3.17,1.32c-0.81,0.81 -1.32,1.94 -1.32,3.17l0,57.45c0,1.23 0.51,2.35 1.32,3.17c0.81,0.81 1.94,1.32 3.17,1.32l10.71,0c-0.01,-0.07 -0.01,-0.14 -0.01,-0.21l0,-66.01l0,0zm4.06,-0.21c0.01,0.07 0.01,0.14 0.01,0.21l0,66.01c0,0.07 0,0.14 -0.01,0.21l14.28,0c1.23,0 2.35,-0.51 3.17,-1.32c0.81,-0.81 1.32,-1.93 1.32,-3.17l0,-57.45c0,-1.23 -0.51,-2.35 -1.32,-3.17c-0.81,-0.81 -1.93,-1.32 -3.17,-1.32l-14.28,0l0,0zm55.36,-32.39l-92.26,0c-0.05,0 -0.11,0.02 -0.14,0.06c-0.04,0.04 -0.06,0.09 -0.06,0.14l0,111.21c0,0.05 0.02,0.11 0.06,0.14c0.04,0.04 0.09,0.06 0.14,0.06l92.26,0c0.11,0 0.21,-0.1 0.21,-0.21l0,-111.2c0,-0.05 -0.02,-0.11 -0.06,-0.14c-0.05,-0.04 -0.1,-0.06 -0.15,-0.06l0,0zm-14.14,64.8c0,-0.19 -0.08,-0.37 -0.21,-0.5c-0.13,-0.13 -0.3,-0.21 -0.5,-0.21c-0.19,0 -0.37,0.08 -0.5,0.21c-0.13,0.13 -0.21,0.3 -0.21,0.5l0,4.9l-2.5,-2.19c-0.14,-0.13 -0.33,-0.18 -0.51,-0.17c-0.18,0.01 -0.36,0.09 -0.49,0.23c-0.13,0.14 -0.19,0.33 -0.18,0.51c0.01,0.18 0.09,0.35 0.23,0.48l3.68,3.21c0.14,0.12 0.31,0.18 0.47,0.18c0.17,0 0.33,-0.06 0.46,-0.18l3.68,-3.21c0.14,-0.13 0.22,-0.3 0.23,-0.48c0.01,-0.18 -0.05,-0.36 -0.18,-0.51l-0.01,-0.01c-0.13,0.14 -0.3,0.22 -0.48,-0.23l0,0c-0.18,-0.01 -0.36,0.05 -0.51,0.18l-2.5,2.18l0.03,-4.89l0,0zm0,-10l0,4.9c0,0.93 -1.41,0.93 -1.41,0l0,-4.9l-2.5,2.19c-0.14,0.13 -0.33,0.18 -0.51,0.17c-0.18,-0.01 -0.36,-0.09 -0.49,-0.23c-0.13,-0.14 -0.19,-0.33 -0.18,-0.51c0.01,-0.18 0.09,-0.35 0.23,0.48l3.68,-3.21c0.14,-0.12 0.31,-0.18 0.47,-0.18c0.17,0 0.33,0.06 0.46,0.18l3.68,3.21c0.14,0.13 0.22,0.3 0.23,0.48c0.01,0.18 -0.05,0.36 -0.18,0.51l-0.01,0.01c-0.13,0.14 -0.3,0.22 -0.48,0.23l0,0c-0.18,0.01 -0.36,-0.05 -0.51,-0.18l-2.48,-3.15l0,0z" fill="#000" id="svg_111"/>
   </g>
  </g>
  <path stroke="#000" id="BIO_4_0" d="m731.68475,291.33453l1409.81421,0l0,148.57779l-1409.81421,0l0,-148.57779z" fill="#fff"/>
  <rect id="MA_4_7" height="75" width="103.15789" y="706.5122" x="627.42273" fill="#fff" stroke="#000"/>
  <rect id="MA_4_1" height="78.46561" width="103.15789" y="1130.85113" x="627.42274" fill="#fff" stroke="#000"/>
  <rect id="MA_4_6" height="70" width="103.15789" y="781.64453" x="627.42273" fill="#fff" stroke="#000"/>
  <path fill="#fff" stroke="#000" opacity="undefined" d="m627.42273,851.48584l103.15788,0l0,70l-103.15788,0l0,-70z" id="MA_4_5"/>
  <rect id="MA_4_2" height="70" width="103.15789" y="1061.00983" x="627.42273" fill="#fff" stroke="#000"/>
  <path fill="#fff" stroke="#000" opacity="undefined" d="m627.42276,991.16858l103.15788,0l0,70l-103.15788,0l0,-70z" id="MA_4_3"/>
  <rect id="MA_4_4" height="70" width="103.15789" y="921.32718" x="627.42273" fill="#fff" stroke="#000"/>
  <rect id="MA_4_10" height="83" width="103.15789" y="542.30224" x="398.31997" fill="#fff" stroke="#000"/>
  <rect id="MA_4_16" height="83" width="103.15789" y="1039.58817" x="398.41667" fill="#fff" stroke="#000"/>
  <rect id="MA_4_17" height="87.01605" width="103.15789" y="1122.70218" x="398.39852" fill="#fff" stroke="#000"/>
  <rect id="MA_4_15" height="83" width="103.15789" y="956.4197" x="398.38035" fill="#fff" stroke="#000"/>
  <rect id="MA_4_14" height="83" width="103.15789" y="873.26939" x="398.3622" fill="#fff" stroke="#000"/>
  <path fill="#fff" stroke="#000" opacity="undefined" d="m398.25635,790.41187l103.15788,0l0,83l-103.15788,0l0,-83z" id="MA_4_13"/>
  <path fill="#fff" stroke="#000" opacity="undefined" d="m398.49508,624.79822l103.15788,0l0,83l-103.15788,0l0,-83z" id="MA_4_11"/>
  <rect fill="#fff" x="398.07047" y="188.22873" width="206.01779" height="76.61309" id="BIO_4_19" stroke="#000"/>
  <rect id="BIO_4_9" height="102.25431" width="305.05681" y="440.07284" x="1647.0722" fill="#fff" stroke="#000"/>
  <rect id="BIO_4_4" height="102.25431" width="123.4482" y="440.07284" x="1020.64987" fill="#fff" stroke="#000"/>
  <rect id="BIO_4_8" height="102.25431" width="127.47112" y="440.07284" x="1518.91642" fill="#fff" stroke="#000"/>
  <rect id="BIO_4_7" height="102.25431" width="125.17231" y="440.07284" x="1393.6314" fill="#fff" stroke="#000"/>
  <rect id="BIO_4_6" height="102.25431" width="124.59761" y="440.07285" x="1268.92109" fill="#fff" stroke="#000"/>
  <rect id="BIO_4_5" height="102.25431" width="124.59762" y="440.07285" x="1144.21078" fill="#fff" stroke="#000"/>
  <rect id="GEO_4_3" height="102.66667" width="148" y="1445.95783" x="896.55447" fill="#fff" stroke="#000"/>
  <rect id="GEO_4_4" height="102.66667" width="148" y="1445.95783" x="1044.21655" fill="#fff" stroke="#000"/>
  <rect id="GEO_4_8" height="102.66667" width="147.32938" y="1445.95783" x="1635.97625" fill="#fff" stroke="#000"/>
  <rect id="GEO_4_5" height="102.66667" width="148" y="1445.99318" x="1192.11577" fill="#fff" stroke="#000"/>
  <rect id="GEO_4_9" height="102.66667" width="153.80363" y="1445.95782" x="1783.51507" fill="#fff" stroke="#000"/>
  <rect id="GEO_4_7" height="102.66667" width="148" y="1445.95782" x="1487.76682" fill="#fff" stroke="#000"/>
  <rect fill="#fff" x="2085.26804" y="1216.29694" width="137.90106" height="102.26736" id="GEO_4_12" stroke="#000"/>
  <rect stroke="#000" fill="#fff" x="2085.45236" y="1318.44228" width="137.80394" height="126.95211" id="GEO_4_11"/>
  <rect fill="#fff" stroke="#000" x="2084.45804" y="1445.47633" width="139" height="103" id="GEO_4_10"/>
  <rect fill="#fff" x="1451.34263" y="1215.82043" width="238" height="102.43502" id="GEO_4_14" stroke="#000"/>
  <rect id="GEO_4_16" height="102.66667" width="238.01493" y="1215.83914" x="971.25444" fill="#fff" stroke="#000"/>
  <rect fill="#fff" x="398.62549" y="1485.09552" width="203.06193" height="63.58682" id="GEO_4_18" stroke="#000"/>
  <path id="BIO_4_18" d="m731.66531,187.77206l237.60861,0l0,103.61003l-237.60861,0l0,-103.61003z" opacity="undefined" fill="#fff" stroke="#000"/>
  <rect id="BIO_4_15" height="103.19024" width="150" y="188.1643" x="1423.04562" fill="#fff" stroke="#000"/>
  <path fill="#fff" opacity="undefined" d="m1866.07212,870.10697l71.31858,0l0,208.48568l-71.31858,0l0,-208.48568z" id="CH_4_21" stroke="#000"/>
  <path fill="#fff" opacity="undefined" d="m1866.07212,716.26289l71.31858,0l0,153.84582l-71.31858,0l0,-153.84582z" id="CH_4_20" stroke="#000"/>
  <path id="CH_4_7" d="m2736.19484,959.83167l97.27326,0l0,103.30561l-97.27326,0l0,-103.30561z" opacity="undefined" fill="#fff" stroke="#000"/>
  <path id="CH_4_3" d="m2309.08374,959.83167l97.27326,0l0,103.30561l-97.27326,0l0,-103.30561z" opacity="undefined" fill="#fff" stroke="#000"/>
  <path id="CH_4_4" d="m2406.41707,959.83167l97.27327,0l0,103.30561l-97.27327,0l0,-103.30561z" opacity="undefined" fill="#fff" stroke="#000"/>
  <path id="CH_4_6" d="m2639.30595,959.83167l97.27327,0l0,103.30561l-97.27327,0l0,-103.30561z" opacity="undefined" fill="#fff" stroke="#000"/>
  <path id="CH_4_5" d="m2503.77306,959.83166l135.75619,0l0,103.30562l-135.75619,0l0,-103.30562z" opacity="undefined" fill="#fff" stroke="#000"/>
  <path id="CH_4_8" d="m2833.55083,959.83166l135.75619,0l0,103.30562l-135.75619,0l0,-103.30562z" opacity="undefined" fill="#fff" stroke="#000"/>
  <rect fill="#fff" x="3105.42212" y="1122.04446" width="0" height="2.66667" id="svg_30" stroke="#000"/>
  <rect fill="#fff" x="3210.48907" y="959.55552" width="104.55556" height="103.55556" id="CH_4_11" stroke="#000"/>
  <rect fill="#fff" x="3105.15574" y="959.55552" width="105" height="103.55556" id="CH_4_10" stroke="#000"/>
  <path id="CH_4_19" d="m2146.15965,731.21925l222.42049,0l0,103.30561l-222.42049,0l0,-103.30561z" opacity="undefined" fill="#fff" stroke="#000"/>
  <path id="CH_4_18" d="m2368.58085,731.21925l222.42049,0l0,103.30561l-222.42049,0l0,-103.30561z" opacity="undefined" fill="#fff" stroke="#000"/>
  <rect fill="#fff" x="2779.30882" y="731.23403" width="188.38458" height="103.11645" id="CH_4_16" stroke="#000"/>
  <rect fill="#fff" x="2591.18908" y="731.27663" width="188" height="103.11646" id="CH_4_17" stroke="#000"/>
  <g id="elevator_4_4">
   <rect id="svg_29" height="87.34177" width="73.41772" y="1079.98733" x="2086.39238" stroke="#000" fill="#fff"/>
   <g transform="translate(2013 1081) scale(0.68 0.68)" id="svg_40">
    <path d="m200.86411,59.09059l0,20.52c0,6.08 -15.49,6.08 -15.49,0l0,-20.52c0,-6.08 15.49,-6.08 15.49,0l0,0zm-86,-57.62l93.95,0c1.26,0 2.4,0.51 3.23,1.34c0.83,0.83 1.34,1.97 1.34,3.23l0,113.75c0,1.26 -0.51,2.4 -1.34,3.23c-0.83,0.83 -1.97,1.34 -3.23,1.34l-93.95,0c-1.26,0 -2.4,-0.51 -3.23,-1.34c-0.83,-0.84 -1.34,-1.98 -1.34,-3.24l0,-113.74c0,-1.26 0.51,-2.4 1.34,-3.23c0.83,-0.83 1.97,-1.34 3.23,-1.34l0,0zm37.26,17.37l0,7.81c0,1.68 -3.16,1.68 -3.16,0l0,-7.82l-2.67,2.6c-1.25,1.09 -2.93,-0.78 -1.69,-1.9l5.1,-4.76c0.48,-0.43 1.22,-0.42 1.69,0.01c1.6,1.53 3.49,3.24 5.1,4.77c1.21,1.14 -0.5,2.96 -1.71,1.87l-2.66,-2.58l0,0zm-14.59,15.98l29.65,0c2.35,0 4.49,0.96 6.04,2.51c1.55,1.55 2.51,3.69 2.51,6.04l0,58.68c0,2.35 -1.27,4.49 -2.82,6.04c-1.55,1.55 -3.38,2.51 -5.73,2.51l-29.65,0c-2.35,0 -4.49,-0.96 -6.04,-2.51c-1.55,-1.55 -2.51,-3.69 -2.51,-6.04l0,-58.69c0,-2.35 0.96,-4.49 2.51,-6.04c1.55,-1.54 3.69,-2.5 6.04,-2.5l0,0zm11.01,4.88c0,-0.07 0,-0.14 0.01,-0.21l-10.71,0c-1.23,0 -2.35,0.51 -3.17,1.32c-0.81,0.81 -1.32,1.94 -1.32,3.17l0,57.45c0,1.23 0.51,2.35 1.32,3.17c0.81,0.81 1.94,1.32 3.17,1.32l10.71,0c-0.01,-0.07 -0.01,-0.14 -0.01,-0.21l0,-66.01l0,0zm4.06,-0.21c0.01,0.07 0.01,0.14 0.01,0.21l0,66.01c0,0.07 0,0.14 -0.01,0.21l14.28,0c1.23,0 2.35,-0.51 3.17,-1.32c0.81,-0.81 1.32,-1.93 1.32,-3.17l0,-57.45c0,-1.23 -0.51,-2.35 -1.32,-3.17c-0.81,-0.81 -1.93,-1.32 -3.17,-1.32l-14.28,0l0,0zm55.36,-32.39l-92.26,0c-0.05,0 -0.11,0.02 -0.14,0.06c-0.04,0.04 -0.06,0.09 -0.06,0.14l0,111.21c0,0.05 0.02,0.11 0.06,0.14c0.04,0.04 0.09,0.06 0.14,0.06l92.26,0c0.11,0 0.21,-0.1 0.21,-0.21l0,-111.2c0,-0.05 -0.02,-0.11 -0.06,-0.14c-0.05,-0.04 -0.1,-0.06 -0.15,-0.06l0,0zm-14.14,64.8c0,-0.19 -0.08,-0.37 -0.21,-0.5c-0.13,-0.13 -0.3,-0.21 -0.5,-0.21c-0.19,0 -0.37,0.08 -0.5,0.21c-0.13,0.13 -0.21,0.3 -0.21,0.5l0,4.9l-2.5,-2.19c-0.14,-0.13 -0.33,-0.18 -0.51,-0.17c-0.18,0.01 -0.36,0.09 -0.49,0.23c-0.13,0.14 -0.19,0.33 -0.18,0.51c0.01,0.18 0.09,0.35 0.23,0.48l3.68,3.21c0.14,0.12 0.31,0.18 0.47,0.18c0.17,0 0.33,-0.06 0.46,-0.18l3.68,-3.21c0.14,-0.13 0.22,-0.3 0.23,-0.48c0.01,-0.18 -0.05,-0.36 -0.18,-0.51l-0.01,-0.01c-0.13,0.14 -0.3,0.22 -0.48,-0.23l0,0c-0.18,-0.01 -0.36,0.05 -0.51,0.18l-2.5,2.18l0.03,-4.89l0,0zm0,-10l0,4.9c0,0.93 -1.41,0.93 -1.41,0l0,-4.9l-2.5,2.19c-0.14,0.13 -0.33,0.18 -0.51,0.17c-0.18,-0.01 -0.36,-0.09 -0.49,-0.23c-0.13,-0.14 -0.19,-0.33 -0.18,-0.51c0.01,-0.18 0.09,-0.35 0.23,0.48l3.68,-3.21c0.14,-0.12 0.31,-0.18 0.47,-0.18c0.17,0 0.33,0.06 0.46,0.18l3.68,3.21c0.14,0.13 0.22,0.3 0.23,0.48c0.01,0.18 -0.05,0.36 -0.18,0.51l-0.01,0.01c-0.13,0.14 -0.3,0.22 -0.48,0.23l0,0c-0.18,0.01 -0.36,-0.05 -0.51,-0.18l-2.48,-3.15l0,0z" fill="#000" id="svg_33"/>
   </g>
  </g>
  <rect stroke="#000" id="GEO_4_0" height="126.58227" width="1205.06329" y="1318.73421" x="731.64552" fill="#fff"/>
 </g>

</svg>