<svg width="4000" height="2000" xmlns="http://www.w3.org/2000/svg" stroke="null">
 <g stroke="null" id="Layer_1">
  <title stroke="null">Layer 1</title>
  <rect id="nexus_1_1" height="339.1228" width="525.90906" y="1514.44705" x="834.89742" fill="#fff" stroke="#000"/>
  <path stroke="#000" id="nexus_1_2" d="m835.36048,492.55969l524.97181,0l0,354.34356l-524.97181,0l0,-354.34356z" opacity="undefined" fill="#fff"/>
  <rect stroke="#000" id="hall5" height="666.91177" width="198.16973" y="847.41419" x="1161.94818" fill="#ffffff"/>
  <g stroke="null" id="GEO_1_1">
   <path stroke="#000" id="svg_121" d="m1443.41698,1750.23038l0,103.1579l-81.81555,0l0,-103.1579l81.81555,0z" fill="#fff"/>
   <g stroke="null" transform="translate(760 1465) scale(0.6 0.6)" id="svg_119">
    <path stroke="null" d="m1073.82309,507.78206a10.34,10.34 0 1 1 -10.34,10.34a10.34,10.34 0 0 1 10.34,-10.34zm13.07,38.93l0,78.23a5.74,5.74 0 0 1 -5.72,5.72l0,0a5.73,5.73 0 0 1 -5.72,-5.72l0,-46l-3.11,0l0,46a5.74,5.74 0 0 1 -5.72,5.72l0,0a5.74,5.74 0 0 1 -5.72,-5.72l0,-78.23l-2,0l0,28.75c0,5.73 -8.67,5.73 -8.67,0l0,-30.94c0,-5 1.69,-8.56 4.77,-10.88c5.3,-4 32.33,-4 37.63,0c3.08,2.32 4.79,5.85 4.78,10.88l0,30.94c0,5.73 -8.68,5.73 -8.68,0l0,-28.75l-1.84,0z" fill="#000" id="svg_120"/>
   </g>
  </g>
  <g stroke="null" id="GEO_1_2">
   <path transform="rotate(90 1485.05 1801.71)" stroke="#000" id="svg_112" d="m1433.47349,1760.53863l103.1579,0l0,82.34185l-103.1579,0l0,-82.34185z" fill="#fff"/>
   <g stroke="null" transform="translate(835 1465) scale(0.55 0.55)" id="svg_110">
    <path stroke="null" d="m1165.41881,594.33407l-12.47,51.61l12.47,0l0,25.13a5.73,5.73 0 0 0 5.72,5.72l0,0a5.73,5.73 0 0 0 5.71,-5.72l0,-25.13l2.26,0l0,25.13a5.73,5.73 0 0 0 5.71,5.72l0,0a5.73,5.73 0 0 0 5.72,-5.72l0,-25.13l11.77,0l-11.77,-50.27l0,-2.8l1.85,0l0.13,0l8.82,31.38a4.45,4.45 0 0 0 8.56,-2.4l-8.94,-31.8a4.29,4.29 0 0 0 -0.19,-0.54c-1.13,-4.72 -1.64,-7.54 -4.49,-9.68c-5.3,-4 -30.91,-4 -36.2,0c-3.08,2.32 -4.2,5.87 -5.54,10.88l0.08,0l-8.74,31.11a4.44,4.44 0 1 0 8.55,2.4l8.83,-31.39l0.16,0l2,0l0,1.46l0,0.04zm12.49,-40.39a10.34,10.34 0 1 1 -10.34,10.34a10.34,10.34 0 0 1 10.34,-10.34z" fill="#000" id="svg_111"/>
   </g>
  </g>
  <rect stroke="#000" id="GEO_1_3" height="102.66667" width="163.32469" y="1750.62707" x="1526.69432" fill="#fff"/>
  <rect stroke="#000" id="GEO_1_4" height="101.15152" width="329.13554" y="1520.50839" x="1360.43058" fill="#fff"/>
  <g stroke="null" id="BIO_1_1">
   <path stroke="#000" id="svg_98" d="m1351.32451,754.46983l103.1579,0l0,81.81555l-103.1579,0l0,-81.81555z" fill="#fff" transform="rotate(90 1402.9 795.378)"/>
   <g stroke="null" transform="translate(760 455) scale(0.6 0.6)" id="svg_96">
    <path stroke="null" d="m1073.82307,507.78206a10.34,10.34 0 1 1 -10.34,10.34a10.34,10.34 0 0 1 10.34,-10.34zm13.07,38.93l0,78.23a5.74,5.74 0 0 1 -5.72,5.72l0,0a5.73,5.73 0 0 1 -5.72,-5.72l0,-46l-3.11,0l0,46a5.74,5.74 0 0 1 -5.72,5.72l0,0a5.74,5.74 0 0 1 -5.72,-5.72l0,-78.23l-2,0l0,28.75c0,5.73 -8.67,5.73 -8.67,0l0,-30.94c0,-5 1.69,-8.56 4.77,-10.88c5.3,-4 32.33,-4 37.63,0c3.08,2.32 4.79,5.85 4.78,10.88l0,30.94c0,5.73 -8.68,5.73 -8.68,0l0,-28.75l-1.84,0z" fill="#000" id="svg_97"/>
   </g>
  </g>
  <path id="BIO_1_17" d="m1360.98551,492.4413l220.81967,0l0,102.66666l-220.81967,0l0,-102.66666z" opacity="undefined" fill="#fff" stroke="#000"/>
  <path stroke="#000" id="B3_1_0" d="m835.91299,148.11448l2204.97785,0l0,341.65382l-2204.97785,0l0,-341.65382z" opacity="undefined" fill="#fff"/>
  <rect stroke="#000" id="BIO_1_16" height="103" width="220" y="492.27385" x="1581.64955" fill="#fff"/>
  <rect stroke="#000" id="BIO_1_13" height="102.66667" width="220" y="492.83354" x="2240.85162" fill="#fff"/>
  <rect stroke="#000" id="BIO_1_15" height="102.66667" width="220" y="492.87575" x="1801.21647" fill="#fff"/>
  <rect stroke="#000" id="BIO_1_14" height="102.66667" width="220" y="492.93061" x="2021.03407" fill="#fff"/>
  <rect stroke="#000" id="BIO_1_12" height="103" width="247.2583" y="492.77308" x="2460.71225" fill="#fff"/>
  <path stroke="#000" fill="#fff" opacity="undefined" d="m2567.34396,1383.57819l147.48521,0l0,136.73802l-147.48521,0l0,-136.73802z" id="nexus_1_5"/>
  <path stroke="#000" fill="#fff" opacity="undefined" d="m2408.49296,744.00238l172.49961,0l0,103l-172.49961,0l0,-103z" id="BIO_1_11"/>
  <g stroke="null" id="stairs_1_4">
   <path stroke="#000" id="svg_86" d="m2484.87082,1414.36217l82.43374,0l0,59.61538l-82.43374,0l0,-59.61538z" fill="#fff"/>
   <g stroke="null" transform="translate(1866 1120) scale(0.5 0.5)" id="svg_84">
    <path stroke="null" d="m1355.10971,609.33849l26.1,0c1.07,0 1.95,0.88 1.95,1.95l0,79.25c0,0.05 0,0.09 0,0.13l0,1.3l-122.88,0l0,-16.77c-0.02,-2.16 1.13,-3.31 3.34,-3.54l27.03,0.04l0,-19.37c-0.02,-0.99 0.41,-1.51 1.3,-1.52l29.13,0l0,-18.62c0.07,-1.3 0.81,-1.87 1.96,-2.01l29.53,0l0,-17.96c-0.05,-0.87 0.58,-2.88 2.54,-2.88l0,0z" fill="#000" id="svg_85"/>
   </g>
  </g>
  <path stroke="#000" id="nexus_1_3" d="m2582.00644,744.55321l125.21519,0l0,276.30139l-125.21519,0l0,-276.30139z" fill="#fff"/>
  <rect stroke="#000" id="nexus_1_4" height="362.55146" width="291.52151" y="1020.67454" x="2484.64976" fill="#ffffff"/>
  <g stroke="null" id="BIO_1_2">
   <path transform="rotate(90 1484.83 795.323)" stroke="#000" id="svg_79" d="m1433.25218,754.41497l103.1579,0l0,81.81555l-103.1579,0l0,-81.81555z" fill="#fff"/>
   <g stroke="null" transform="translate(835 460) scale(0.55 0.55)" id="svg_77">
    <path stroke="null" d="m1165.41881,594.33407l-12.47,51.61l12.47,0l0,25.13a5.73,5.73 0 0 0 5.72,5.72l0,0a5.73,5.73 0 0 0 5.71,-5.72l0,-25.13l2.26,0l0,25.13a5.73,5.73 0 0 0 5.71,5.72l0,0a5.73,5.73 0 0 0 5.72,-5.72l0,-25.13l11.77,0l-11.77,-50.27l0,-2.8l1.85,0l0.13,0l8.82,31.38a4.45,4.45 0 0 0 8.56,-2.4l-8.94,-31.8a4.29,4.29 0 0 0 -0.19,-0.54c-1.13,-4.72 -1.64,-7.54 -4.49,-9.68c-5.3,-4 -30.91,-4 -36.2,0c-3.08,2.32 -4.2,5.87 -5.54,10.88l0.08,0l-8.74,31.11a4.44,4.44 0 1 0 8.55,2.4l8.83,-31.39l0.16,0l2,0l0,1.46l0,0.04zm12.49,-40.39a10.34,10.34 0 1 1 -10.34,10.34a10.34,10.34 0 0 1 10.34,-10.34z" fill="#000" id="svg_78"/>
   </g>
  </g>
  <g stroke="null" id="stairs_1_3">
   <path stroke="#000" id="svg_46" d="m2496.36634,938.01293l85.83638,0l0,57.08374l-85.83638,0l0,-57.08374z" fill="#fff"/>
   <g stroke="null" transform="translate(1878 642) scale(0.5 0.5)" id="svg_44">
    <path stroke="null" d="m1355.10971,609.33849l26.1,0c1.07,0 1.95,0.88 1.95,1.95l0,79.25c0,0.05 0,0.09 0,0.13l0,1.3l-122.88,0l0,-16.77c-0.02,-2.16 1.13,-3.31 3.34,-3.54l27.03,0.04l0,-19.37c-0.02,-0.99 0.41,-1.51 1.3,-1.52l29.13,0l0,-18.62c0.07,-1.3 0.81,-1.87 1.96,-2.01l29.53,0l0,-17.96c-0.05,-0.87 0.58,-2.88 2.54,-2.88l0,0z" fill="#000" id="svg_45"/>
   </g>
  </g>
  <g stroke="null" id="stairs_1_2">
   <path stroke="#000" id="svg_42" d="m837.16749,786.98951l74.44398,0l0,59.61538l-74.44398,0l0,-59.61538z" fill="#fff"/>
   <g stroke="null" transform="translate(332 472) scale(0.48 0.48)" id="svg_40">
    <path stroke="null" d="m1165.02541,680.9314l26.1,0c1.07,0 1.95,0.88 1.95,1.95l0,79.25c0,0.05 0,0.09 0,0.13l0,1.3l-122.88,0l0,-16.77c-0.02,-2.16 1.13,-3.31 3.34,-3.54l27.03,0.04l0,-19.37c-0.02,-0.99 0.41,-1.51 1.3,-1.52l29.13,0l0,-18.62c0.07,-1.3 0.81,-1.87 1.96,-2.01l29.53,0l0,-17.96c-0.05,-0.87 0.58,-2.88 2.54,-2.88l0,0z" fill="#000" id="svg_41"/>
   </g>
  </g>
  <g stroke="null" id="elevator_1_3">
   <rect stroke="#000" id="svg_38" height="87.34177" width="73.41772" y="882.32324" x="2708.19891" fill="#fff"/>
   <g stroke="null" transform="translate(2013 1081) scale(0.68 0.68)" id="svg_36">
    <path stroke="null" d="m1115.28551,-231.5919l0,20.52c0,6.08 -15.49,6.08 -15.49,0l0,-20.52c0,-6.08 15.49,-6.08 15.49,0l0,0zm-86,-57.62l93.95,0c1.26,0 2.4,0.51 3.23,1.34c0.83,0.83 1.34,1.97 1.34,3.23l0,113.75c0,1.26 -0.51,2.4 -1.34,3.23c-0.83,0.83 -1.97,1.34 -3.23,1.34l-93.95,0c-1.26,0 -2.4,-0.51 -3.23,-1.34c-0.83,-0.84 -1.34,-1.98 -1.34,-3.24l0,-113.74c0,-1.26 0.51,-2.4 1.34,-3.23c0.83,-0.83 1.97,-1.34 3.23,-1.34l0,0zm37.26,17.37l0,7.81c0,1.68 -3.16,1.68 -3.16,0l0,-7.82l-2.67,2.6c-1.25,1.09 -2.93,-0.78 -1.69,-1.9l5.1,-4.76c0.48,-0.43 1.22,-0.42 1.69,0.01c1.6,1.53 3.49,3.24 5.1,4.77c1.21,1.14 -0.5,2.96 -1.71,1.87l-2.66,-2.58l0,0zm-14.59,15.98l29.65,0c2.35,0 4.49,0.96 6.04,2.51c1.55,1.55 2.51,3.69 2.51,6.04l0,58.68c0,2.35 -1.27,4.49 -2.82,6.04c-1.55,1.55 -3.38,2.51 -5.73,2.51l-29.65,0c-2.35,0 -4.49,-0.96 -6.04,-2.51c-1.55,-1.55 -2.51,-3.69 -2.51,-6.04l0,-58.69c0,-2.35 0.96,-4.49 2.51,-6.04c1.55,-1.54 3.69,-2.5 6.04,-2.5l0,0zm11.01,4.88c0,-0.07 0,-0.14 0.01,-0.21l-10.71,0c-1.23,0 -2.35,0.51 -3.17,1.32c-0.81,0.81 -1.32,1.94 -1.32,3.17l0,57.45c0,1.23 0.51,2.35 1.32,3.17c0.81,0.81 1.94,1.32 3.17,1.32l10.71,0c-0.01,-0.07 -0.01,-0.14 -0.01,-0.21l0,-66.01l0,0zm4.06,-0.21c0.01,0.07 0.01,0.14 0.01,0.21l0,66.01c0,0.07 0,0.14 -0.01,0.21l14.28,0c1.23,0 2.35,-0.51 3.17,-1.32c0.81,-0.81 1.32,-1.93 1.32,-3.17l0,-57.45c0,-1.23 -0.51,-2.35 -1.32,-3.17c-0.81,-0.81 -1.93,-1.32 -3.17,-1.32l-14.28,0l0,0zm55.36,-32.39l-92.26,0c-0.05,0 -0.11,0.02 -0.14,0.06c-0.04,0.04 -0.06,0.09 -0.06,0.14l0,111.21c0,0.05 0.02,0.11 0.06,0.14c0.04,0.04 0.09,0.06 0.14,0.06l92.26,0c0.11,0 0.21,-0.1 0.21,-0.21l0,-111.2c0,-0.05 -0.02,-0.11 -0.06,-0.14c-0.05,-0.04 -0.1,-0.06 -0.15,-0.06l0,0zm-14.14,64.8c0,-0.19 -0.08,-0.37 -0.21,-0.5c-0.13,-0.13 -0.3,-0.21 -0.5,-0.21c-0.19,0 -0.37,0.08 -0.5,0.21c-0.13,0.13 -0.21,0.3 -0.21,0.5l0,4.9l-2.5,-2.19c-0.14,-0.13 -0.33,-0.18 -0.51,-0.17c-0.18,0.01 -0.36,0.09 -0.49,0.23c-0.13,0.14 -0.19,0.33 -0.18,0.51c0.01,0.18 0.09,0.35 0.23,0.48l3.68,3.21c0.14,0.12 0.31,0.18 0.47,0.18c0.17,0 0.33,-0.06 0.46,-0.18l3.68,-3.21c0.14,-0.13 0.22,-0.3 0.23,-0.48c0.01,-0.18 -0.05,-0.36 -0.18,-0.51l-0.01,-0.01c-0.13,0.14 -0.3,0.22 -0.48,-0.23l0,0c-0.18,-0.01 -0.36,0.05 -0.51,0.18l-2.5,2.18l0.03,-4.89l0,0zm0,-10l0,4.9c0,0.93 -1.41,0.93 -1.41,0l0,-4.9l-2.5,2.19c-0.14,0.13 -0.33,0.18 -0.51,0.17c-0.18,-0.01 -0.36,-0.09 -0.49,-0.23c-0.13,-0.14 -0.19,-0.33 -0.18,-0.51c0.01,-0.18 0.09,-0.35 0.23,0.48l3.68,-3.21c0.14,-0.12 0.31,-0.18 0.47,-0.18c0.17,0 0.33,0.06 0.46,0.18l3.68,3.21c0.14,0.13 0.22,0.3 0.23,0.48c0.01,0.18 -0.05,0.36 -0.18,0.51l-0.01,0.01c-0.13,0.14 -0.3,0.22 -0.48,0.23l0,0c-0.18,0.01 -0.36,-0.05 -0.51,-0.18l-2.48,-3.15l0,0z" fill="#000" id="svg_37"/>
   </g>
  </g>
  <g stroke="null" id="elevator_1_2">
   <rect stroke="#000" id="svg_34" height="87.34177" width="73.41772" y="759.60594" x="1288.36766" fill="#fff"/>
   <g stroke="null" transform="translate(659 457) scale(0.68 0.68)" id="svg_32">
    <path stroke="null" d="m1017.2463,505.66299l0,20.52c0,6.08 -15.49,6.08 -15.49,0l0,-20.52c0,-6.08 15.49,-6.08 15.49,0l0,0zm-86,-57.62l93.95,0c1.26,0 2.4,0.51 3.23,1.34c0.83,0.83 1.34,1.97 1.34,3.23l0,113.75c0,1.26 -0.51,2.4 -1.34,3.23c-0.83,0.83 -1.97,1.34 -3.23,1.34l-93.95,0c-1.26,0 -2.4,-0.51 -3.23,-1.34c-0.83,-0.84 -1.34,-1.98 -1.34,-3.24l0,-113.74c0,-1.26 0.51,-2.4 1.34,-3.23c0.83,-0.83 1.97,-1.34 3.23,-1.34l0,0zm37.26,17.37l0,7.81c0,1.68 -3.16,1.68 -3.16,0l0,-7.82l-2.67,2.6c-1.25,1.09 -2.93,-0.78 -1.69,-1.9l5.1,-4.76c0.48,-0.43 1.22,-0.42 1.69,0.01c1.6,1.53 3.49,3.24 5.1,4.77c1.21,1.14 -0.5,2.96 -1.71,1.87l-2.66,-2.58l0,0zm-14.59,15.98l29.65,0c2.35,0 4.49,0.96 6.04,2.51c1.55,1.55 2.51,3.69 2.51,6.04l0,58.68c0,2.35 -1.27,4.49 -2.82,6.04c-1.55,1.55 -3.38,2.51 -5.73,2.51l-29.65,0c-2.35,0 -4.49,-0.96 -6.04,-2.51c-1.55,-1.55 -2.51,-3.69 -2.51,-6.04l0,-58.69c0,-2.35 0.96,-4.49 2.51,-6.04c1.55,-1.54 3.69,-2.5 6.04,-2.5l0,0zm11.01,4.88c0,-0.07 0,-0.14 0.01,-0.21l-10.71,0c-1.23,0 -2.35,0.51 -3.17,1.32c-0.81,0.81 -1.32,1.94 -1.32,3.17l0,57.45c0,1.23 0.51,2.35 1.32,3.17c0.81,0.81 1.94,1.32 3.17,1.32l10.71,0c-0.01,-0.07 -0.01,-0.14 -0.01,-0.21l0,-66.01l0,0zm4.06,-0.21c0.01,0.07 0.01,0.14 0.01,0.21l0,66.01c0,0.07 0,0.14 -0.01,0.21l14.28,0c1.23,0 2.35,-0.51 3.17,-1.32c0.81,-0.81 1.32,-1.93 1.32,-3.17l0,-57.45c0,-1.23 -0.51,-2.35 -1.32,-3.17c-0.81,-0.81 -1.93,-1.32 -3.17,-1.32l-14.28,0l0,0zm55.36,-32.39l-92.26,0c-0.05,0 -0.11,0.02 -0.14,0.06c-0.04,0.04 -0.06,0.09 -0.06,0.14l0,111.21c0,0.05 0.02,0.11 0.06,0.14c0.04,0.04 0.09,0.06 0.14,0.06l92.26,0c0.11,0 0.21,-0.1 0.21,-0.21l0,-111.2c0,-0.05 -0.02,-0.11 -0.06,-0.14c-0.05,-0.04 -0.1,-0.06 -0.15,-0.06l0,0zm-14.14,64.8c0,-0.19 -0.08,-0.37 -0.21,-0.5c-0.13,-0.13 -0.3,-0.21 -0.5,-0.21c-0.19,0 -0.37,0.08 -0.5,0.21c-0.13,0.13 -0.21,0.3 -0.21,0.5l0,4.9l-2.5,-2.19c-0.14,-0.13 -0.33,-0.18 -0.51,-0.17c-0.18,0.01 -0.36,0.09 -0.49,0.23c-0.13,0.14 -0.19,0.33 -0.18,0.51c0.01,0.18 0.09,0.35 0.23,0.48l3.68,3.21c0.14,0.12 0.31,0.18 0.47,0.18c0.17,0 0.33,-0.06 0.46,-0.18l3.68,-3.21c0.14,-0.13 0.22,-0.3 0.23,-0.48c0.01,-0.18 -0.05,-0.36 -0.18,-0.51l-0.01,-0.01c-0.13,0.14 -0.3,0.22 -0.48,-0.23l0,0c-0.18,-0.01 -0.36,0.05 -0.51,0.18l-2.5,2.18l0.03,-4.89l0,0zm0,-10l0,4.9c0,0.93 -1.41,0.93 -1.41,0l0,-4.9l-2.5,2.19c-0.14,0.13 -0.33,0.18 -0.51,0.17c-0.18,-0.01 -0.36,-0.09 -0.49,-0.23c-0.13,-0.14 -0.19,-0.33 -0.18,-0.51c0.01,-0.18 0.09,-0.35 0.23,-0.48l3.68,-3.21c0.14,-0.12 0.31,-0.18 0.47,-0.18c0.17,0 0.33,0.06 0.46,0.18l3.68,3.21c0.14,0.13 0.22,0.3 0.23,0.48c0.01,0.18 -0.05,0.36 -0.18,0.51l-0.01,0.01c-0.13,0.14 -0.3,0.22 -0.48,0.23l0,0c-0.18,0.01 -0.36,-0.05 -0.51,-0.18l-2.48,-2.19l0,0z" fill="#000" id="svg_33"/>
   </g>
  </g>
  <g stroke="null" id="elevator_1_1">
   <rect stroke="#000" id="svg_30" height="87.34177" width="73.41772" y="1514.03633" x="1287.10185" fill="#fff"/>
   <g stroke="null" transform="translate(658 1211) scale(0.68 0.68)" id="svg_28">
    <path stroke="null" d="m1017.2463,505.66299l0,20.52c0,6.08 -15.49,6.08 -15.49,0l0,-20.52c0,-6.08 15.49,-6.08 15.49,0l0,0zm-86,-57.62l93.95,0c1.26,0 2.4,0.51 3.23,1.34c0.83,0.83 1.34,1.97 1.34,3.23l0,113.75c0,1.26 -0.51,2.4 -1.34,3.23c-0.83,0.83 -1.97,1.34 -3.23,1.34l-93.95,0c-1.26,0 -2.4,-0.51 -3.23,-1.34c-0.83,-0.84 -1.34,-1.98 -1.34,-3.24l0,-113.74c0,-1.26 0.51,-2.4 1.34,-3.23c0.83,-0.83 1.97,-1.34 3.23,-1.34l0,0zm37.26,17.37l0,7.81c0,1.68 -3.16,1.68 -3.16,0l0,-7.82l-2.67,2.6c-1.25,1.09 -2.93,-0.78 -1.69,-1.9l5.1,-4.76c0.48,-0.43 1.22,-0.42 1.69,0.01c1.6,1.53 3.49,3.24 5.1,4.77c1.21,1.14 -0.5,2.96 -1.71,1.87l-2.66,-2.58l0,0zm-14.59,15.98l29.65,0c2.35,0 4.49,0.96 6.04,2.51c1.55,1.55 2.51,3.69 2.51,6.04l0,58.68c0,2.35 -1.27,4.49 -2.82,6.04c-1.55,1.55 -3.38,2.51 -5.73,2.51l-29.65,0c-2.35,0 -4.49,-0.96 -6.04,-2.51c-1.55,-1.55 -2.51,-3.69 -2.51,-6.04l0,-58.69c0,-2.35 0.96,-4.49 2.51,-6.04c1.55,-1.54 3.69,-2.5 6.04,-2.5l0,0zm11.01,4.88c0,-0.07 0,-0.14 0.01,-0.21l-10.71,0c-1.23,0 -2.35,0.51 -3.17,1.32c-0.81,0.81 -1.32,1.94 -1.32,3.17l0,57.45c0,1.23 0.51,2.35 1.32,3.17c0.81,0.81 1.94,1.32 3.17,1.32l10.71,0c-0.01,-0.07 -0.01,-0.14 -0.01,-0.21l0,-66.01l0,0zm4.06,-0.21c0.01,0.07 0.01,0.14 0.01,0.21l0,66.01c0,0.07 0,0.14 -0.01,0.21l14.28,0c1.23,0 2.35,-0.51 3.17,-1.32c0.81,-0.81 1.32,-1.93 1.32,-3.17l0,-57.45c0,-1.23 -0.51,-2.35 -1.32,-3.17c-0.81,-0.81 -1.93,-1.32 -3.17,-1.32l-14.28,0l0,0zm55.36,-32.39l-92.26,0c-0.05,0 -0.11,0.02 -0.14,0.06c-0.04,0.04 -0.06,0.09 -0.06,0.14l0,111.21c0,0.05 0.02,0.11 0.06,0.14c0.04,0.04 0.09,0.06 0.14,0.06l92.26,0c0.11,0 0.21,-0.1 0.21,-0.21l0,-111.2c0,-0.05 -0.02,-0.11 -0.06,-0.14c-0.05,-0.04 -0.1,-0.06 -0.15,-0.06l0,0zm-14.14,64.8c0,-0.19 -0.08,-0.37 -0.21,-0.5c-0.13,-0.13 -0.3,-0.21 -0.5,-0.21c-0.19,0 -0.37,0.08 -0.5,0.21c-0.13,0.13 -0.21,0.3 -0.21,0.5l0,4.9l-2.5,-2.19c-0.14,-0.13 -0.33,-0.18 -0.51,-0.17c-0.18,0.01 -0.36,0.09 -0.49,0.23c-0.13,0.14 -0.19,0.33 -0.18,0.51c0.01,0.18 0.09,0.35 0.23,0.48l3.68,3.21c0.14,0.12 0.31,0.18 0.47,0.18c0.17,0 0.33,-0.06 0.46,-0.18l3.68,-3.21c0.14,-0.13 0.22,-0.3 0.23,-0.48c0.01,-0.18 -0.05,-0.36 -0.18,-0.51l-0.01,-0.01c-0.13,0.14 -0.3,0.22 -0.48,-0.23l0,0c-0.18,-0.01 -0.36,0.05 -0.51,0.18l-2.5,2.18l0.03,-4.89l0,0zm0,-10l0,4.9c0,0.93 -1.41,0.93 -1.41,0l0,-4.9l-2.5,2.19c-0.14,0.13 -0.33,0.18 -0.51,0.17c-0.18,-0.01 -0.36,-0.09 -0.49,-0.23c-0.13,-0.14 -0.19,-0.33 -0.18,-0.51c0.01,-0.18 0.09,-0.35 0.23,0.48l3.68,-3.21c0.14,-0.12 0.31,-0.18 0.47,-0.18c0.17,0 0.33,0.06 0.46,0.18l3.68,3.21c0.14,0.13 0.22,0.3 0.23,0.48c0.01,0.18 -0.05,0.36 -0.18,0.51l-0.01,0.01c-0.13,0.14 -0.3,0.22 -0.48,0.23l0,0c-0.18,0.01 -0.36,-0.05 -0.51,-0.18l-2.48,-3.15l0,0z" fill="#000" id="svg_29"/>
   </g>
  </g>
  <path id="BIO_1_0" d="m1361.59309,596.41554l1346.78366,0l0,147.61626l-1346.78366,0l0,-147.61626z" fill="#fff" stroke="#000"/>
  <g stroke="null" id="elevator_1_4">
   <rect stroke="#000" id="svg_25" height="87.34177" width="73.41772" y="1383.65657" x="2714.53224" fill="#fff"/>
   <g stroke="null" transform="translate(2013 1081) scale(0.68 0.68)" id="svg_23">
    <path stroke="null" d="m1124.59924,505.66299l0,20.52c0,6.08 -15.49,6.08 -15.49,0l0,-20.52c0,-6.08 15.49,-6.08 15.49,0l0,0zm-86,-57.62l93.95,0c1.26,0 2.4,0.51 3.23,1.34c0.83,0.83 1.34,1.97 1.34,3.23l0,113.75c0,1.26 -0.51,2.4 -1.34,3.23c-0.83,0.83 -1.97,1.34 -3.23,1.34l-93.95,0c-1.26,0 -2.4,-0.51 -3.23,-1.34c-0.83,-0.84 -1.34,-1.98 -1.34,-3.24l0,-113.74c0,-1.26 0.51,-2.4 1.34,-3.23c0.83,-0.83 1.97,-1.34 3.23,-1.34l0,0zm37.26,17.37l0,7.81c0,1.68 -3.16,1.68 -3.16,0l0,-7.82l-2.67,2.6c-1.25,1.09 -2.93,-0.78 -1.69,-1.9l5.1,-4.76c0.48,-0.43 1.22,-0.42 1.69,0.01c1.6,1.53 3.49,3.24 5.1,4.77c1.21,1.14 -0.5,2.96 -1.71,1.87l-2.66,-2.58l0,0zm-14.59,15.98l29.65,0c2.35,0 4.49,0.96 6.04,2.51c1.55,1.55 2.51,3.69 2.51,6.04l0,58.68c0,2.35 -1.27,4.49 -2.82,6.04c-1.55,1.55 -3.38,2.51 -5.73,2.51l-29.65,0c-2.35,0 -4.49,-0.96 -6.04,-2.51c-1.55,-1.55 -2.51,-3.69 -2.51,-6.04l0,-58.69c0,-2.35 0.96,-4.49 2.51,-6.04c1.55,-1.54 3.69,-2.5 6.04,-2.5l0,0zm11.01,4.88c0,-0.07 0,-0.14 0.01,-0.21l-10.71,0c-1.23,0 -2.35,0.51 -3.17,1.32c-0.81,0.81 -1.32,1.94 -1.32,3.17l0,57.45c0,1.23 0.51,2.35 1.32,3.17c0.81,0.81 1.94,1.32 3.17,1.32l10.71,0c-0.01,-0.07 -0.01,-0.14 -0.01,-0.21l0,-66.01l0,0zm4.06,-0.21c0.01,0.07 0.01,0.14 0.01,0.21l0,66.01c0,0.07 0,0.14 -0.01,0.21l14.28,0c1.23,0 2.35,-0.51 3.17,-1.32c0.81,-0.81 1.32,-1.93 1.32,-3.17l0,-57.45c0,-1.23 -0.51,-2.35 -1.32,-3.17c-0.81,-0.81 -1.93,-1.32 -3.17,-1.32l-14.28,0l0,0zm55.36,-32.39l-92.26,0c-0.05,0 -0.11,0.02 -0.14,0.06c-0.04,0.04 -0.06,0.09 -0.06,0.14l0,111.21c0,0.05 0.02,0.11 0.06,0.14c0.04,0.04 0.09,0.06 0.14,0.06l92.26,0c0.11,0 0.21,-0.1 0.21,-0.21l0,-111.2c0,-0.05 -0.02,-0.11 -0.06,-0.14c-0.05,-0.04 -0.1,-0.06 -0.15,-0.06l0,0zm-14.14,64.8c0,-0.19 -0.08,-0.37 -0.21,-0.5c-0.13,-0.13 -0.3,-0.21 -0.5,-0.21c-0.19,0 -0.37,0.08 -0.5,0.21c-0.13,0.13 -0.21,0.3 -0.21,0.5l0,4.9l-2.5,-2.19c-0.14,-0.13 -0.33,-0.18 -0.51,-0.17c-0.18,0.01 -0.36,0.09 -0.49,0.23c-0.13,0.14 -0.19,0.33 -0.18,0.51c0.01,0.18 0.09,0.35 0.23,0.48l3.68,3.21c0.14,0.12 0.31,0.18 0.47,0.18c0.17,0 0.33,-0.06 0.46,-0.18l3.68,-3.21c0.14,-0.13 0.22,-0.3 0.23,-0.48c0.01,-0.18 -0.05,-0.36 -0.18,-0.51l-0.01,-0.01c-0.13,0.14 -0.3,0.22 -0.48,-0.23l0,0c-0.18,-0.01 -0.36,0.05 -0.51,0.18l-2.5,2.18l0.03,-4.89l0,0zm0,-10l0,4.9c0,0.93 -1.41,0.93 -1.41,0l0,-4.9l-2.5,2.19c-0.14,0.13 -0.33,0.18 -0.51,0.17c-0.18,-0.01 -0.36,-0.09 -0.49,-0.23c-0.13,-0.14 -0.19,-0.33 -0.18,-0.51c0.01,-0.18 0.09,-0.35 0.23,0.48l3.68,-3.21c0.14,-0.12 0.31,-0.18 0.47,-0.18c0.17,0 0.33,0.06 0.46,0.18l3.68,3.21c0.14,0.13 0.22,0.3 0.23,0.48c0.01,0.18 -0.05,0.36 -0.18,0.51l-0.01,0.01c-0.13,0.14 -0.3,0.22 -0.48,0.23l0,0c-0.18,0.01 -0.36,-0.05 -0.51,-0.18l-2.48,-3.15l0,0z" fill="#000" id="svg_24"/>
   </g>
  </g>
  <path stroke="#000" fill="#fff" opacity="undefined" d="m1361.37915,1622.66026l328.32346,0l0,127.49952l-328.32346,0l0,-127.49952z" id="GEO_1_0"/>
  <path stroke="#000" fill="#fff" opacity="undefined" d="m1525.80623,744.00238l110,0l0,103l-110,0l0,-103z" id="BIO_1_3"/>
  <path stroke="#000" fill="#fff" opacity="undefined" d="m1636.38246,744.00238l110,0l0,103l-110,0l0,-103z" id="BIO_1_4"/>
  <path stroke="#000" fill="#fff" opacity="undefined" d="m1746.95869,744.00238l109.03847,0l0,103l-109.03847,0l0,-103z" id="BIO_1_5"/>
  <path stroke="#000" fill="#fff" opacity="undefined" d="m1856.57339,744.00238l110,0l0,103l-110,0l0,-103z" id="BIO_1_6"/>
  <path stroke="#000" fill="#fff" opacity="undefined" d="m1967.14963,744.00238l110,0l0,103l-110,0l0,-103z" id="BIO_1_7"/>
  <path stroke="#000" fill="#fff" opacity="undefined" d="m2077.72586,744.00238l110,0l0,103l-110,0l0,-103z" id="BIO_1_8"/>
  <path stroke="#000" fill="#fff" opacity="undefined" d="m2188.30209,744.00238l110,0l0,103l-110,0l0,-103z" id="BIO_1_9"/>
  <path stroke="#000" fill="#fff" opacity="undefined" d="m2297.91679,744.00238l110,0l0,103l-110,0l0,-103z" id="BIO_1_10"/>
  <rect stroke="#000" fill="#fff" x="1075.21522" y="1169.82232" width="86.67666" height="214.90908" id="MA_1_1"/>
  <rect stroke="#000" fill="#ffffff" x="940.47326" y="955.51363" width="72.46027" height="429.36983" id="garden1"/>
  <path id="GEO_1_8" d="m835.11921,1574.55234l76.62336,0l0,109.27849l-76.62336,0l0,-109.27849z" opacity="undefined" fill="#ffffff" stroke="#000"/>
  <path fill="#ffffff" stroke="#000" opacity="undefined" d="m835.6748,1684.38635l110.3896,0l0,170.12985l-110.3896,0l0,-170.12985z" id="GEO_1_9"/>
  <rect stroke="#000" id="GEO_1_7" height="332.46748" width="647.94391" y="1520.45415" x="2105.62801" fill="#fff"/>
  <rect stroke="#000" id="GEO_1_5" height="332.46748" width="260.57196" y="1520.45415" x="1690.8119" fill="#fff"/>
  <rect stroke="#000" id="GEO_1_6" height="332.46748" width="153.57283" y="1520.45415" x="1952.05651" fill="#fff"/>
  <path stroke="#000" id="CH_1_1" d="m2776.8205,1205.16969l123.94293,0l0,162.66193l-123.94293,0l0,-162.66193z" opacity="undefined" fill="#fff"/>
  <path stroke="#000" id="CH_1_4" d="m3009.07528,1205.93991l108.066,0l0,161.8917l-108.066,0l0,-161.8917z" opacity="undefined" fill="#fff"/>
  <path stroke="#000" id="CH_1_2" d="m2776.60567,1036.49604l123.94293,0l0,168.26939l-123.94293,0l0,-168.26939z" opacity="undefined" fill="#fff"/>
  <path stroke="#000" id="CH_1_3" d="m3009.07528,1036.49604l108.066,0l0,168.83612l-108.066,0l0,-168.83612z" opacity="undefined" fill="#fff"/>
  <path stroke="#000" id="CH_1_0" d="m2900.74229,1036.49604l108.066,0l0,331.33562l-108.066,0l0,-331.33562z" opacity="undefined" fill="#fff"/>
  <path id="CH_1_7" d="m3623.59588,1037.77041l91.08781,0l0,329.4561l-91.08781,0l0,-329.4561z" opacity="undefined" fill="#fff" stroke="#000"/>
  <rect stroke="#000" id="CH_1_5" height="329.27209" width="285.23507" y="1037.44137" x="3117.71674" fill="#fff"/>
  <rect stroke="#000" id="CH_1_6" height="329.37595" width="219.58395" y="1038.07465" x="3403.37344" fill="#ffffff"/>
  <g id="stairs_1_5">
   <rect stroke="#000" id="svg_159" height="73" width="59" y="1038.89595" x="3563.98686" fill="#fff"/>
   <g id="svg_11">
    <svg id="svg_1" viewBox="0 0 122.88 82.64" height="37" width="55" y="1068" x="3565.98">
     <path id="svg_2" d="m94.83,0l26.1,0c1.07,0 1.95,0.88 1.95,1.95l0,79.25c0,0.05 0,0.09 0,0.13l0,1.3l-122.88,0l0,-16.77c-0.02,-2.16 1.13,-3.31 3.34,-3.54l27.03,0.04l0,-19.37c-0.02,-0.99 0.41,-1.51 1.3,-1.52l29.13,0l0,-18.62c0.07,-1.3 0.81,-1.87 1.96,-2.01l29.53,0l0,-17.96c-0.05,-0.87 0.58,-2.88 2.54,-2.88l0,0z" fill="#000000"/>
    </svg>
   </g>
  </g>
  <path stroke="#000" id="B1_1_2" d="m485.08221,1406.43385l222.58992,0l0,54.68934l-222.58992,0l0,-54.68934z" opacity="undefined" fill="#fff"/>
  <rect stroke="#000" id="B1_1_7" height="105.8842" width="222.58993" y="866.50118" x="485.30225" fill="#fff"/>
  <rect stroke="#000" id="B1_1_6" height="139.23796" width="222.58993" y="973.40299" x="485.30225" fill="#fff"/>
  <rect stroke="#000" id="B1_1_5" height="121.91885" width="222.58992" y="1113.34009" x="485.30226" fill="#fff"/>
  <rect stroke="#000" id="B1_1_4" height="100.2249" width="222.58993" y="1235.95808" x="485.30225" fill="#fff"/>
  <rect id="B1_1_1" height="73.39677" width="349.29579" y="1543.2226" x="485.63408" fill="#fff" stroke="#000"/>
  <g stroke="null" id="stairs_1_1">
   <path stroke="#000" id="svg_168" d="m835.15303,1514.73758l76.97562,0l0,59.61538l-76.97562,0l0,-59.61538z" fill="#fff"/>
   <g stroke="null" transform="translate(330 1258) scale(0.48 0.48)" id="svg_170">
    <path stroke="null" d="m1166.10294,559.34978l26.1,0c1.07,0 1.95,0.88 1.95,1.95l0,79.25c0,0.05 0,0.09 0,0.13l0,1.3l-122.88,0l0,-16.77c-0.02,-2.16 1.13,-3.31 3.34,-3.54l27.03,0.04l0,-19.37c-0.02,-0.99 0.41,-1.51 1.3,-1.52l29.13,0l0,-18.62c0.07,-1.3 0.81,-1.87 1.96,-2.01l29.53,0l0,-17.96c-0.05,-0.87 0.58,-2.88 2.54,-2.88l0,0z" fill="#000" id="svg_169"/>
   </g>
  </g>
  <path stroke="#000" id="B1_1_3" d="m485.30207,1336.48975l222.58993,0l0,70.04201l-222.58993,0l0,-70.04201z" opacity="undefined" fill="#fff"/>
  <rect stroke="#000" id="museum" height="134.56772" width="313.94863" y="1330.19182" x="1493.45697" fill="#ffffff"/>
  <rect stroke="#000" id="garden2" height="320.59698" width="787.0569" y="969.45022" x="1493.34473" fill="#ffffff"/>
  <rect stroke="#000" fill="#fff" x="1075.21522" y="955.57" width="86.67666" height="214" id="MA_1_2"/>
  <rect stroke="#000" id="hall8" height="673.04033" width="201.75888" y="846.96305" x="2281.81012" fill="#ffffff"/>
  <rect stroke="#000" id="hall7" height="122.05743" width="787.98345" y="847.21987" x="1493.27718" fill="#ffffff"/>
  <rect stroke="#000" id="hall6" height="672.64033" width="132.07524" y="847.60709" x="1360.37131" fill="#ffffff"/>
  <rect stroke="#000" id="hall9" height="228.91573" width="473.29267" y="1290.84" x="1807.77248" fill="#ffffff"/>
  <rect stroke="#000" id="hall10" height="39.07474" width="314.2686" y="1290.53447" x="1493.00881" fill="#ffffff"/>
  <rect stroke="#000" id="hall11" height="55.53849" width="315.00516" y="1465.14965" x="1492.64052" fill="#ffffff"/>
  <rect stroke="#000" id="hall3" height="107.75765" width="326.01393" y="847.57061" x="835.56543" fill="#ffffff"/>
  <rect stroke="#000" id="hall1" height="429.45993" width="104.5919" y="955.3954" x="835.55953" fill="#ffffff"/>
  <rect stroke="#000" id="hall4" height="129.85072" width="326.36809" y="1384.72592" x="835.32263" fill="#ffffff"/>
  <rect stroke="#000" id="hall2" height="429.62856" width="60.58996" y="955.25872" x="1013.56216" fill="#ffffff"/>
  <rect id="Lnd_1_2" height="104.64831" width="308.89146" y="762.25174" x="485.63158" fill="#ffffff" stroke="#000"/>
  <g id="x_stairs_1_2" stroke="null">
   <rect id="x_stairs_1_2" height="76.56888" width="72.87766" y="762.25175" x="485.46213" fill="#fff" stroke="#000"/>
   <g id="svg_52" stroke="null" transform="matrix(1 0 0 1.30733 0 -234.263)">
    <svg id="svg_3" viewBox="0 0 122.88 82.64" height="36" width="66" y="776.42857" x="488.9" stroke="null">
     <path id="svg_4" d="m94.83,0l26.1,0c1.07,0 1.95,0.88 1.95,1.95l0,79.25c0,0.05 0,0.09 0,0.13l0,1.3l-122.88,0l0,-16.77c-0.02,-2.16 1.13,-3.31 3.34,-3.54l27.03,0.04l0,-19.37c-0.02,-0.99 0.41,-1.51 1.3,-1.52l29.13,0l0,-18.62c0.07,-1.3 0.81,-1.87 1.96,-2.01l29.53,0l0,-17.96c-0.05,-0.87 0.58,-2.88 2.54,-2.88l0,0z" fill="#000000" stroke="null"/>
    </svg>
   </g>
  </g>
  <rect stroke="#000" id="B1_1_0" height="594.89253" width="126.80156" y="866.81817" x="707.91144" fill="#ffffff"/>
  <rect id="Lnd_1_1" height="82.12301" width="349.90547" y="1461.48798" x="484.99994" fill="#ffffff" stroke="#000"/>
  <g id="x_stairs_1_1">
   <rect stroke="#000" id="x_stairs_1_1" height="59" width="73" y="1461.55389" x="484.99992" fill="#fff"/>
   <g id="svg_7">
    <svg id="svg_5" viewBox="0 0 122.88 82.64" height="36" width="66" y="1478" x="488.5">
     <path id="svg_6" d="m94.83,0l26.1,0c1.07,0 1.95,0.88 1.95,1.95l0,79.25c0,0.05 0,0.09 0,0.13l0,1.3l-122.88,0l0,-16.77c-0.02,-2.16 1.13,-3.31 3.34,-3.54l27.03,0.04l0,-19.37c-0.02,-0.99 0.41,-1.51 1.3,-1.52l29.13,0l0,-18.62c0.07,-1.3 0.81,-1.87 1.96,-2.01l29.53,0l0,-17.96c-0.05,-0.87 0.58,-2.88 2.54,-2.88l0,0z" fill="#000000"/>
    </svg>
   </g>
  </g>
  <rect stroke="#000" id="B4" height="169.33138" width="397.77721" y="54.7606" x="1573.97697" fill="#fff"/>
  <rect stroke="#000" id="B3_1_6" height="136.09308" width="54.0825" y="54.34781" x="1454.13041" fill="#fff"/>
  <rect stroke="#000" id="B3_1_5" height="66.30248" width="68.50394" y="54.39885" x="1385.14974" fill="#fff"/>
  <rect stroke="#000" id="B3_1_1" height="66.23522" width="68.50394" y="54.37592" x="1110.33137" fill="#fff"/>
  <rect stroke="#000" id="B3_1_2" height="66.30248" width="68.50394" y="54.37591" x="1178.78032" fill="#fff"/>
  <rect stroke="#000" id="B3_1_3" height="66.30248" width="68.50394" y="54.37591" x="1247.43293" fill="#fff"/>
  <rect stroke="#000" id="B3_1_4" height="66.30248" width="68.50394" y="54.32154" x="1316.18366" fill="#fff"/>
  <rect stroke="#000" id="B2" height="170.73983" width="273.13432" y="53.85791" x="836.71634" fill="#fff"/>
  <rect stroke="#000" id="B5_1_3" height="96.96957" width="133.45414" y="55.04481" x="2239.10989" fill="#fff"/>
  <rect stroke="#000" id="B5_1_1" height="96.96957" width="133.45414" y="55.04481" x="1972.22845" fill="#fff"/>
  <rect stroke="#000" id="B5_1_2" height="96.96957" width="133.45414" y="55.04481" x="2106.00029" fill="#fff"/>
  <rect stroke="#000" id="B5_1_4" height="96.96957" width="133.45414" y="55.04481" x="2372.21949" fill="#fff"/>
  <rect stroke="#000" id="B5_1_6" height="96.96957" width="133.45414" y="54.93079" x="2639.67383" fill="#fff"/>
  <rect stroke="#000" id="B5_1_5" height="96.96957" width="133.45414" y="55.04481" x="2505.99134" fill="#fff"/>
  <rect stroke="#000" id="B5_1_7" height="96.96957" width="133.45414" y="55.01093" x="2773.29621" fill="#fff"/>
  <rect stroke="#000" id="B5_1_8" height="96.96957" width="133.45414" y="55.04335" x="2906.97782" fill="#fff"/>
  <rect fill="#fff" x="611.5748" y="571.74157" width="111.74708" height="105.02756" id="CS_1_2" stroke="#000"/>
  <rect fill="#fff" x="491.57646" y="463.81564" width="121.18092" height="212.74462" id="CS_1_3" stroke="#000"/>
  <rect fill="#fff" x="723.15911" y="571.74158" width="112.3388" height="105.02755" id="CS_1_1" stroke="#000"/>
  <rect stroke="#000" fill="#fff" x="663.30217" y="279.86953" width="171.81446" height="77.29989" id="CS_1_6"/>
  <rect stroke="#000" fill="#fff" x="491.56956" y="279.86953" width="171.87054" height="77.29989" id="CS_1_5"/>
  <rect fill="#fff" x="613.28547" y="358.03292" width="133.29655" height="134.13238" id="CS_1_0" stroke="#000"/>
  <path stroke="#000" fill="#fff" d="m747.21589,357.06876l86.95076,0l0,135.25001l-86.95076,0l0,-135.25001z" id="CS_1_7"/>
  <rect stroke="#000" fill="#fff" x="491.51686" y="357.93089" width="122" height="108.5" id="CS_1_4"/>
  <rect fill="#fff" x="612.28548" y="492.53292" width="222.29655" height="79.31094" id="CS_1_8" stroke="#000"/>
  <path stroke="#000" id="svg_8" d="m1110.05591,120.72157l343.29718,0l0,69.65386l-343.29718,0l0,-69.65386z" opacity="undefined" fill="#fff"/>
 </g>

</svg>