<svg width="4000.0000000000005" height="2000.0000000000002" xmlns="http://www.w3.org/2000/svg" stroke="null">
 <g stroke="null">
  <title stroke="null">Layer 1</title>
  <rect stroke="#000" fill="#fff" x="398.39459" y="708.08263" width="103.15789" height="83" id="MA_5_12"/>
  <rect stroke="#000" fill="#fff" x="398.17335" y="1209.77781" width="332.49326" height="339.1228" id="nexus_5_1"/>
  <path stroke="#000" fill="#fff" opacity="undefined" d="m398.21045,187.89045l333.33334,0l0,354.34356l-333.33334,0l0,-354.34356z" id="nexus_5_2"/>
  <rect stroke="#000" fill="#fff" x="501.69964" y="542.74495" width="125.50016" height="666.47739" id="MA_5_0"/>
  <g id="MA_5_8">
   <path stroke="#000" fill="#fff" d="m627.42272,624.17348l103.1579,0l0,81.81555l-103.1579,0l0,-81.81555z" id="svg_23"/>
   <g id="svg_6" transform="rotate(90 682.521 660.094) translate(670 630) scale(0.6 0.6)">
    <path id="svg_9" fill="#000" d="m22.06794,-3.04411a10.34,10.34 0 1 1 -10.34,10.34a10.34,10.34 0 0 1 10.34,-10.34zm13.07,38.93l0,78.23a5.74,5.74 0 0 1 -5.72,5.72l0,0a5.73,5.73 0 0 1 -5.72,-5.72l0,-46l-3.11,0l0,46a5.74,5.74 0 0 1 -5.72,5.72l0,0a5.74,5.74 0 0 1 -5.72,-5.72l0,-78.23l-2,0l0,28.75c0,5.73 -8.67,5.73 -8.67,0l0,-30.94c0,-5 1.69,-8.56 4.77,-10.88c5.3,-4 32.33,-4 37.63,0c3.08,2.32 4.79,5.85 4.78,10.88l0,30.94c0,5.73 -8.68,5.73 -8.68,0l0,-28.75l-1.84,0z"/>
   </g>
  </g>
  <g id="GEO_5_1">
   <path stroke="#000" fill="#fff" d="m720.7921,1456.23387l103.1579,0l0,81.81555l-103.1579,0l0,-81.81555z" id="svg_24" transform="rotate(90 772.371 1497.14)"/>
   <g id="svg_10" transform="translate(760, 1465) scale(0.6)">
    <path id="svg_17" fill="#000" d="m23.59,0a10.34,10.34 0 1 1 -10.34,10.34a10.34,10.34 0 0 1 10.34,-10.34zm13.07,38.93l0,78.23a5.74,5.74 0 0 1 -5.72,5.72l0,0a5.73,5.73 0 0 1 -5.72,-5.72l0,-46l-3.11,0l0,46a5.74,5.74 0 0 1 -5.72,5.72l0,0a5.74,5.74 0 0 1 -5.72,-5.72l0,-78.23l-2,0l0,28.75c0,5.73 -8.67,5.73 -8.67,0l0,-30.94c0,-5 1.69,-8.56 4.77,-10.88c5.3,-4 32.33,-4 37.63,0c3.08,2.32 4.79,5.85 4.78,10.88l0,30.94c0,5.73 -8.68,5.73 -8.68,0l0,-28.75l-1.84,0z"/>
   </g>
  </g>
  <g id="GEO_5_2">
   <path stroke="#000" fill="#fff" d="m803.33363,1455.86939l103.1579,0l0,82.34185l-103.1579,0l0,-82.34185z" id="svg_32" transform="rotate(90 854.913 1497.04)"/>
   <g id="svg_20" transform="translate(835, 1465) scale(0.55)">
    <path id="svg_26" fill="#000" d="m19.71,40.39l-12.47,51.61l12.47,0l0,25.13a5.73,5.73 0 0 0 5.72,5.72l0,0a5.73,5.73 0 0 0 5.71,-5.72l0,-25.13l2.26,0l0,25.13a5.73,5.73 0 0 0 5.71,5.72l0,0a5.73,5.73 0 0 0 5.72,-5.72l0,-25.13l11.77,0l-11.77,-50.27l0,-2.8l1.85,0l0.13,0l8.82,31.38a4.45,4.45 0 0 0 8.56,-2.4l-8.94,-31.8a4.29,4.29 0 0 0 -0.19,-0.54c-1.13,-4.72 -1.64,-7.54 -4.49,-9.68c-5.3,-4 -30.91,-4 -36.2,0c-3.08,2.32 -4.2,5.87 -5.54,10.88l0.08,0l-8.74,31.11a4.44,4.44 0 1 0 8.55,2.4l8.83,-31.39l0.16,0l2,0l0,1.46l0,0.04zm12.49,-40.39a10.34,10.34 0 1 1 -10.34,10.34a10.34,10.34 0 0 1 10.34,-10.34z"/>
   </g>
  </g>
  <rect stroke="#000" fill="#fff" x="1339.87485" y="1445.99318" width="148" height="102.66667" id="GEO_5_6"/>
  <rect stroke="#000" fill="#fff" x="1689.57414" y="1215.80307" width="247.61946" height="102.66667" id="GEO_5_13"/>
  <rect stroke="#000" fill="#fff" x="1209.17567" y="1215.83915" width="242.49252" height="102.66667" id="GEO_5_15"/>
  <rect fill="#fff" x="730.29073" y="1215.83915" width="241" height="102.66667" id="GEO_5_17" stroke="#000"/>
  <g id="stairs_5_5">
   <path stroke="#000" fill="#fff" d="m3178.27102,762.95063l82.47835,0l0,59.61538l-82.47835,0l0,-59.61538z" id="svg_41" transform="rotate(90 3219.51 792.758)"/>
   <g id="svg_38" transform="translate(3195, 790) scale(0.42)">
    <path id="svg_39" fill="#000" d="m94.83,0l26.1,0c1.07,0 1.95,0.88 1.95,1.95l0,79.25c0,0.05 0,0.09 0,0.13l0,1.3l-122.88,0l0,-16.77c-0.02,-2.16 1.13,-3.31 3.34,-3.54l27.03,0.04l0,-19.37c-0.02,-0.99 0.41,-1.51 1.3,-1.52l29.13,0l0,-18.62c0.07,-1.3 0.81,-1.87 1.96,-2.01l29.53,0l0,-17.96c-0.05,-0.87 0.58,-2.88 2.54,-2.88l0,0z"/>
   </g>
  </g>
  <g id="MA_5_9">
   <path stroke="#000" fill="#fff" d="m627.42272,542.42009l103.1579,0l0,81.81555l-103.1579,0l0,-81.81555z" id="svg_44"/>
   <g id="svg_42" transform="rotate(90 687.962 585.326) translate(670 555) scale(0.55 0.55)">
    <path id="svg_43" fill="#000" d="m18.04957,38.72957l-12.47,51.61l12.47,0l0,25.13a5.73,5.73 0 0 0 5.72,5.72l0,0a5.73,5.73 0 0 0 5.71,-5.72l0,-25.13l2.26,0l0,25.13a5.73,5.73 0 0 0 5.71,5.72l0,0a5.73,5.73 0 0 0 5.72,-5.72l0,-25.13l11.77,0l-11.77,-50.27l0,-2.8l1.85,0l0.13,0l8.82,31.38a4.45,4.45 0 0 0 8.56,-2.4l-8.94,-31.8a4.29,4.29 0 0 0 -0.19,-0.54c-1.13,-4.72 -1.64,-7.54 -4.49,-9.68c-5.3,-4 -30.91,-4 -36.2,0c-3.08,2.32 -4.2,5.87 -5.54,10.88l0.08,0l-8.74,31.11a4.44,4.44 0 1 0 8.55,2.4l8.83,-31.39l0.16,0l2,0l0,1.46l0,0.04zm12.49,-40.39a10.34,10.34 0 1 1 -10.34,10.34a10.34,10.34 0 0 1 10.34,-10.34z"/>
   </g>
  </g>
  <g id="BIO_5_1">
   <path stroke="#000" fill="#fff" d="m721.18465,449.80059l103.1579,0l0,81.81555l-103.1579,0l0,-81.81555z" id="svg_45" transform="rotate(90 772.764 490.708)"/>
   <g id="svg_47" transform="translate(760, 455) scale(0.6)">
    <path id="svg_48" fill="#000" d="m23.59,0a10.34,10.34 0 1 1 -10.34,10.34a10.34,10.34 0 0 1 10.34,-10.34zm13.07,38.93l0,78.23a5.74,5.74 0 0 1 -5.72,5.72l0,0a5.73,5.73 0 0 1 -5.72,-5.72l0,-46l-3.11,0l0,46a5.74,5.74 0 0 1 -5.72,5.72l0,0a5.74,5.74 0 0 1 -5.72,-5.72l0,-78.23l-2,0l0,28.75c0,5.73 -8.67,5.73 -8.67,0l0,-30.94c0,-5 1.69,-8.56 4.77,-10.88c5.3,-4 32.33,-4 37.63,0c3.08,2.32 4.79,5.85 4.78,10.88l0,30.94c0,5.73 -8.68,5.73 -8.68,0l0,-28.75l-1.84,0z"/>
   </g>
  </g>
  <path stroke="#000" fill="#fff" opacity="undefined" d="m731.66531,187.77206l270.94194,0l0,103.61003l-270.94194,0l0,-103.61003z" id="BIO_5_18"/>
  <rect stroke="#000" fill="#fff" x="1531.46656" y="188.1643" width="299.24523" height="103.19024" id="BIO_5_15"/>
  <rect stroke="#000" fill="#fff" x="1002.76591" y="187.65408" width="265.53568" height="103.77154" id="BIO_5_17"/>
  <rect stroke="#000" fill="#fff" x="1268.1922" y="188.14392" width="263.8231" height="103.42514" id="BIO_5_16"/>
  <rect stroke="#000" fill="#fff" x="1830.57241" y="188.10384" width="199.06968" height="103" id="BIO_5_14"/>
  <path stroke="#000" fill="#fff" opacity="undefined" d="m2029.95759,188.04219l188.94556,0l0,103l-188.94556,0l0,-103z" id="BIO_5_13"/>
  <path fill="#fff" opacity="undefined" d="m2105.65571,327.40085l148.72509,0l0,76.56711l-148.72509,0l0,-76.56711z" id="BIO_5_12" stroke="#000" transform="rotate(90 2180.02 365.684)"/>
  <rect fill="#fff" x="2077.50866" y="439.79692" width="140.91893" height="102.53243" id="BIO_5_11" stroke="#000"/>
  <rect stroke="#000" fill="#fff" x="1937.20404" y="1078.90885" width="147.71061" height="469.67026" id="nexus_5_5"/>
  <rect stroke="#000" fill="#fff" x="895.93955" y="440.07285" width="125.74702" height="102.25431" id="BIO_5_3"/>
  <g id="stairs_5_4">
   <path stroke="#000" fill="#fff" d="m1854.73096,1109.69293l82.43374,0l0,59.61538l-82.43374,0l0,-59.61538z" id="svg_79"/>
   <g id="svg_49" transform="translate(1866, 1120) scale(0.5)">
    <path id="svg_50" fill="#000" d="m94.83,0l26.1,0c1.07,0 1.95,0.88 1.95,1.95l0,79.25c0,0.05 0,0.09 0,0.13l0,1.3l-122.88,0l0,-16.77c-0.02,-2.16 1.13,-3.31 3.34,-3.54l27.03,0.04l0,-19.37c-0.02,-0.99 0.41,-1.51 1.3,-1.52l29.13,0l0,-18.62c0.07,-1.3 0.81,-1.87 1.96,-2.01l29.53,0l0,-17.96c-0.05,-0.87 0.58,-2.88 2.54,-2.88l0,0z"/>
   </g>
  </g>
  <rect fill="#fff" x="1951.86661" y="439.88398" width="125.21519" height="276.30138" id="nexus_5_3" stroke="#000"/>
  <rect stroke="#000" fill="#fff" x="1935.21885" y="716.0053" width="210.81253" height="362.55146" id="nexus_5_4"/>
  <rect stroke="#000" fill="#fff" x="2146.69604" y="834.42898" width="1209.50331" height="125.00001" id="CH_5_0"/>
  <g id="BIO_5_2">
   <path stroke="#000" fill="#fff" d="m803.11232,449.74573l103.1579,0l0,81.81555l-103.1579,0l0,-81.81555z" id="svg_87" transform="rotate(90 854.691 490.653)"/>
   <g id="svg_51" transform="translate(835, 460) scale(0.55)">
    <path id="svg_52" fill="#000" d="m19.71,40.39l-12.47,51.61l12.47,0l0,25.13a5.73,5.73 0 0 0 5.72,5.72l0,0a5.73,5.73 0 0 0 5.71,-5.72l0,-25.13l2.26,0l0,25.13a5.73,5.73 0 0 0 5.71,5.72l0,0a5.73,5.73 0 0 0 5.72,-5.72l0,-25.13l11.77,0l-11.77,-50.27l0,-2.8l1.85,0l0.13,0l8.82,31.38a4.45,4.45 0 0 0 8.56,-2.4l-8.94,-31.8a4.29,4.29 0 0 0 -0.19,-0.54c-1.13,-4.72 -1.64,-7.54 -4.49,-9.68c-5.3,-4 -30.91,-4 -36.2,0c-3.08,2.32 -4.2,5.87 -5.54,10.88l0.08,0l-8.74,31.11a4.44,4.44 0 1 0 8.55,2.4l8.83,-31.39l0.16,0l2,0l0,1.46l0,0.04zm12.49,-40.39a10.34,10.34 0 1 1 -10.34,10.34a10.34,10.34 0 0 1 10.34,-10.34z"/>
   </g>
  </g>
  <g id="CH_5_1">
   <path stroke="#000" fill="#fff" d="m2135.0313,970.50659l103.1579,0l0,81.81555l-103.1579,0l0,-81.81555z" id="svg_88" transform="rotate(90 2186.61 1011.41)"/>
   <g id="svg_56" transform="translate(2172, 980) scale(0.6)">
    <path id="svg_60" fill="#000" d="m23.59,0a10.34,10.34 0 1 1 -10.34,10.34a10.34,10.34 0 0 1 10.34,-10.34zm13.07,38.93l0,78.23a5.74,5.74 0 0 1 -5.72,5.72l0,0a5.73,5.73 0 0 1 -5.72,-5.72l0,-46l-3.11,0l0,46a5.74,5.74 0 0 1 -5.72,5.72l0,0a5.74,5.74 0 0 1 -5.72,-5.72l0,-78.23l-2,0l0,28.75c0,5.73 -8.67,5.73 -8.67,0l0,-30.94c0,-5 1.69,-8.56 4.77,-10.88c5.3,-4 32.33,-4 37.63,0c3.08,2.32 4.79,5.85 4.78,10.88l0,30.94c0,5.73 -8.68,5.73 -8.68,0l0,-28.75l-1.84,0z"/>
   </g>
  </g>
  <g id="CH_5_2">
   <path stroke="#000" fill="#fff" d="m2216.47151,970.47668l103.1579,0l0,81.81555l-103.1579,0l0,-81.81555z" id="svg_89" transform="rotate(90 2268.05 1011.38)"/>
   <g id="svg_63" transform="translate(2245, 980) scale(0.55)">
    <path id="svg_65" fill="#000" d="m19.71,40.39l-12.47,51.61l12.47,0l0,25.13a5.73,5.73 0 0 0 5.72,5.72l0,0a5.73,5.73 0 0 0 5.71,-5.72l0,-25.13l2.26,0l0,25.13a5.73,5.73 0 0 0 5.71,5.72l0,0a5.73,5.73 0 0 0 5.72,-5.72l0,-25.13l11.77,0l-11.77,-50.27l0,-2.8l1.85,0l0.13,0l8.82,31.38a4.45,4.45 0 0 0 8.56,-2.4l-8.94,-31.8a4.29,4.29 0 0 0 -0.19,-0.54c-1.13,-4.72 -1.64,-7.54 -4.49,-9.68c-5.3,-4 -30.91,-4 -36.2,0c-3.08,2.32 -4.2,5.87 -5.54,10.88l0.08,0l-8.74,31.11a4.44,4.44 0 1 0 8.55,2.4l8.83,-31.39l0.16,0l2,0l0,1.46l0,0.04zm12.49,-40.39a10.34,10.34 0 1 1 -10.34,10.34a10.34,10.34 0 0 1 10.34,-10.34z"/>
   </g>
  </g>
  <path stroke="#000" fill="#fff" opacity="undefined" d="m3249.45208,730.47716l206.48628,0l0,103.30562l-206.48628,0l0,-103.30562z" id="CH_5_14"/>
  <path fill="#fff" opacity="undefined" d="m2146.15961,731.21925l563.95898,0l0,103.30561l-563.95898,0l0,-103.30561z" id="CH_5_16" stroke="#000"/>
  <path stroke="#000" fill="#fff" opacity="undefined" d="m2450.01901,959.83167l101.64752,0l0,103.30561l-101.64752,0l0,-103.30561z" id="CH_5_4"/>
  <path stroke="#000" fill="#fff" opacity="undefined" d="m2551.77306,959.83166l135.75619,0l0,103.30562l-135.75619,0l0,-103.30562z" id="CH_5_5"/>
  <path stroke="#000" fill="#fff" opacity="undefined" d="m2686.86061,959.83167l78.39162,0l0,103.30561l-78.39162,0l0,-103.30561z" id="CH_5_6"/>
  <path stroke="#000" fill="#fff" opacity="undefined" d="m2309.08374,959.83167l140.82872,0l0,103.30561l-140.82872,0l0,-103.30561z" id="CH_5_3"/>
  <path fill="#fff" opacity="undefined" d="m2710.33058,731.35485l479.51369,0l0,103.30561l-479.51369,0l0,-103.30561z" id="CH_5_15" stroke="#000"/>
  <path stroke="#000" fill="#fff" opacity="undefined" d="m3142.05362,959.83167l80.81025,0l0,103.30561l-80.81025,0l0,-103.30561z" id="CH_5_10"/>
  <path stroke="#000" fill="#fff" opacity="undefined" d="m3222.77227,959.83167l92.29865,0l0,103.30561l-92.29865,0l0,-103.30561z" id="CH_5_11"/>
  <rect stroke="#000" fill="#fff" x="3356.61298" y="834.35482" width="100" height="125.80643" id="CH_5_13"/>
  <path stroke="#000" fill="#fff" opacity="undefined" d="m3315.03623,959.83167l141.81953,0l0,103.30561l-141.81953,0l0,-103.30561z" id="CH_5_12"/>
  <g id="stairs_5_1">
   <path stroke="#000" fill="#fff" d="m320.94203,1246.24969l76.97562,0l0,59.61538l-76.97562,0l0,-59.61538z" id="svg_101"/>
   <g id="svg_66" transform="translate(330 1258) scale(0.48 0.48)">
    <path id="svg_67" fill="#000" d="m94.83,0l26.1,0c1.07,0 1.95,0.88 1.95,1.95l0,79.25c0,0.05 0,0.09 0,0.13l0,1.3l-122.88,0l0,-16.77c-0.02,-2.16 1.13,-3.31 3.34,-3.54l27.03,0.04l0,-19.37c-0.02,-0.99 0.41,-1.51 1.3,-1.52l29.13,0l0,-18.62c0.07,-1.3 0.81,-1.87 1.96,-2.01l29.53,0l0,-17.96c-0.05,-0.87 0.58,-2.88 2.54,-2.88l0,0z"/>
   </g>
  </g>
  <path stroke="#000" fill="#fff" opacity="undefined" d="m2842.02176,959.83167l167.84497,0l0,103.30561l-167.84497,0l0,-103.30561z" id="CH_5_8"/>
  <path stroke="#000" fill="#fff" opacity="undefined" d="m2765.35881,959.83168l76.84122,0l0,103.30561l-76.84122,0l0,-103.30561z" id="CH_5_7"/>
  <g id="stairs_5_3">
   <path stroke="#000" fill="#fff" d="m1866.22648,633.34369l85.83638,0l0,57.08374l-85.83638,0l0,-57.08374z" id="svg_109"/>
   <g id="svg_68" transform="translate(1878, 642) scale(0.5)">
    <path id="svg_70" fill="#000" d="m94.83,0l26.1,0c1.07,0 1.95,0.88 1.95,1.95l0,79.25c0,0.05 0,0.09 0,0.13l0,1.3l-122.88,0l0,-16.77c-0.02,-2.16 1.13,-3.31 3.34,-3.54l27.03,0.04l0,-19.37c-0.02,-0.99 0.41,-1.51 1.3,-1.52l29.13,0l0,-18.62c0.07,-1.3 0.81,-1.87 1.96,-2.01l29.53,0l0,-17.96c-0.05,-0.87 0.58,-2.88 2.54,-2.88l0,0z"/>
   </g>
  </g>
  <g id="stairs_5_2">
   <path stroke="#000" fill="#fff" d="m323.47368,460.14243l74.44398,0l0,59.61538l-74.44398,0l0,-59.61538z" id="svg_110"/>
   <g id="svg_71" transform="translate(332, 472) scale(0.48)">
    <path id="svg_73" fill="#000" d="m94.83,0l26.1,0c1.07,0 1.95,0.88 1.95,1.95l0,79.25c0,0.05 0,0.09 0,0.13l0,1.3l-122.88,0l0,-16.77c-0.02,-2.16 1.13,-3.31 3.34,-3.54l27.03,0.04l0,-19.37c-0.02,-0.99 0.41,-1.51 1.3,-1.52l29.13,0l0,-18.62c0.07,-1.3 0.81,-1.87 1.96,-2.01l29.53,0l0,-17.96c-0.05,-0.87 0.58,-2.88 2.54,-2.88l0,0z"/>
   </g>
  </g>
  <g id="elevator_5_3">
   <rect fill="#fff" stroke="#000" x="2077.93774" y="576.89642" width="73.41772" height="87.34177" id="svg_2"/>
   <g id="svg_81" transform="translate(2013 1081) scale(0.68 0.68)">
    <path id="svg_83" fill="#000" d="m188.43082,-680.74895l0,20.52c0,6.08 -15.49,6.08 -15.49,0l0,-20.52c0,-6.08 15.49,-6.08 15.49,0l0,0zm-86,-57.62l93.95,0c1.26,0 2.4,0.51 3.23,1.34c0.83,0.83 1.34,1.97 1.34,3.23l0,113.75c0,1.26 -0.51,2.4 -1.34,3.23c-0.83,0.83 -1.97,1.34 -3.23,1.34l-93.95,0c-1.26,0 -2.4,-0.51 -3.23,-1.34c-0.83,-0.84 -1.34,-1.98 -1.34,-3.24l0,-113.74c0,-1.26 0.51,-2.4 1.34,-3.23c0.83,-0.83 1.97,-1.34 3.23,-1.34l0,0zm37.26,17.37l0,7.81c0,1.68 -3.16,1.68 -3.16,0l0,-7.82l-2.67,2.6c-1.25,1.09 -2.93,-0.78 -1.69,-1.9l5.1,-4.76c0.48,-0.43 1.22,-0.42 1.69,0.01c1.6,1.53 3.49,3.24 5.1,4.77c1.21,1.14 -0.5,2.96 -1.71,1.87l-2.66,-2.58l0,0zm-14.59,15.98l29.65,0c2.35,0 4.49,0.96 6.04,2.51c1.55,1.55 2.51,3.69 2.51,6.04l0,58.68c0,2.35 -1.27,4.49 -2.82,6.04c-1.55,1.55 -3.38,2.51 -5.73,2.51l-29.65,0c-2.35,0 -4.49,-0.96 -6.04,-2.51c-1.55,-1.55 -2.51,-3.69 -2.51,-6.04l0,-58.69c0,-2.35 0.96,-4.49 2.51,-6.04c1.55,-1.54 3.69,-2.5 6.04,-2.5l0,0zm11.01,4.88c0,-0.07 0,-0.14 0.01,-0.21l-10.71,0c-1.23,0 -2.35,0.51 -3.17,1.32c-0.81,0.81 -1.32,1.94 -1.32,3.17l0,57.45c0,1.23 0.51,2.35 1.32,3.17c0.81,0.81 1.94,1.32 3.17,1.32l10.71,0c-0.01,-0.07 -0.01,-0.14 -0.01,-0.21l0,-66.01l0,0zm4.06,-0.21c0.01,0.07 0.01,0.14 0.01,0.21l0,66.01c0,0.07 0,0.14 -0.01,0.21l14.28,0c1.23,0 2.35,-0.51 3.17,-1.32c0.81,-0.81 1.32,-1.93 1.32,-3.17l0,-57.45c0,-1.23 -0.51,-2.35 -1.32,-3.17c-0.81,-0.81 -1.93,-1.32 -3.17,-1.32l-14.28,0l0,0zm55.36,-32.39l-92.26,0c-0.05,0 -0.11,0.02 -0.14,0.06c-0.04,0.04 -0.06,0.09 -0.06,0.14l0,111.21c0,0.05 0.02,0.11 0.06,0.14c0.04,0.04 0.09,0.06 0.14,0.06l92.26,0c0.11,0 0.21,-0.1 0.21,-0.21l0,-111.2c0,-0.05 -0.02,-0.11 -0.06,-0.14c-0.05,-0.04 -0.1,-0.06 -0.15,-0.06l0,0zm-14.14,64.8c0,-0.19 -0.08,-0.37 -0.21,-0.5c-0.13,-0.13 -0.3,-0.21 -0.5,-0.21c-0.19,0 -0.37,0.08 -0.5,0.21c-0.13,0.13 -0.21,0.3 -0.21,0.5l0,4.9l-2.5,-2.19c-0.14,-0.13 -0.33,-0.18 -0.51,-0.17c-0.18,0.01 -0.36,0.09 -0.49,0.23c-0.13,0.14 -0.19,0.33 -0.18,0.51c0.01,0.18 0.09,0.35 0.23,0.48l3.68,3.21c0.14,0.12 0.31,0.18 0.47,0.18c0.17,0 0.33,-0.06 0.46,-0.18l3.68,-3.21c0.14,-0.13 0.22,-0.3 0.23,-0.48c0.01,-0.18 -0.05,-0.36 -0.18,-0.51l-0.01,-0.01c-0.13,0.14 -0.3,0.22 -0.48,-0.23l0,0c-0.18,-0.01 -0.36,0.05 -0.51,0.18l-2.5,2.18l0.03,-4.89l0,0zm0,-10l0,4.9c0,0.93 -1.41,0.93 -1.41,0l0,-4.9l-2.5,2.19c-0.14,0.13 -0.33,0.18 -0.51,0.17c-0.18,-0.01 -0.36,-0.09 -0.49,-0.23c-0.13,-0.14 -0.19,-0.33 -0.18,-0.51c0.01,-0.18 0.09,-0.35 0.23,0.48l3.68,-3.21c0.14,-0.12 0.31,-0.18 0.47,-0.18c0.17,0 0.33,0.06 0.46,0.18l3.68,3.21c0.14,0.13 0.22,0.3 0.23,0.48c0.01,0.18 -0.05,0.36 -0.18,0.51l-0.01,0.01c-0.13,0.14 -0.3,0.22 -0.48,0.23l0,0c-0.18,0.01 -0.36,-0.05 -0.51,-0.18l-2.48,-3.15l0,0z"/>
   </g>
  </g>
  <g id="elevator_5_2">
   <rect fill="#fff" stroke="#000" x="658.2278" y="454.9367" width="73.41772" height="87.34177" id="svg_3"/>
   <g id="svg_84" transform="translate(659, 457) scale(0.68)">
    <path id="svg_86" fill="#000" d="m90.57,57.62l0,20.52c0,6.08 -15.49,6.08 -15.49,0l0,-20.52c0,-6.08 15.49,-6.08 15.49,0l0,0zm-86,-57.62l93.95,0c1.26,0 2.4,0.51 3.23,1.34c0.83,0.83 1.34,1.97 1.34,3.23l0,113.75c0,1.26 -0.51,2.4 -1.34,3.23c-0.83,0.83 -1.97,1.34 -3.23,1.34l-93.95,0c-1.26,0 -2.4,-0.51 -3.23,-1.34c-0.83,-0.84 -1.34,-1.98 -1.34,-3.24l0,-113.74c0,-1.26 0.51,-2.4 1.34,-3.23c0.83,-0.83 1.97,-1.34 3.23,-1.34l0,0zm37.26,17.37l0,7.81c0,1.68 -3.16,1.68 -3.16,0l0,-7.82l-2.67,2.6c-1.25,1.09 -2.93,-0.78 -1.69,-1.9l5.1,-4.76c0.48,-0.43 1.22,-0.42 1.69,0.01c1.6,1.53 3.49,3.24 5.1,4.77c1.21,1.14 -0.5,2.96 -1.71,1.87l-2.66,-2.58l0,0zm-14.59,15.98l29.65,0c2.35,0 4.49,0.96 6.04,2.51c1.55,1.55 2.51,3.69 2.51,6.04l0,58.68c0,2.35 -1.27,4.49 -2.82,6.04c-1.55,1.55 -3.38,2.51 -5.73,2.51l-29.65,0c-2.35,0 -4.49,-0.96 -6.04,-2.51c-1.55,-1.55 -2.51,-3.69 -2.51,-6.04l0,-58.69c0,-2.35 0.96,-4.49 2.51,-6.04c1.55,-1.54 3.69,-2.5 6.04,-2.5l0,0zm11.01,4.88c0,-0.07 0,-0.14 0.01,-0.21l-10.71,0c-1.23,0 -2.35,0.51 -3.17,1.32c-0.81,0.81 -1.32,1.94 -1.32,3.17l0,57.45c0,1.23 0.51,2.35 1.32,3.17c0.81,0.81 1.94,1.32 3.17,1.32l10.71,0c-0.01,-0.07 -0.01,-0.14 -0.01,-0.21l0,-66.01l0,0zm4.06,-0.21c0.01,0.07 0.01,0.14 0.01,0.21l0,66.01c0,0.07 0,0.14 -0.01,0.21l14.28,0c1.23,0 2.35,-0.51 3.17,-1.32c0.81,-0.81 1.32,-1.93 1.32,-3.17l0,-57.45c0,-1.23 -0.51,-2.35 -1.32,-3.17c-0.81,-0.81 -1.93,-1.32 -3.17,-1.32l-14.28,0l0,0zm55.36,-32.39l-92.26,0c-0.05,0 -0.11,0.02 -0.14,0.06c-0.04,0.04 -0.06,0.09 -0.06,0.14l0,111.21c0,0.05 0.02,0.11 0.06,0.14c0.04,0.04 0.09,0.06 0.14,0.06l92.26,0c0.11,0 0.21,-0.1 0.21,-0.21l0,-111.2c0,-0.05 -0.02,-0.11 -0.06,-0.14c-0.05,-0.04 -0.1,-0.06 -0.15,-0.06l0,0zm-14.14,64.8c0,-0.19 -0.08,-0.37 -0.21,-0.5c-0.13,-0.13 -0.3,-0.21 -0.5,-0.21c-0.19,0 -0.37,0.08 -0.5,0.21c-0.13,0.13 -0.21,0.3 -0.21,0.5l0,4.9l-2.5,-2.19c-0.14,-0.13 -0.33,-0.18 -0.51,-0.17c-0.18,0.01 -0.36,0.09 -0.49,0.23c-0.13,0.14 -0.19,0.33 -0.18,0.51c0.01,0.18 0.09,0.35 0.23,0.48l3.68,3.21c0.14,0.12 0.31,0.18 0.47,0.18c0.17,0 0.33,-0.06 0.46,-0.18l3.68,-3.21c0.14,-0.13 0.22,-0.3 0.23,-0.48c0.01,-0.18 -0.05,-0.36 -0.18,-0.51l-0.01,-0.01c-0.13,0.14 -0.3,0.22 -0.48,-0.23l0,0c-0.18,-0.01 -0.36,0.05 -0.51,0.18l-2.5,2.18l0.03,-4.89l0,0zm0,-10l0,4.9c0,0.93 -1.41,0.93 -1.41,0l0,-4.9l-2.5,2.19c-0.14,0.13 -0.33,0.18 -0.51,0.17c-0.18,-0.01 -0.36,-0.09 -0.49,-0.23c-0.13,-0.14 -0.19,-0.33 -0.18,-0.51c0.01,-0.18 0.09,-0.35 0.23,-0.48l3.68,-3.21c0.14,-0.12 0.31,-0.18 0.47,-0.18c0.17,0 0.33,0.06 0.46,0.18l3.68,3.21c0.14,0.13 0.22,0.3 0.23,0.48c0.01,0.18 -0.05,0.36 -0.18,0.51l-0.01,0.01c-0.13,0.14 -0.3,0.22 -0.48,0.23l0,0c-0.18,0.01 -0.36,-0.05 -0.51,-0.18l-2.48,-2.19l0,0z"/>
   </g>
  </g>
  <g id="elevator_5_1">
   <rect fill="#fff" stroke="#000" x="656.96199" y="1209.36709" width="73.41772" height="87.34177" id="svg_4"/>
   <g id="svg_102" transform="translate(658, 1211) scale(0.68)">
    <path id="svg_111" fill="#000" d="m90.57,57.62l0,20.52c0,6.08 -15.49,6.08 -15.49,0l0,-20.52c0,-6.08 15.49,-6.08 15.49,0l0,0zm-86,-57.62l93.95,0c1.26,0 2.4,0.51 3.23,1.34c0.83,0.83 1.34,1.97 1.34,3.23l0,113.75c0,1.26 -0.51,2.4 -1.34,3.23c-0.83,0.83 -1.97,1.34 -3.23,1.34l-93.95,0c-1.26,0 -2.4,-0.51 -3.23,-1.34c-0.83,-0.84 -1.34,-1.98 -1.34,-3.24l0,-113.74c0,-1.26 0.51,-2.4 1.34,-3.23c0.83,-0.83 1.97,-1.34 3.23,-1.34l0,0zm37.26,17.37l0,7.81c0,1.68 -3.16,1.68 -3.16,0l0,-7.82l-2.67,2.6c-1.25,1.09 -2.93,-0.78 -1.69,-1.9l5.1,-4.76c0.48,-0.43 1.22,-0.42 1.69,0.01c1.6,1.53 3.49,3.24 5.1,4.77c1.21,1.14 -0.5,2.96 -1.71,1.87l-2.66,-2.58l0,0zm-14.59,15.98l29.65,0c2.35,0 4.49,0.96 6.04,2.51c1.55,1.55 2.51,3.69 2.51,6.04l0,58.68c0,2.35 -1.27,4.49 -2.82,6.04c-1.55,1.55 -3.38,2.51 -5.73,2.51l-29.65,0c-2.35,0 -4.49,-0.96 -6.04,-2.51c-1.55,-1.55 -2.51,-3.69 -2.51,-6.04l0,-58.69c0,-2.35 0.96,-4.49 2.51,-6.04c1.55,-1.54 3.69,-2.5 6.04,-2.5l0,0zm11.01,4.88c0,-0.07 0,-0.14 0.01,-0.21l-10.71,0c-1.23,0 -2.35,0.51 -3.17,1.32c-0.81,0.81 -1.32,1.94 -1.32,3.17l0,57.45c0,1.23 0.51,2.35 1.32,3.17c0.81,0.81 1.94,1.32 3.17,1.32l10.71,0c-0.01,-0.07 -0.01,-0.14 -0.01,-0.21l0,-66.01l0,0zm4.06,-0.21c0.01,0.07 0.01,0.14 0.01,0.21l0,66.01c0,0.07 0,0.14 -0.01,0.21l14.28,0c1.23,0 2.35,-0.51 3.17,-1.32c0.81,-0.81 1.32,-1.93 1.32,-3.17l0,-57.45c0,-1.23 -0.51,-2.35 -1.32,-3.17c-0.81,-0.81 -1.93,-1.32 -3.17,-1.32l-14.28,0l0,0zm55.36,-32.39l-92.26,0c-0.05,0 -0.11,0.02 -0.14,0.06c-0.04,0.04 -0.06,0.09 -0.06,0.14l0,111.21c0,0.05 0.02,0.11 0.06,0.14c0.04,0.04 0.09,0.06 0.14,0.06l92.26,0c0.11,0 0.21,-0.1 0.21,-0.21l0,-111.2c0,-0.05 -0.02,-0.11 -0.06,-0.14c-0.05,-0.04 -0.1,-0.06 -0.15,-0.06l0,0zm-14.14,64.8c0,-0.19 -0.08,-0.37 -0.21,-0.5c-0.13,-0.13 -0.3,-0.21 -0.5,-0.21c-0.19,0 -0.37,0.08 -0.5,0.21c-0.13,0.13 -0.21,0.3 -0.21,0.5l0,4.9l-2.5,-2.19c-0.14,-0.13 -0.33,-0.18 -0.51,-0.17c-0.18,0.01 -0.36,0.09 -0.49,0.23c-0.13,0.14 -0.19,0.33 -0.18,0.51c0.01,0.18 0.09,0.35 0.23,0.48l3.68,3.21c0.14,0.12 0.31,0.18 0.47,0.18c0.17,0 0.33,-0.06 0.46,-0.18l3.68,-3.21c0.14,-0.13 0.22,-0.3 0.23,-0.48c0.01,-0.18 -0.05,-0.36 -0.18,-0.51l-0.01,-0.01c-0.13,0.14 -0.3,0.22 -0.48,-0.23l0,0c-0.18,-0.01 -0.36,0.05 -0.51,0.18l-2.5,2.18l0.03,-4.89l0,0zm0,-10l0,4.9c0,0.93 -1.41,0.93 -1.41,0l0,-4.9l-2.5,2.19c-0.14,0.13 -0.33,0.18 -0.51,0.17c-0.18,-0.01 -0.36,-0.09 -0.49,-0.23c-0.13,-0.14 -0.19,-0.33 -0.18,-0.51c0.01,-0.18 0.09,-0.35 0.23,0.48l3.68,-3.21c0.14,-0.12 0.31,-0.18 0.47,-0.18c0.17,0 0.33,0.06 0.46,0.18l3.68,3.21c0.14,0.13 0.22,0.3 0.23,0.48c0.01,0.18 -0.05,0.36 -0.18,0.51l-0.01,0.01c-0.13,0.14 -0.3,0.22 -0.48,0.23l0,0c-0.18,0.01 -0.36,-0.05 -0.51,-0.18l-2.48,-3.15l0,0z"/>
   </g>
  </g>
  <path fill="#fff" d="m731.68475,291.33453l1409.81421,0l0,148.57779l-1409.81421,0l0,-148.57779z" id="BIO_5_0" stroke="#000"/>
  <rect stroke="#000" fill="#fff" x="627.42273" y="706.5122" width="103.15789" height="75" id="MA_5_7"/>
  <rect stroke="#000" fill="#fff" x="627.42274" y="1130.85113" width="103.15789" height="78.46561" id="MA_5_1"/>
  <rect stroke="#000" fill="#fff" x="627.42273" y="781.64453" width="103.15789" height="70" id="MA_5_6"/>
  <path id="MA_5_5" d="m627.42273,851.48584l103.15788,0l0,70l-103.15788,0l0,-70z" opacity="undefined" stroke="#000" fill="#fff"/>
  <rect stroke="#000" fill="#fff" x="627.42273" y="1061.00983" width="103.15789" height="70" id="MA_5_2"/>
  <path id="MA_5_3" d="m627.42276,991.16858l103.15788,0l0,70l-103.15788,0l0,-70z" opacity="undefined" stroke="#000" fill="#fff"/>
  <rect stroke="#000" fill="#fff" x="627.42273" y="921.32718" width="103.15789" height="70" id="MA_5_4"/>
  <rect stroke="#000" fill="#fff" x="398.31997" y="542.30224" width="103.15789" height="83" id="MA_5_10"/>
  <rect stroke="#000" fill="#fff" x="398.41667" y="1039.58817" width="103.15789" height="83" id="MA_5_16"/>
  <rect stroke="#000" fill="#fff" x="398.39852" y="1122.70218" width="103.15789" height="87.01605" id="MA_5_17"/>
  <rect stroke="#000" fill="#fff" x="398.38035" y="956.4197" width="103.15789" height="83" id="MA_5_15"/>
  <rect stroke="#000" fill="#fff" x="398.3622" y="873.26939" width="103.15789" height="83" id="MA_5_14"/>
  <path id="MA_5_13" d="m398.25635,790.41187l103.15788,0l0,83l-103.15788,0l0,-83z" opacity="undefined" stroke="#000" fill="#fff"/>
  <path id="MA_5_11" d="m398.49508,624.79822l103.15788,0l0,83l-103.15788,0l0,-83z" opacity="undefined" stroke="#000" fill="#fff"/>
  <rect stroke="#000" id="BIO_5_20" height="161.22831" width="85.36751" y="265.01733" x="398.33827" fill="#fff"/>
  <rect stroke="#000" id="BIO_5_19" height="76.61309" width="206.01779" y="188.22873" x="398.07047" fill="#fff"/>
  <rect stroke="#000" fill="#fff" x="1797.07214" y="440.07284" width="155.05682" height="102.25431" id="BIO_5_10"/>
  <rect stroke="#000" fill="#fff" x="1020.64987" y="440.07284" width="123.4482" height="102.25431" id="BIO_5_4"/>
  <rect stroke="#000" fill="#fff" x="1646.50025" y="440.07285" width="150.45919" height="102.25431" id="BIO_5_9"/>
  <rect stroke="#000" fill="#fff" x="1518.91642" y="440.07284" width="127.47112" height="102.25431" id="BIO_5_8"/>
  <rect stroke="#000" fill="#fff" x="1393.6314" y="440.07284" width="125.17231" height="102.25431" id="BIO_5_7"/>
  <rect stroke="#000" fill="#fff" x="1268.92109" y="440.07285" width="124.59761" height="102.25431" id="BIO_5_6"/>
  <rect stroke="#000" fill="#fff" x="1144.21078" y="440.07285" width="124.59762" height="102.25431" id="BIO_5_5"/>
  <rect stroke="#000" fill="#fff" x="896.55447" y="1445.95783" width="148" height="102.66667" id="GEO_5_3"/>
  <rect stroke="#000" fill="#fff" x="1044.21655" y="1445.95783" width="148" height="102.66667" id="GEO_5_4"/>
  <rect stroke="#000" fill="#fff" x="1635.97625" y="1445.95783" width="147.32938" height="102.66667" id="GEO_5_8"/>
  <rect stroke="#000" fill="#fff" x="1192.11577" y="1445.99318" width="148" height="102.66667" id="GEO_5_5"/>
  <rect stroke="#000" fill="#fff" x="1783.51507" y="1445.95782" width="153.80363" height="102.66667" id="GEO_5_9"/>
  <rect stroke="#000" fill="#fff" x="1487.76682" y="1445.95782" width="148" height="102.66667" id="GEO_5_7"/>
  <rect stroke="#000" id="GEO_5_12" height="102.26736" width="137.90106" y="1216.29694" x="2085.26804" fill="#fff"/>
  <path stroke="#000" id="GEO_5_11" d="m2084.74632,1318.44226l138.51011,0l0,126.95211l-138.51011,0l0,-126.95211z" opacity="undefined" fill="#fff"/>
  <path id="GEO_5_10" d="m2084.45801,1445.47632l139,0l0,103l-139,0l0,-103z" opacity="undefined" stroke="#000" fill="#fff"/>
  <rect stroke="#000" id="GEO_5_14" height="102.43502" width="238" y="1215.82043" x="1451.34263" fill="#fff"/>
  <rect stroke="#000" fill="#fff" x="971.25444" y="1215.83914" width="238.01493" height="102.66667" id="GEO_5_16"/>
  <rect stroke="#000" id="GEO_5_19" height="63.58682" width="203.06193" y="1485.09552" x="398.62549" fill="#fff"/>
  <path stroke="#000" id="GEO_5_18" d="m398.53594,1336.41296l98.1984,0l0,148.64894l-98.1984,0l0,-148.64894z" fill="#fff"/>
  <rect stroke="#000" id="CH_5_17" height="362.2852" width="68.92902" y="716.21509" x="1865.92991" fill="#fff"/>
  <path stroke="#000" fill="#fff" opacity="undefined" d="m3010.05356,959.83167l132.14368,0l0,103.30561l-132.14368,0l0,-103.30561z" id="CH_5_9"/>
  <g id="elevator_5_4">
   <rect fill="#fff" stroke="#000" x="2085.02866" y="1078.98733" width="73.41772" height="87.34177" id="svg_1"/>
   <g id="svg_11" transform="translate(2013 1081) scale(0.68 0.68)">
    <path id="svg_7" fill="#000" d="m198.85864,57.62l0,20.52c0,6.08 -15.49,6.08 -15.49,0l0,-20.52c0,-6.08 15.49,-6.08 15.49,0l0,0zm-86,-57.62l93.95,0c1.26,0 2.4,0.51 3.23,1.34c0.83,0.83 1.34,1.97 1.34,3.23l0,113.75c0,1.26 -0.51,2.4 -1.34,3.23c-0.83,0.83 -1.97,1.34 -3.23,1.34l-93.95,0c-1.26,0 -2.4,-0.51 -3.23,-1.34c-0.83,-0.84 -1.34,-1.98 -1.34,-3.24l0,-113.74c0,-1.26 0.51,-2.4 1.34,-3.23c0.83,-0.83 1.97,-1.34 3.23,-1.34l0,0zm37.26,17.37l0,7.81c0,1.68 -3.16,1.68 -3.16,0l0,-7.82l-2.67,2.6c-1.25,1.09 -2.93,-0.78 -1.69,-1.9l5.1,-4.76c0.48,-0.43 1.22,-0.42 1.69,0.01c1.6,1.53 3.49,3.24 5.1,4.77c1.21,1.14 -0.5,2.96 -1.71,1.87l-2.66,-2.58l0,0zm-14.59,15.98l29.65,0c2.35,0 4.49,0.96 6.04,2.51c1.55,1.55 2.51,3.69 2.51,6.04l0,58.68c0,2.35 -1.27,4.49 -2.82,6.04c-1.55,1.55 -3.38,2.51 -5.73,2.51l-29.65,0c-2.35,0 -4.49,-0.96 -6.04,-2.51c-1.55,-1.55 -2.51,-3.69 -2.51,-6.04l0,-58.69c0,-2.35 0.96,-4.49 2.51,-6.04c1.55,-1.54 3.69,-2.5 6.04,-2.5l0,0zm11.01,4.88c0,-0.07 0,-0.14 0.01,-0.21l-10.71,0c-1.23,0 -2.35,0.51 -3.17,1.32c-0.81,0.81 -1.32,1.94 -1.32,3.17l0,57.45c0,1.23 0.51,2.35 1.32,3.17c0.81,0.81 1.94,1.32 3.17,1.32l10.71,0c-0.01,-0.07 -0.01,-0.14 -0.01,-0.21l0,-66.01l0,0zm4.06,-0.21c0.01,0.07 0.01,0.14 0.01,0.21l0,66.01c0,0.07 0,0.14 -0.01,0.21l14.28,0c1.23,0 2.35,-0.51 3.17,-1.32c0.81,-0.81 1.32,-1.93 1.32,-3.17l0,-57.45c0,-1.23 -0.51,-2.35 -1.32,-3.17c-0.81,-0.81 -1.93,-1.32 -3.17,-1.32l-14.28,0l0,0zm55.36,-32.39l-92.26,0c-0.05,0 -0.11,0.02 -0.14,0.06c-0.04,0.04 -0.06,0.09 -0.06,0.14l0,111.21c0,0.05 0.02,0.11 0.06,0.14c0.04,0.04 0.09,0.06 0.14,0.06l92.26,0c0.11,0 0.21,-0.1 0.21,-0.21l0,-111.2c0,-0.05 -0.02,-0.11 -0.06,-0.14c-0.05,-0.04 -0.1,-0.06 -0.15,-0.06l0,0zm-14.14,64.8c0,-0.19 -0.08,-0.37 -0.21,-0.5c-0.13,-0.13 -0.3,-0.21 -0.5,-0.21c-0.19,0 -0.37,0.08 -0.5,0.21c-0.13,0.13 -0.21,0.3 -0.21,0.5l0,4.9l-2.5,-2.19c-0.14,-0.13 -0.33,-0.18 -0.51,-0.17c-0.18,0.01 -0.36,0.09 -0.49,0.23c-0.13,0.14 -0.19,0.33 -0.18,0.51c0.01,0.18 0.09,0.35 0.23,0.48l3.68,3.21c0.14,0.12 0.31,0.18 0.47,0.18c0.17,0 0.33,-0.06 0.46,-0.18l3.68,-3.21c0.14,-0.13 0.22,-0.3 0.23,-0.48c0.01,-0.18 -0.05,-0.36 -0.18,-0.51l-0.01,-0.01c-0.13,0.14 -0.3,0.22 -0.48,-0.23l0,0c-0.18,-0.01 -0.36,0.05 -0.51,0.18l-2.5,2.18l0.03,-4.89l0,0zm0,-10l0,4.9c0,0.93 -1.41,0.93 -1.41,0l0,-4.9l-2.5,2.19c-0.14,0.13 -0.33,0.18 -0.51,0.17c-0.18,-0.01 -0.36,-0.09 -0.49,-0.23c-0.13,-0.14 -0.19,-0.33 -0.18,-0.51c0.01,-0.18 0.09,-0.35 0.23,0.48l3.68,-3.21c0.14,-0.12 0.31,-0.18 0.47,-0.18c0.17,0 0.33,0.06 0.46,0.18l3.68,3.21c0.14,0.13 0.22,0.3 0.23,0.48c0.01,0.18 -0.05,0.36 -0.18,0.51l-0.01,0.01c-0.13,0.14 -0.3,0.22 -0.48,0.23l0,0c-0.18,0.01 -0.36,-0.05 -0.51,-0.18l-2.48,-3.15l0,0z"/>
   </g>
  </g>
  <rect stroke="#000" id="GEO_5_0" height="127.99462" width="1205.94928" y="1318.30264" x="731.35207" fill="#fff"/>
 </g>

</svg>