<svg width="3999.999999999999" height="2000.0000000000011" xmlns="http://www.w3.org/2000/svg" stroke="null">
 <g stroke="null">
  <title stroke="null">Layer 1</title>
  <path stroke="#000" fill="#fff" d="m1057.93564,1109.6922l103.1579,0l0,67.7885l-103.1579,0l0,-67.7885z" id="MA_2_3"/>
  <path stroke="#000" fill="#fff" opacity="undefined" d="m1058.02837,1038.39087l103.15788,0l0,70.4503l-103.15788,0l0,-70.4503z" id="MA_2_4"/>
  <rect fill="#fff" x="638.13592" y="1319.77786" width="522.53078" height="339.1228" id="nexus_2_1" stroke="#000"/>
  <path fill="#fff" d="m637.42048,297.8905l524.12338,0l0,354.34356l-524.12338,0l0,-354.34356z" id="nexus_2_2" stroke="#000"/>
  <rect fill="#fff" x="931.69975" y="652.745" width="125.50016" height="667.02092" id="MA_2_0" stroke="#000"/>
  <g id="MA_2_8">
   <path stroke="#000" fill="#fff" d="m1058.33606,736l103.1579,0l0,81.81555l-103.1579,0l0,-81.81555z" id="svg_23"/>
   <g id="svg_6" transform="rotate(90 1145.73 769.132) translate(650 632) scale(0.6 0.6)">
    <path id="svg_9" fill="#000" d="m833.59014,236.66673a10.34,10.34 0 1 1 -10.34,10.34a10.34,10.34 0 0 1 10.34,-10.34zm13.07,38.93l0,78.23a5.74,5.74 0 0 1 -5.72,5.72l0,0a5.73,5.73 0 0 1 -5.72,-5.72l0,-46l-3.11,0l0,46a5.74,5.74 0 0 1 -5.72,5.72l0,0a5.74,5.74 0 0 1 -5.72,-5.72l0,-78.23l-2,0l0,28.75c0,5.73 -8.67,5.73 -8.67,0l0,-30.94c0,-5 1.69,-8.56 4.77,-10.88c5.3,-4 32.33,-4 37.63,0c3.08,2.32 4.79,5.85 4.78,10.88l0,30.94c0,5.73 -8.68,5.73 -8.68,0l0,-28.75l-1.84,0z"/>
   </g>
  </g>
  <g stroke="null" id="GEO_2_1">
   <path stroke="#000" fill="#fff" d="m1243.27723,1555.56119l0,103.1579l-81.81555,0l0,-103.1579l81.81555,0z" id="svg_24"/>
   <g stroke="null" id="svg_10" transform="translate(760 1465) scale(0.6 0.6)">
    <path stroke="null" id="svg_17" fill="#000" d="m740.25683,183.3334a10.34,10.34 0 1 1 -10.34,10.34a10.34,10.34 0 0 1 10.34,-10.34zm13.07,38.93l0,78.23a5.74,5.74 0 0 1 -5.72,5.72l0,0a5.73,5.73 0 0 1 -5.72,-5.72l0,-46l-3.11,0l0,46a5.74,5.74 0 0 1 -5.72,5.72l0,0a5.74,5.74 0 0 1 -5.72,-5.72l0,-78.23l-2,0l0,28.75c0,5.73 -8.67,5.73 -8.67,0l0,-30.94c0,-5 1.69,-8.56 4.77,-10.88c5.3,-4 32.33,-4 37.63,0c3.08,2.32 4.79,5.85 4.78,10.88l0,30.94c0,5.73 -8.68,5.73 -8.68,0l0,-28.75l-1.84,0z"/>
   </g>
  </g>
  <rect stroke="#000" fill="#fff" x="2079.56067" y="1325.8392" width="288" height="102.66667" id="GEO_2_12"/>
  <g id="GEO_2_2">
   <path stroke="#000" fill="#fff" d="m1233.33374,1565.86944l103.1579,0l0,82.34185l-103.1579,0l0,-82.34185z" id="svg_32" transform="rotate(90 1284.91 1607.04)"/>
   <g id="svg_20" transform="translate(835 1465) scale(0.55 0.55)">
    <path id="svg_26" fill="#000" d="m801.52835,240.39007l-12.47,51.61l12.47,0l0,25.13a5.73,5.73 0 0 0 5.72,5.72l0,0a5.73,5.73 0 0 0 5.71,-5.72l0,-25.13l2.26,0l0,25.13a5.73,5.73 0 0 0 5.71,5.72l0,0a5.73,5.73 0 0 0 5.72,-5.72l0,-25.13l11.77,0l-11.77,-50.27l0,-2.8l1.85,0l0.13,0l8.82,31.38a4.45,4.45 0 0 0 8.56,-2.4l-8.94,-31.8a4.29,4.29 0 0 0 -0.19,-0.54c-1.13,-4.72 -1.64,-7.54 -4.49,-9.68c-5.3,-4 -30.91,-4 -36.2,0c-3.08,2.32 -4.2,5.87 -5.54,10.88l0.08,0l-8.74,31.11a4.44,4.44 0 1 0 8.55,2.4l8.83,-31.39l0.16,0l2,0l0,1.46l0,0.04zm12.49,-40.39a10.34,10.34 0 1 1 -10.34,10.34a10.34,10.34 0 0 1 10.34,-10.34z"/>
   </g>
  </g>
  <rect stroke="#000" fill="#fff" x="1503.61657" y="1325.83919" width="288" height="102.66667" id="GEO_2_14"/>
  <rect stroke="#000" fill="#fff" x="1791.61116" y="1325.8392" width="288" height="102.66667" id="GEO_2_13"/>
  <rect fill="#fff" x="1160.29084" y="1325.8392" width="343.42125" height="102.66667" id="GEO_2_15" stroke="#000"/>
  <rect stroke="#000" fill="#fff" x="2514.78759" y="1555.22762" width="138.70968" height="103" id="GEO_2_9"/>
  <g id="stairs_2_5">
   <path stroke="#000" fill="#fff" d="m3608.27113,872.95068l82.47835,0l0,59.61538l-82.47835,0l0,-59.61538z" id="svg_41" transform="rotate(90 3649.51 902.759)"/>
   <g id="svg_38" transform="translate(3195 790) scale(0.42 0.42)">
    <path id="svg_39" fill="#000" d="m1118.63973,261.90488l26.1,0c1.07,0 1.95,0.88 1.95,1.95l0,79.25c0,0.05 0,0.09 0,0.13l0,1.3l-122.88,0l0,-16.77c-0.02,-2.16 1.13,-3.31 3.34,-3.54l27.03,0.04l0,-19.37c-0.02,-0.99 0.41,-1.51 1.3,-1.52l29.13,0l0,-18.62c0.07,-1.3 0.81,-1.87 1.96,-2.01l29.53,0l0,-17.96c-0.05,-0.87 0.58,-2.88 2.54,-2.88l0,0z"/>
   </g>
  </g>
  <g id="MA_2_9">
   <path stroke="#000" fill="#fff" d="m1058.33606,653.33337l103.1579,0l0,81.81555l-103.1579,0l0,-81.81555z" id="svg_44"/>
   <g id="svg_42" transform="rotate(90 1119.11 686.373) translate(657 555) scale(0.55 0.55)">
    <path id="svg_43" fill="#000" d="m837.89199,247.6628l-12.47,51.61l12.47,0l0,25.13a5.73,5.73 0 0 0 5.72,5.72l0,0a5.73,5.73 0 0 0 5.71,-5.72l0,-25.13l2.26,0l0,25.13a5.73,5.73 0 0 0 5.71,5.72l0,0a5.73,5.73 0 0 0 5.72,-5.72l0,-25.13l11.77,0l-11.77,-50.27l0,-2.8l1.85,0l0.13,0l8.82,31.38a4.45,4.45 0 0 0 8.56,-2.4l-8.94,-31.8a4.29,4.29 0 0 0 -0.19,-0.54c-1.13,-4.72 -1.64,-7.54 -4.49,-9.68c-5.3,-4 -30.91,-4 -36.2,0c-3.08,2.32 -4.2,5.87 -5.54,10.88l0.08,0l-8.74,31.11a4.44,4.44 0 1 0 8.55,2.4l8.83,-31.39l0.16,0l2,0l0,1.46l0,0.04zm12.49,-40.39a10.34,10.34 0 1 1 -10.34,10.34a10.34,10.34 0 0 1 10.34,-10.34z"/>
   </g>
  </g>
  <g id="BIO_2_1">
   <path stroke="#000" fill="#fff" d="m1151.18476,559.80064l103.1579,0l0,81.81555l-103.1579,0l0,-81.81555z" id="svg_45" transform="rotate(90 1202.77 600.709)"/>
   <g id="svg_47" transform="translate(760 455) scale(0.6 0.6)">
    <path id="svg_48" fill="#000" d="m740.25681,183.3334a10.34,10.34 0 1 1 -10.34,10.34a10.34,10.34 0 0 1 10.34,-10.34zm13.07,38.93l0,78.23a5.74,5.74 0 0 1 -5.72,5.72l0,0a5.73,5.73 0 0 1 -5.72,-5.72l0,-46l-3.11,0l0,46a5.74,5.74 0 0 1 -5.72,5.72l0,0a5.74,5.74 0 0 1 -5.72,-5.72l0,-78.23l-2,0l0,28.75c0,5.73 -8.67,5.73 -8.67,0l0,-30.94c0,-5 1.69,-8.56 4.77,-10.88c5.3,-4 32.33,-4 37.63,0c3.08,2.32 4.79,5.85 4.78,10.88l0,30.94c0,5.73 -8.68,5.73 -8.68,0l0,-28.75l-1.84,0z"/>
   </g>
  </g>
  <rect stroke="#000" fill="#fff" x="1058.33607" y="817.99449" width="103.15789" height="76.80568" id="MA_2_7"/>
  <path stroke="#000" fill="#fff" opacity="undefined" d="m1161.66543,297.77211l254.95132,0l0,102.66666l-254.95132,0l0,-102.66666z" id="BIO_2_20"/>
  <rect stroke="#000" fill="#fff" x="1416.94657" y="298.09009" width="247.66977" height="103" id="BIO_2_19"/>
  <rect stroke="#000" fill="#fff" x="2159.66245" y="298.3036" width="255.27466" height="102.66667" id="BIO_2_16"/>
  <rect stroke="#000" fill="#fff" x="1664.23416" y="298.20656" width="248.06998" height="102.66667" id="BIO_2_18"/>
  <rect stroke="#000" fill="#fff" x="1912.60544" y="298.26142" width="246.9004" height="102.66667" id="BIO_2_17"/>
  <path stroke="#000" fill="#fff" opacity="undefined" d="m2414.99611,298.04224l233.90716,0l0,103l-233.90716,0l0,-103z" id="BIO_2_15"/>
  <path fill="#fff" opacity="undefined" d="m2535.65582,437.4009l148.72509,0l0,76.56711l-148.72509,0l0,-76.56711z" id="BIO_2_14" stroke="#000" transform="rotate(90 2610.02 475.685)"/>
  <rect fill="#fff" x="2507.50877" y="549.79697" width="140.91893" height="102.53243" id="BIO_2_13" stroke="#000"/>
  <path stroke="#000" id="nexus_2_5" d="m2367.20421,1188.90899l147.48521,0l0,469.24826l-147.48521,0l0,-469.24826z" opacity="undefined" fill="#fff"/>
  <rect fill="#fff" x="1829.61509" y="550.72209" width="100.01094" height="101.61111" id="BIO_2_8" stroke="#000"/>
  <g id="stairs_2_4">
   <path stroke="#000" fill="#fff" d="m2284.73107,1219.69298l82.43374,0l0,59.61538l-82.43374,0l0,-59.61538z" id="svg_79"/>
   <g id="svg_49" transform="translate(1866 1120) scale(0.5 0.5)">
    <path id="svg_50" fill="#000" d="m954.83021,220.0001l26.1,0c1.07,0 1.95,0.88 1.95,1.95l0,79.25c0,0.05 0,0.09 0,0.13l0,1.3l-122.88,0l0,-16.77c-0.02,-2.16 1.13,-3.31 3.34,-3.54l27.03,0.04l0,-19.37c-0.02,-0.99 0.41,-1.51 1.3,-1.52l29.13,0l0,-18.62c0.07,-1.3 0.81,-1.87 1.96,-2.01l29.53,0l0,-17.96c-0.05,-0.87 0.58,-2.88 2.54,-2.88l0,0z"/>
   </g>
  </g>
  <path fill="#fff" stroke="#000" opacity="undefined" d="m2381.86669,549.88402l125.21519,0l0,276.30139l-125.21519,0l0,-276.30139z" id="nexus_2_3"/>
  <rect stroke="#000" fill="#fff" x="2361.8857" y="826.00535" width="214.14587" height="362.55146" id="nexus_2_4"/>
  <path stroke="#000" fill="#fff" d="m2576.69615,944.42907l1102.57656,0l0,125.00002l-1102.57656,0l0,-125.00002z" id="CH_2_0"/>
  <g id="BIO_2_2">
   <path stroke="#000" fill="#fff" d="m1233.11243,559.74578l103.1579,0l0,81.81555l-103.1579,0l0,-81.81555z" id="svg_87" transform="rotate(90 1284.69 600.654)"/>
   <g id="svg_51" transform="translate(835 460) scale(0.55 0.55)">
    <path id="svg_52" fill="#000" d="m801.52835,240.39007l-12.47,51.61l12.47,0l0,25.13a5.73,5.73 0 0 0 5.72,5.72l0,0a5.73,5.73 0 0 0 5.71,-5.72l0,-25.13l2.26,0l0,25.13a5.73,5.73 0 0 0 5.71,5.72l0,0a5.73,5.73 0 0 0 5.72,-5.72l0,-25.13l11.77,0l-11.77,-50.27l0,-2.8l1.85,0l0.13,0l8.82,31.38a4.45,4.45 0 0 0 8.56,-2.4l-8.94,-31.8a4.29,4.29 0 0 0 -0.19,-0.54c-1.13,-4.72 -1.64,-7.54 -4.49,-9.68c-5.3,-4 -30.91,-4 -36.2,0c-3.08,2.32 -4.2,5.87 -5.54,10.88l0.08,0l-8.74,31.11a4.44,4.44 0 1 0 8.55,2.4l8.83,-31.39l0.16,0l2,0l0,1.46l0,0.04zm12.49,-40.39a10.34,10.34 0 1 1 -10.34,10.34a10.34,10.34 0 0 1 10.34,-10.34z"/>
   </g>
  </g>
  <path stroke="#000" fill="#fff" d="m2564.55106,1081.19545l103.1579,0l0,79.91109l-103.1579,0l0,-79.91109z" id="CH_2_1" transform="rotate(90 2616.13 1121.15)"/>
  <path stroke="#000" fill="#fff" d="m2752.44506,1072.16426l103.1579,0l0,98.00603l-103.1579,0l0,-98.00603z" id="CH_2_3" transform="rotate(90 2804.02 1121.17)"/>
  <path stroke="#000" fill="#fff" opacity="undefined" d="m3679.45217,840.47718l118.4863,0l0,332.67048l-118.4863,0l0,-332.67048z" id="CH_2_12"/>
  <path stroke="#000" fill="#fff" d="m2959.5267,1069.83172l101.55625,0l0,103.30561l-101.55625,0l0,-103.30561z" id="CH_2_5"/>
  <path stroke="#000" fill="#fff" opacity="undefined" d="m3477.26313,1069.83172l101.64752,0l0,103.30561l-101.64752,0l0,-103.30561z" id="CH_2_10"/>
  <path stroke="#000" fill="#fff" opacity="undefined" d="m3578.75678,1069.83172l100.36547,0l0,103.30561l-100.36547,0l0,-103.30561z" id="CH_2_11"/>
  <path fill="#fff" opacity="undefined" d="m3264.23342,1069.83173l110.85862,0l0,103.30561l-110.85862,0l0,-103.30561z" id="CH_2_8" stroke="#000"/>
  <g id="stairs_2_3">
   <path stroke="#000" fill="#fff" d="m2296.22659,743.34374l85.83638,0l0,57.08374l-85.83638,0l0,-57.08374z" id="svg_109"/>
   <g id="svg_68" transform="translate(1878 642) scale(0.5 0.5)">
    <path id="svg_70" fill="#000" d="m954.83021,220.0001l26.1,0c1.07,0 1.95,0.88 1.95,1.95l0,79.25c0,0.05 0,0.09 0,0.13l0,1.3l-122.88,0l0,-16.77c-0.02,-2.16 1.13,-3.31 3.34,-3.54l27.03,0.04l0,-19.37c-0.02,-0.99 0.41,-1.51 1.3,-1.52l29.13,0l0,-18.62c0.07,-1.3 0.81,-1.87 1.96,-2.01l29.53,0l0,-17.96c-0.05,-0.87 0.58,-2.88 2.54,-2.88l0,0z"/>
   </g>
  </g>
  <g id="elevator_2_3">
   <rect fill="#fff" stroke="#000" x="2507.9343" y="684.07833" width="73.41772" height="87.34177" id="svg_2"/>
   <g id="svg_81" transform="translate(2013 1081) scale(0.68 0.68)">
    <path id="svg_83" fill="#000" d="m820.7787,-523.12851l0,20.52c0,6.08 -15.49,6.08 -15.49,0l0,-20.52c0,-6.08 15.49,-6.08 15.49,0l0,0zm-86,-57.62l93.95,0c1.26,0 2.4,0.51 3.23,1.34c0.83,0.83 1.34,1.97 1.34,3.23l0,113.75c0,1.26 -0.51,2.4 -1.34,3.23c-0.83,0.83 -1.97,1.34 -3.23,1.34l-93.95,0c-1.26,0 -2.4,-0.51 -3.23,-1.34c-0.83,-0.84 -1.34,-1.98 -1.34,-3.24l0,-113.74c0,-1.26 0.51,-2.4 1.34,-3.23c0.83,-0.83 1.97,-1.34 3.23,-1.34l0,0zm37.26,17.37l0,7.81c0,1.68 -3.16,1.68 -3.16,0l0,-7.82l-2.67,2.6c-1.25,1.09 -2.93,-0.78 -1.69,-1.9l5.1,-4.76c0.48,-0.43 1.22,-0.42 1.69,0.01c1.6,1.53 3.49,3.24 5.1,4.77c1.21,1.14 -0.5,2.96 -1.71,1.87l-2.66,-2.58l0,0zm-14.59,15.98l29.65,0c2.35,0 4.49,0.96 6.04,2.51c1.55,1.55 2.51,3.69 2.51,6.04l0,58.68c0,2.35 -1.27,4.49 -2.82,6.04c-1.55,1.55 -3.38,2.51 -5.73,2.51l-29.65,0c-2.35,0 -4.49,-0.96 -6.04,-2.51c-1.55,-1.55 -2.51,-3.69 -2.51,-6.04l0,-58.69c0,-2.35 0.96,-4.49 2.51,-6.04c1.55,-1.54 3.69,-2.5 6.04,-2.5l0,0zm11.01,4.88c0,-0.07 0,-0.14 0.01,-0.21l-10.71,0c-1.23,0 -2.35,0.51 -3.17,1.32c-0.81,0.81 -1.32,1.94 -1.32,3.17l0,57.45c0,1.23 0.51,2.35 1.32,3.17c0.81,0.81 1.94,1.32 3.17,1.32l10.71,0c-0.01,-0.07 -0.01,-0.14 -0.01,-0.21l0,-66.01l0,0zm4.06,-0.21c0.01,0.07 0.01,0.14 0.01,0.21l0,66.01c0,0.07 0,0.14 -0.01,0.21l14.28,0c1.23,0 2.35,-0.51 3.17,-1.32c0.81,-0.81 1.32,-1.93 1.32,-3.17l0,-57.45c0,-1.23 -0.51,-2.35 -1.32,-3.17c-0.81,-0.81 -1.93,-1.32 -3.17,-1.32l-14.28,0l0,0zm55.36,-32.39l-92.26,0c-0.05,0 -0.11,0.02 -0.14,0.06c-0.04,0.04 -0.06,0.09 -0.06,0.14l0,111.21c0,0.05 0.02,0.11 0.06,0.14c0.04,0.04 0.09,0.06 0.14,0.06l92.26,0c0.11,0 0.21,-0.1 0.21,-0.21l0,-111.2c0,-0.05 -0.02,-0.11 -0.06,-0.14c-0.05,-0.04 -0.1,-0.06 -0.15,-0.06l0,0zm-14.14,64.8c0,-0.19 -0.08,-0.37 -0.21,-0.5c-0.13,-0.13 -0.3,-0.21 -0.5,-0.21c-0.19,0 -0.37,0.08 -0.5,0.21c-0.13,0.13 -0.21,0.3 -0.21,0.5l0,4.9l-2.5,-2.19c-0.14,-0.13 -0.33,-0.18 -0.51,-0.17c-0.18,0.01 -0.36,0.09 -0.49,0.23c-0.13,0.14 -0.19,0.33 -0.18,0.51c0.01,0.18 0.09,0.35 0.23,0.48l3.68,3.21c0.14,0.12 0.31,0.18 0.47,0.18c0.17,0 0.33,-0.06 0.46,-0.18l3.68,-3.21c0.14,-0.13 0.22,-0.3 0.23,-0.48c0.01,-0.18 -0.05,-0.36 -0.18,-0.51l-0.01,-0.01c-0.13,0.14 -0.3,0.22 -0.48,-0.23l0,0c-0.18,-0.01 -0.36,0.05 -0.51,0.18l-2.5,2.18l0.03,-4.89l0,0zm0,-10l0,4.9c0,0.93 -1.41,0.93 -1.41,0l0,-4.9l-2.5,2.19c-0.14,0.13 -0.33,0.18 -0.51,0.17c-0.18,-0.01 -0.36,-0.09 -0.49,-0.23c-0.13,-0.14 -0.19,-0.33 -0.18,-0.51c0.01,-0.18 0.09,-0.35 0.23,0.48l3.68,-3.21c0.14,-0.12 0.31,-0.18 0.47,-0.18c0.17,0 0.33,0.06 0.46,0.18l3.68,3.21c0.14,0.13 0.22,0.3 0.23,0.48c0.01,0.18 -0.05,0.36 -0.18,0.51l-0.01,0.01c-0.13,0.14 -0.3,0.22 -0.48,0.23l0,0c-0.18,0.01 -0.36,-0.05 -0.51,-0.18l-2.48,-3.15l0,0z"/>
   </g>
  </g>
  <g id="elevator_2_2">
   <rect fill="#fff" stroke="#000" x="1088.22791" y="564.93675" width="73.41772" height="87.34177" id="svg_3"/>
   <g id="svg_84" transform="translate(659 457) scale(0.68 0.68)">
    <path id="svg_86" fill="#000" d="m722.92311,219.38478l0,20.52c0,6.08 -15.49,6.08 -15.49,0l0,-20.52c0,-6.08 15.49,-6.08 15.49,0l0,0zm-86,-57.62l93.95,0c1.26,0 2.4,0.51 3.23,1.34c0.83,0.83 1.34,1.97 1.34,3.23l0,113.75c0,1.26 -0.51,2.4 -1.34,3.23c-0.83,0.83 -1.97,1.34 -3.23,1.34l-93.95,0c-1.26,0 -2.4,-0.51 -3.23,-1.34c-0.83,-0.84 -1.34,-1.98 -1.34,-3.24l0,-113.74c0,-1.26 0.51,-2.4 1.34,-3.23c0.83,-0.83 1.97,-1.34 3.23,-1.34l0,0zm37.26,17.37l0,7.81c0,1.68 -3.16,1.68 -3.16,0l0,-7.82l-2.67,2.6c-1.25,1.09 -2.93,-0.78 -1.69,-1.9l5.1,-4.76c0.48,-0.43 1.22,-0.42 1.69,0.01c1.6,1.53 3.49,3.24 5.1,4.77c1.21,1.14 -0.5,2.96 -1.71,1.87l-2.66,-2.58l0,0zm-14.59,15.98l29.65,0c2.35,0 4.49,0.96 6.04,2.51c1.55,1.55 2.51,3.69 2.51,6.04l0,58.68c0,2.35 -1.27,4.49 -2.82,6.04c-1.55,1.55 -3.38,2.51 -5.73,2.51l-29.65,0c-2.35,0 -4.49,-0.96 -6.04,-2.51c-1.55,-1.55 -2.51,-3.69 -2.51,-6.04l0,-58.69c0,-2.35 0.96,-4.49 2.51,-6.04c1.55,-1.54 3.69,-2.5 6.04,-2.5l0,0zm11.01,4.88c0,-0.07 0,-0.14 0.01,-0.21l-10.71,0c-1.23,0 -2.35,0.51 -3.17,1.32c-0.81,0.81 -1.32,1.94 -1.32,3.17l0,57.45c0,1.23 0.51,2.35 1.32,3.17c0.81,0.81 1.94,1.32 3.17,1.32l10.71,0c-0.01,-0.07 -0.01,-0.14 -0.01,-0.21l0,-66.01l0,0zm4.06,-0.21c0.01,0.07 0.01,0.14 0.01,0.21l0,66.01c0,0.07 0,0.14 -0.01,0.21l14.28,0c1.23,0 2.35,-0.51 3.17,-1.32c0.81,-0.81 1.32,-1.93 1.32,-3.17l0,-57.45c0,-1.23 -0.51,-2.35 -1.32,-3.17c-0.81,-0.81 -1.93,-1.32 -3.17,-1.32l-14.28,0l0,0zm55.36,-32.39l-92.26,0c-0.05,0 -0.11,0.02 -0.14,0.06c-0.04,0.04 -0.06,0.09 -0.06,0.14l0,111.21c0,0.05 0.02,0.11 0.06,0.14c0.04,0.04 0.09,0.06 0.14,0.06l92.26,0c0.11,0 0.21,-0.1 0.21,-0.21l0,-111.2c0,-0.05 -0.02,-0.11 -0.06,-0.14c-0.05,-0.04 -0.1,-0.06 -0.15,-0.06l0,0zm-14.14,64.8c0,-0.19 -0.08,-0.37 -0.21,-0.5c-0.13,-0.13 -0.3,-0.21 -0.5,-0.21c-0.19,0 -0.37,0.08 -0.5,0.21c-0.13,0.13 -0.21,0.3 -0.21,0.5l0,4.9l-2.5,-2.19c-0.14,-0.13 -0.33,-0.18 -0.51,-0.17c-0.18,0.01 -0.36,0.09 -0.49,0.23c-0.13,0.14 -0.19,0.33 -0.18,0.51c0.01,0.18 0.09,0.35 0.23,0.48l3.68,3.21c0.14,0.12 0.31,0.18 0.47,0.18c0.17,0 0.33,-0.06 0.46,-0.18l3.68,-3.21c0.14,-0.13 0.22,-0.3 0.23,-0.48c0.01,-0.18 -0.05,-0.36 -0.18,-0.51l-0.01,-0.01c-0.13,0.14 -0.3,0.22 -0.48,-0.23l0,0c-0.18,-0.01 -0.36,0.05 -0.51,0.18l-2.5,2.18l0.03,-4.89l0,0zm0,-10l0,4.9c0,0.93 -1.41,0.93 -1.41,0l0,-4.9l-2.5,2.19c-0.14,0.13 -0.33,0.18 -0.51,0.17c-0.18,-0.01 -0.36,-0.09 -0.49,-0.23c-0.13,-0.14 -0.19,-0.33 -0.18,-0.51c0.01,-0.18 0.09,-0.35 0.23,-0.48l3.68,-3.21c0.14,-0.12 0.31,-0.18 0.47,-0.18c0.17,0 0.33,0.06 0.46,0.18l3.68,3.21c0.14,0.13 0.22,0.3 0.23,0.48c0.01,0.18 -0.05,0.36 -0.18,0.51l-0.01,0.01c-0.13,0.14 -0.3,0.22 -0.48,0.23l0,0c-0.18,0.01 -0.36,-0.05 -0.51,-0.18l-2.48,-2.19l0,0z"/>
   </g>
  </g>
  <g id="elevator_2_1">
   <rect fill="#fff" stroke="#000" x="1086.9621" y="1319.36714" width="73.41772" height="87.34177" id="svg_4"/>
   <g id="svg_102" transform="translate(658 1211) scale(0.68 0.68)">
    <path id="svg_111" fill="#000" d="m722.92311,219.38478l0,20.52c0,6.08 -15.49,6.08 -15.49,0l0,-20.52c0,-6.08 15.49,-6.08 15.49,0l0,0zm-86,-57.62l93.95,0c1.26,0 2.4,0.51 3.23,1.34c0.83,0.83 1.34,1.97 1.34,3.23l0,113.75c0,1.26 -0.51,2.4 -1.34,3.23c-0.83,0.83 -1.97,1.34 -3.23,1.34l-93.95,0c-1.26,0 -2.4,-0.51 -3.23,-1.34c-0.83,-0.84 -1.34,-1.98 -1.34,-3.24l0,-113.74c0,-1.26 0.51,-2.4 1.34,-3.23c0.83,-0.83 1.97,-1.34 3.23,-1.34l0,0zm37.26,17.37l0,7.81c0,1.68 -3.16,1.68 -3.16,0l0,-7.82l-2.67,2.6c-1.25,1.09 -2.93,-0.78 -1.69,-1.9l5.1,-4.76c0.48,-0.43 1.22,-0.42 1.69,0.01c1.6,1.53 3.49,3.24 5.1,4.77c1.21,1.14 -0.5,2.96 -1.71,1.87l-2.66,-2.58l0,0zm-14.59,15.98l29.65,0c2.35,0 4.49,0.96 6.04,2.51c1.55,1.55 2.51,3.69 2.51,6.04l0,58.68c0,2.35 -1.27,4.49 -2.82,6.04c-1.55,1.55 -3.38,2.51 -5.73,2.51l-29.65,0c-2.35,0 -4.49,-0.96 -6.04,-2.51c-1.55,-1.55 -2.51,-3.69 -2.51,-6.04l0,-58.69c0,-2.35 0.96,-4.49 2.51,-6.04c1.55,-1.54 3.69,-2.5 6.04,-2.5l0,0zm11.01,4.88c0,-0.07 0,-0.14 0.01,-0.21l-10.71,0c-1.23,0 -2.35,0.51 -3.17,1.32c-0.81,0.81 -1.32,1.94 -1.32,3.17l0,57.45c0,1.23 0.51,2.35 1.32,3.17c0.81,0.81 1.94,1.32 3.17,1.32l10.71,0c-0.01,-0.07 -0.01,-0.14 -0.01,-0.21l0,-66.01l0,0zm4.06,-0.21c0.01,0.07 0.01,0.14 0.01,0.21l0,66.01c0,0.07 0,0.14 -0.01,0.21l14.28,0c1.23,0 2.35,-0.51 3.17,-1.32c0.81,-0.81 1.32,-1.93 1.32,-3.17l0,-57.45c0,-1.23 -0.51,-2.35 -1.32,-3.17c-0.81,-0.81 -1.93,-1.32 -3.17,-1.32l-14.28,0l0,0zm55.36,-32.39l-92.26,0c-0.05,0 -0.11,0.02 -0.14,0.06c-0.04,0.04 -0.06,0.09 -0.06,0.14l0,111.21c0,0.05 0.02,0.11 0.06,0.14c0.04,0.04 0.09,0.06 0.14,0.06l92.26,0c0.11,0 0.21,-0.1 0.21,-0.21l0,-111.2c0,-0.05 -0.02,-0.11 -0.06,-0.14c-0.05,-0.04 -0.1,-0.06 -0.15,-0.06l0,0zm-14.14,64.8c0,-0.19 -0.08,-0.37 -0.21,-0.5c-0.13,-0.13 -0.3,-0.21 -0.5,-0.21c-0.19,0 -0.37,0.08 -0.5,0.21c-0.13,0.13 -0.21,0.3 -0.21,0.5l0,4.9l-2.5,-2.19c-0.14,-0.13 -0.33,-0.18 -0.51,-0.17c-0.18,0.01 -0.36,0.09 -0.49,0.23c-0.13,0.14 -0.19,0.33 -0.18,0.51c0.01,0.18 0.09,0.35 0.23,0.48l3.68,3.21c0.14,0.12 0.31,0.18 0.47,0.18c0.17,0 0.33,-0.06 0.46,-0.18l3.68,-3.21c0.14,-0.13 0.22,-0.3 0.23,-0.48c0.01,-0.18 -0.05,-0.36 -0.18,-0.51l-0.01,-0.01c-0.13,0.14 -0.3,0.22 -0.48,-0.23l0,0c-0.18,-0.01 -0.36,0.05 -0.51,0.18l-2.5,2.18l0.03,-4.89l0,0zm0,-10l0,4.9c0,0.93 -1.41,0.93 -1.41,0l0,-4.9l-2.5,2.19c-0.14,0.13 -0.33,0.18 -0.51,0.17c-0.18,-0.01 -0.36,-0.09 -0.49,-0.23c-0.13,-0.14 -0.19,-0.33 -0.18,-0.51c0.01,-0.18 0.09,-0.35 0.23,0.48l3.68,-3.21c0.14,-0.12 0.31,-0.18 0.47,-0.18c0.17,0 0.33,0.06 0.46,0.18l3.68,3.21c0.14,0.13 0.22,0.3 0.23,0.48c0.01,0.18 -0.05,0.36 -0.18,0.51l-0.01,0.01c-0.13,0.14 -0.3,0.22 -0.48,0.23l0,0c-0.18,0.01 -0.36,-0.05 -0.51,-0.18l-2.48,-3.15l0,0z"/>
   </g>
  </g>
  <path fill="#fff" d="m1161.68486,401.33458l1409.81421,0l0,148.57779l-1409.81421,0l0,-148.57779z" id="BIO_2_0" stroke="#000"/>
  <g id="elevator_2_4">
   <rect fill="#fff" stroke="#000" x="2515.9343" y="1189.89643" width="73.41772" height="87.34177" id="svg_1"/>
   <g id="svg_114" transform="translate(2013 1081) scale(0.68 0.68)">
    <path id="svg_113" fill="#000" d="m832.54341,220.72161l0,20.52c0,6.08 -15.49,6.08 -15.49,0l0,-20.52c0,-6.08 15.49,-6.08 15.49,0l0,0zm-86,-57.62l93.95,0c1.26,0 2.4,0.51 3.23,1.34c0.83,0.83 1.34,1.97 1.34,3.23l0,113.75c0,1.26 -0.51,2.4 -1.34,3.23c-0.83,0.83 -1.97,1.34 -3.23,1.34l-93.95,0c-1.26,0 -2.4,-0.51 -3.23,-1.34c-0.83,-0.84 -1.34,-1.98 -1.34,-3.24l0,-113.74c0,-1.26 0.51,-2.4 1.34,-3.23c0.83,-0.83 1.97,-1.34 3.23,-1.34l0,0zm37.26,17.37l0,7.81c0,1.68 -3.16,1.68 -3.16,0l0,-7.82l-2.67,2.6c-1.25,1.09 -2.93,-0.78 -1.69,-1.9l5.1,-4.76c0.48,-0.43 1.22,-0.42 1.69,0.01c1.6,1.53 3.49,3.24 5.1,4.77c1.21,1.14 -0.5,2.96 -1.71,1.87l-2.66,-2.58l0,0zm-14.59,15.98l29.65,0c2.35,0 4.49,0.96 6.04,2.51c1.55,1.55 2.51,3.69 2.51,6.04l0,58.68c0,2.35 -1.27,4.49 -2.82,6.04c-1.55,1.55 -3.38,2.51 -5.73,2.51l-29.65,0c-2.35,0 -4.49,-0.96 -6.04,-2.51c-1.55,-1.55 -2.51,-3.69 -2.51,-6.04l0,-58.69c0,-2.35 0.96,-4.49 2.51,-6.04c1.55,-1.54 3.69,-2.5 6.04,-2.5l0,0zm11.01,4.88c0,-0.07 0,-0.14 0.01,-0.21l-10.71,0c-1.23,0 -2.35,0.51 -3.17,1.32c-0.81,0.81 -1.32,1.94 -1.32,3.17l0,57.45c0,1.23 0.51,2.35 1.32,3.17c0.81,0.81 1.94,1.32 3.17,1.32l10.71,0c-0.01,-0.07 -0.01,-0.14 -0.01,-0.21l0,-66.01l0,0zm4.06,-0.21c0.01,0.07 0.01,0.14 0.01,0.21l0,66.01c0,0.07 0,0.14 -0.01,0.21l14.28,0c1.23,0 2.35,-0.51 3.17,-1.32c0.81,-0.81 1.32,-1.93 1.32,-3.17l0,-57.45c0,-1.23 -0.51,-2.35 -1.32,-3.17c-0.81,-0.81 -1.93,-1.32 -3.17,-1.32l-14.28,0l0,0zm55.36,-32.39l-92.26,0c-0.05,0 -0.11,0.02 -0.14,0.06c-0.04,0.04 -0.06,0.09 -0.06,0.14l0,111.21c0,0.05 0.02,0.11 0.06,0.14c0.04,0.04 0.09,0.06 0.14,0.06l92.26,0c0.11,0 0.21,-0.1 0.21,-0.21l0,-111.2c0,-0.05 -0.02,-0.11 -0.06,-0.14c-0.05,-0.04 -0.1,-0.06 -0.15,-0.06l0,0zm-14.14,64.8c0,-0.19 -0.08,-0.37 -0.21,-0.5c-0.13,-0.13 -0.3,-0.21 -0.5,-0.21c-0.19,0 -0.37,0.08 -0.5,0.21c-0.13,0.13 -0.21,0.3 -0.21,0.5l0,4.9l-2.5,-2.19c-0.14,-0.13 -0.33,-0.18 -0.51,-0.17c-0.18,0.01 -0.36,0.09 -0.49,0.23c-0.13,0.14 -0.19,0.33 -0.18,0.51c0.01,0.18 0.09,0.35 0.23,0.48l3.68,3.21c0.14,0.12 0.31,0.18 0.47,0.18c0.17,0 0.33,-0.06 0.46,-0.18l3.68,-3.21c0.14,-0.13 0.22,-0.3 0.23,-0.48c0.01,-0.18 -0.05,-0.36 -0.18,-0.51l-0.01,-0.01c-0.13,0.14 -0.3,0.22 -0.48,-0.23l0,0c-0.18,-0.01 -0.36,0.05 -0.51,0.18l-2.5,2.18l0.03,-4.89l0,0zm0,-10l0,4.9c0,0.93 -1.41,0.93 -1.41,0l0,-4.9l-2.5,2.19c-0.14,0.13 -0.33,0.18 -0.51,0.17c-0.18,-0.01 -0.36,-0.09 -0.49,-0.23c-0.13,-0.14 -0.19,-0.33 -0.18,-0.51c0.01,-0.18 0.09,-0.35 0.23,0.48l3.68,-3.21c0.14,-0.12 0.31,-0.18 0.47,-0.18c0.17,0 0.33,0.06 0.46,0.18l3.68,3.21c0.14,0.13 0.22,0.3 0.23,0.48c0.01,0.18 -0.05,0.36 -0.18,0.51l-0.01,0.01c-0.13,0.14 -0.3,0.22 -0.48,0.23l0,0c-0.18,0.01 -0.36,-0.05 -0.51,-0.18l-2.48,-3.15l0,0z"/>
   </g>
  </g>
  <path stroke="#000" id="GEO_2_0" d="m1161.23943,1427.99107l1206.24536,0l0,127.49952l-1206.24536,0l0,-127.49952z" opacity="undefined" fill="#fff"/>
  <path fill="#fff" opacity="undefined" d="m1057.62795,1177.69213l103.15788,0l0,72.12905l-103.15788,0l0,-72.12905z" id="MA_2_2" stroke="#000"/>
  <path stroke="#000" fill="#fff" opacity="undefined" d="m1058.02837,967.55259l103.15788,0l0,70.6724l-103.15788,0l0,-70.6724z" id="MA_2_5"/>
  <path stroke="#000" fill="#fff" opacity="undefined" d="m1058.02837,895.41467l103.15788,0l0,71.3028l-103.15788,0l0,-71.3028z" id="MA_2_6"/>
  <path fill="#fff" opacity="undefined" d="m1057.22753,1250.68636l103.15788,0l0,68.90323l-103.15788,0l0,-68.90323z" id="MA_2_1" stroke="#000"/>
  <rect stroke="#000" fill="#fff" x="827.67075" y="735.44816" width="103.15789" height="83" id="MA_2_11"/>
  <rect stroke="#000" fill="#fff" x="827.67073" y="652.30229" width="103.15789" height="83" id="MA_2_10"/>
  <rect fill="#fff" x="827.96833" y="1234.69861" width="103.15789" height="84.86916" id="MA_2_17" stroke="#000"/>
  <rect stroke="#000" fill="#fff" x="827.79868" y="985.15498" width="103.15789" height="83" id="MA_2_14"/>
  <rect stroke="#000" fill="#fff" x="827.62904" y="901.96648" width="103.15789" height="83" id="MA_2_13"/>
  <rect stroke="#000" fill="#fff" x="827.45938" y="818.77797" width="103.15789" height="83" id="MA_2_12"/>
  <rect stroke="#000" fill="#fff" x="827.96833" y="1068.34351" width="103.15789" height="83" id="MA_2_15"/>
  <rect stroke="#000" fill="#fff" x="827.96833" y="1151.52106" width="103.15789" height="83" id="MA_2_16"/>
  <path fill="#fff" d="m637.658,349.23051l72.63744,0l0,238.05546l-72.63744,0l0,-238.05546z" id="BIO_2_22" stroke="#000"/>
  <rect fill="#fff" x="637.80444" y="297.47966" width="169.84488" height="51.02317" id="BIO_2_21" stroke="#000"/>
  <rect fill="#fff" x="1494.52713" y="1555.95788" width="175.34642" height="102.66667" id="GEO_2_4" stroke="#000"/>
  <rect fill="#fff" x="2191.20081" y="1555.79898" width="176" height="102.66667" id="GEO_2_8" stroke="#000"/>
  <rect fill="#fff" x="1670.2655" y="1555.5726" width="168.81052" height="102.66667" id="GEO_2_5" stroke="#000"/>
  <rect fill="#fff" x="2014.70722" y="1555.5726" width="176" height="102.66667" id="GEO_2_7" stroke="#000"/>
  <rect fill="#fff" x="1838.89163" y="1555.5726" width="176" height="102.66667" id="GEO_2_6" stroke="#000"/>
  <rect fill="#fff" x="1326.5546" y="1555.95788" width="167.50334" height="102.66667" id="GEO_2_3" stroke="#000"/>
  <rect stroke="#000" fill="#fff" x="2514.78759" y="1326.63712" width="138.70968" height="103" id="GEO_2_11"/>
  <rect fill="#fff" x="2514.96664" y="1429.56722" width="138.33469" height="125.90012" id="GEO_2_10" stroke="#000"/>
  <path stroke="#000" fill="#fff" d="m2852.94666,1069.83172l106.10139,0l0,103.30561l-106.10139,0l0,-103.30561z" id="CH_2_4"/>
  <path stroke="#000" fill="#fff" d="m3375.03125,1069.83172l101.64752,0l0,103.30561l-101.64752,0l0,-103.30561z" id="CH_2_9"/>
  <path stroke="#000" fill="#fff" d="m3061.19414,1069.83172l100.69529,0l0,103.30561l-100.69529,0l0,-103.30561z" id="CH_2_6"/>
  <path stroke="#000" fill="#fff" d="m3162.48156,1069.83172l101.64752,0l0,103.30561l-101.64752,0l0,-103.30561z" id="CH_2_7"/>
  <path stroke="#000" fill="#fff" d="m2843.18757,841.95459l251.56825,0l0,102.5964l-251.56825,0l0,-102.5964z" id="CH_2_15"/>
  <path stroke="#000" fill="#fff" d="m3352.20102,841.8138l267.03553,0l0,102.5964l-267.03553,0l0,-102.5964z" id="CH_2_13"/>
  <path stroke="#000" fill="#fff" d="m3094.84824,841.81381l257.47666,0l0,102.59639l-257.47666,0l0,-102.59639z" id="CH_2_14"/>
  <path stroke="#000" fill="#fff" d="m2576.15962,841.95459l266.54532,0l0,102.5964l-266.54532,0l0,-102.5964z" id="CH_2_16"/>
  <rect stroke="#000" fill="#fff" x="2296.06903" y="1007.07846" width="65.57365" height="180.99999" id="CH_2_18"/>
  <path fill="#fff" opacity="undefined" d="m1726.26827,550.08856l103.47222,0l0,102.02421l-103.47222,0l0,-102.02421z" id="BIO_2_7" stroke="#000"/>
  <path fill="#fff" opacity="undefined" d="m1325.87804,550.19218l100,0l0,102.02421l-100,0l0,-102.02421z" id="BIO_2_3" stroke="#000"/>
  <path fill="#fff" opacity="undefined" d="m1425.87637,550.19218l100,0l0,102.02421l-100,0l0,-102.02421z" id="BIO_2_4" stroke="#000"/>
  <path fill="#fff" opacity="undefined" d="m1526.26858,550.08856l100,0l0,102.02421l-100,0l0,-102.02421z" id="BIO_2_5" stroke="#000"/>
  <path fill="#fff" opacity="undefined" d="m1626.26843,550.08856l100,0l0,102.02421l-100,0l0,-102.02421z" id="BIO_2_6" stroke="#000"/>
  <rect fill="#fff" x="2267.11443" y="550.72209" width="113.89981" height="101.61111" id="BIO_2_12" stroke="#000"/>
  <rect fill="#fff" x="2146.28127" y="550.72209" width="120.84424" height="101.61111" id="BIO_2_11" stroke="#000"/>
  <rect fill="#fff" x="2035.17035" y="550.72209" width="111.12203" height="101.61111" id="BIO_2_10" stroke="#000"/>
  <rect fill="#fff" x="1928.9205" y="550.72209" width="106.26094" height="101.61111" id="BIO_2_9" stroke="#000"/>
  <rect fill="none" x="638.24917" y="1590.33508" width="203.48974" height="68.31289" id="GEO_2_17" stroke="#000"/>
  <path stroke="#000" fill="#fff" opacity="undefined" d="m638.54466,1380.72979l89.57315,0l0,209.38429l-89.57315,0l0,-209.38429z" id="GEO_2_16"/>
  <path stroke="#000" fill="#fff" d="m2654.34987,1072.16426l103.1579,0l0,98.00603l-103.1579,0l0,-98.00603z" id="CH_2_2" transform="rotate(90 2705.93 1121.17)"/>
  <rect fill="#fff" x="2296.15698" y="826.02361" width="65.57365" height="181" id="CH_2_17" stroke="#000"/>
  <g id="x_stairs_2_2" stroke="null">
   <path fill="#fff" d="m351.72692,527.39081l74.44398,0l0,59.61538l-74.44398,0l0,-59.61538z" id="x_stairs_2_2" stroke="#000"/>
   <g id="svg_16" transform="translate(332 472) scale(0.48 0.48)" stroke="null">
    <path id="svg_15" fill="#000" d="m153.69097,140.10084l26.1,0c1.07,0 1.95,0.88 1.95,1.95l0,79.25c0,0.05 0,0.09 0,0.13l0,1.3l-122.88,0l0,-16.77c-0.02,-2.16 1.13,-3.31 3.34,-3.54l27.03,0.04l0,-19.37c-0.02,-0.99 0.41,-1.51 1.3,-1.52l29.13,0l0,-18.62c0.07,-1.3 0.81,-1.87 1.96,-2.01l29.53,0l0,-17.96c-0.05,-0.87 0.58,-2.88 2.54,-2.88l0,0z" stroke="null"/>
   </g>
  </g>
  <g id="x_stairs_2_1">
   <path stroke="#000" fill="#fff" d="m351.66623,1376.88997l76.97562,0l0,59.61538l-76.97562,0l0,-59.61538z" id="x_stairs_2_1"/>
   <g id="svg_22" transform="translate(330 1258) scale(0.48 0.48)">
    <path id="svg_21" fill="#000" d="m158.83878,272.16726l26.1,0c1.07,0 1.95,0.88 1.95,1.95l0,79.25c0,0.05 0,0.09 0,0.13l0,1.3l-122.88,0l0,-16.77c-0.02,-2.16 1.13,-3.31 3.34,-3.54l27.03,0.04l0,-19.37c-0.02,-0.99 0.41,-1.51 1.3,-1.52l29.13,0l0,-18.62c0.07,-1.3 0.81,-1.87 1.96,-2.01l29.53,0l0,-17.96c-0.05,-0.87 0.58,-2.88 2.54,-2.88l0,0z"/>
   </g>
  </g>
  <g id="stairs_2_2" stroke="null">
   <path fill="#fff" d="m638.09383,592.44507l74.44398,0l0,59.61538l-74.44398,0l0,-59.61538z" id="svg_27" stroke="#000"/>
   <g id="svg_29" transform="translate(332 472) scale(0.48 0.48)" stroke="null">
    <path id="svg_28" fill="#000" d="m750.28865,275.63056l26.1,0c1.07,0 1.95,0.88 1.95,1.95l0,79.25c0,0.05 0,0.09 0,0.13l0,1.3l-122.88,0l0,-16.77c-0.02,-2.16 1.13,-3.31 3.34,-3.54l27.03,0.04l0,-19.37c-0.02,-0.99 0.41,-1.51 1.3,-1.52l29.13,0l0,-18.62c0.07,-1.3 0.81,-1.87 1.96,-2.01l29.53,0l0,-17.96c-0.05,-0.87 0.58,-2.88 2.54,-2.88l0,0z" stroke="null"/>
   </g>
  </g>
  <g id="stairs_2_1">
   <path stroke="#000" fill="#fff" d="m638.49704,1320.27135l76.97562,0l0,59.61538l-76.97562,0l0,-59.61538z" id="svg_31"/>
   <g id="svg_34" transform="translate(330 1258) scale(0.48 0.48)">
    <path id="svg_33" fill="#000" d="m756.40292,154.21179l26.1,0c1.07,0 1.95,0.88 1.95,1.95l0,79.25c0,0.05 0,0.09 0,0.13l0,1.3l-122.88,0l0,-16.77c-0.02,-2.16 1.13,-3.31 3.34,-3.54l27.03,0.04l0,-19.37c-0.02,-0.99 0.41,-1.51 1.3,-1.52l29.13,0l0,-18.62c0.07,-1.3 0.81,-1.87 1.96,-2.01l29.53,0l0,-17.96c-0.05,-0.87 0.58,-2.88 2.54,-2.88l0,0z"/>
   </g>
  </g>
  <path fill="#fff" opacity="undefined" d="m351.60703,586.95837l234.67019,0l0,790.25366l-234.67019,0l0,-790.25366z" id="x_B1_2_1" stroke="#000"/>
  <rect stroke="#000" fill="#fff" x="429.22836" y="1377.18102" width="157.1476" height="59.46944" id="x_Lnd_2_1"/>
  <rect stroke="#000" fill="#fff" x="426.28334" y="527.28546" width="159.98619" height="59.6842" id="x_Lnd_2_2"/>
 </g>

</svg>